%TF.GenerationSoftware,KiCad,Pcbnew,7.0.5*%
%TF.CreationDate,2023-07-17T11:42:08-04:00*%
%TF.ProjectId,elora_vision,656c6f72-615f-4766-9973-696f6e2e6b69,rev?*%
%TF.SameCoordinates,Original*%
%TF.FileFunction,Soldermask,Top*%
%TF.FilePolarity,Negative*%
%FSLAX46Y46*%
G04 Gerber Fmt 4.6, Leading zero omitted, Abs format (unit mm)*
G04 Created by KiCad (PCBNEW 7.0.5) date 2023-07-17 11:42:08*
%MOMM*%
%LPD*%
G01*
G04 APERTURE LIST*
G04 Aperture macros list*
%AMRoundRect*
0 Rectangle with rounded corners*
0 $1 Rounding radius*
0 $2 $3 $4 $5 $6 $7 $8 $9 X,Y pos of 4 corners*
0 Add a 4 corners polygon primitive as box body*
4,1,4,$2,$3,$4,$5,$6,$7,$8,$9,$2,$3,0*
0 Add four circle primitives for the rounded corners*
1,1,$1+$1,$2,$3*
1,1,$1+$1,$4,$5*
1,1,$1+$1,$6,$7*
1,1,$1+$1,$8,$9*
0 Add four rect primitives between the rounded corners*
20,1,$1+$1,$2,$3,$4,$5,0*
20,1,$1+$1,$4,$5,$6,$7,0*
20,1,$1+$1,$6,$7,$8,$9,0*
20,1,$1+$1,$8,$9,$2,$3,0*%
G04 Aperture macros list end*
%ADD10C,0.010000*%
%ADD11RoundRect,0.190000X0.140000X0.170000X-0.140000X0.170000X-0.140000X-0.170000X0.140000X-0.170000X0*%
%ADD12RoundRect,0.185000X0.185000X-0.135000X0.185000X0.135000X-0.185000X0.135000X-0.185000X-0.135000X0*%
%ADD13C,4.500000*%
%ADD14RoundRect,0.050000X0.900000X-0.500000X0.900000X0.500000X-0.900000X0.500000X-0.900000X-0.500000X0*%
%ADD15RoundRect,0.190000X-0.170000X0.140000X-0.170000X-0.140000X0.170000X-0.140000X0.170000X0.140000X0*%
%ADD16RoundRect,0.268750X0.218750X0.256250X-0.218750X0.256250X-0.218750X-0.256250X0.218750X-0.256250X0*%
%ADD17RoundRect,0.250000X0.200000X0.275000X-0.200000X0.275000X-0.200000X-0.275000X0.200000X-0.275000X0*%
%ADD18RoundRect,0.190000X0.170000X-0.140000X0.170000X0.140000X-0.170000X0.140000X-0.170000X-0.140000X0*%
%ADD19RoundRect,0.190000X-0.140000X-0.170000X0.140000X-0.170000X0.140000X0.170000X-0.140000X0.170000X0*%
%ADD20RoundRect,0.197500X0.147500X0.172500X-0.147500X0.172500X-0.147500X-0.172500X0.147500X-0.172500X0*%
%ADD21RoundRect,0.185000X-0.135000X-0.185000X0.135000X-0.185000X0.135000X0.185000X-0.135000X0.185000X0*%
%ADD22RoundRect,0.250000X-0.200000X-0.275000X0.200000X-0.275000X0.200000X0.275000X-0.200000X0.275000X0*%
%ADD23RoundRect,0.050000X0.500000X-0.500000X0.500000X0.500000X-0.500000X0.500000X-0.500000X-0.500000X0*%
%ADD24RoundRect,0.050000X1.100000X-0.525000X1.100000X0.525000X-1.100000X0.525000X-1.100000X-0.525000X0*%
%ADD25RoundRect,0.125000X-0.075000X0.312500X-0.075000X-0.312500X0.075000X-0.312500X0.075000X0.312500X0*%
%ADD26RoundRect,0.125000X-0.312500X0.075000X-0.312500X-0.075000X0.312500X-0.075000X0.312500X0.075000X0*%
%ADD27RoundRect,0.050000X-2.400000X2.400000X-2.400000X-2.400000X2.400000X-2.400000X2.400000X2.400000X0*%
%ADD28RoundRect,0.112500X-0.375000X-0.062500X0.375000X-0.062500X0.375000X0.062500X-0.375000X0.062500X0*%
%ADD29RoundRect,0.112500X-0.062500X-0.375000X0.062500X-0.375000X0.062500X0.375000X-0.062500X0.375000X0*%
%ADD30RoundRect,0.050000X-2.800000X-2.800000X2.800000X-2.800000X2.800000X2.800000X-2.800000X2.800000X0*%
%ADD31RoundRect,0.268750X-0.218750X-0.256250X0.218750X-0.256250X0.218750X0.256250X-0.218750X0.256250X0*%
%ADD32RoundRect,0.050000X-0.400000X0.450000X-0.400000X-0.450000X0.400000X-0.450000X0.400000X0.450000X0*%
%ADD33RoundRect,0.185000X-0.185000X0.135000X-0.185000X-0.135000X0.185000X-0.135000X0.185000X0.135000X0*%
%ADD34RoundRect,0.275000X0.225000X0.250000X-0.225000X0.250000X-0.225000X-0.250000X0.225000X-0.250000X0*%
%ADD35RoundRect,0.050000X0.850000X-0.850000X0.850000X0.850000X-0.850000X0.850000X-0.850000X-0.850000X0*%
%ADD36O,1.800000X1.800000*%
%ADD37RoundRect,0.050000X0.675000X-0.200000X0.675000X0.200000X-0.675000X0.200000X-0.675000X-0.200000X0*%
%ADD38O,2.000000X1.300000*%
%ADD39RoundRect,0.050000X0.950000X-0.600000X0.950000X0.600000X-0.950000X0.600000X-0.950000X-0.600000X0*%
%ADD40C,1.550000*%
%ADD41RoundRect,0.050000X0.950000X-0.750000X0.950000X0.750000X-0.950000X0.750000X-0.950000X-0.750000X0*%
%ADD42RoundRect,0.197500X0.172500X-0.147500X0.172500X0.147500X-0.172500X0.147500X-0.172500X-0.147500X0*%
%ADD43RoundRect,0.050000X0.600000X-0.700000X0.600000X0.700000X-0.600000X0.700000X-0.600000X-0.700000X0*%
%ADD44RoundRect,0.197500X-0.147500X-0.172500X0.147500X-0.172500X0.147500X0.172500X-0.147500X0.172500X0*%
%ADD45C,1.975000*%
%ADD46RoundRect,0.185000X0.135000X0.185000X-0.135000X0.185000X-0.135000X-0.185000X0.135000X-0.185000X0*%
%ADD47O,1.150000X0.500000*%
%ADD48RoundRect,0.050000X0.339411X0.000000X0.000000X0.339411X-0.339411X0.000000X0.000000X-0.339411X0*%
%ADD49RoundRect,0.275000X-0.225000X-0.250000X0.225000X-0.250000X0.225000X0.250000X-0.225000X0.250000X0*%
%ADD50RoundRect,0.050000X-0.850000X0.850000X-0.850000X-0.850000X0.850000X-0.850000X0.850000X0.850000X0*%
G04 APERTURE END LIST*
%TO.C,U2*%
D10*
X77019600Y-139411600D02*
X77019600Y-139731600D01*
X76569600Y-139731600D01*
X76569600Y-138961600D01*
X77019600Y-139411600D01*
G36*
X77019600Y-139411600D02*
G01*
X77019600Y-139731600D01*
X76569600Y-139731600D01*
X76569600Y-138961600D01*
X77019600Y-139411600D01*
G37*
X77669600Y-139731600D02*
X77219600Y-139731600D01*
X77219600Y-139411600D01*
X77499600Y-139131600D01*
X77669600Y-139131600D01*
X77669600Y-139731600D01*
G36*
X77669600Y-139731600D02*
G01*
X77219600Y-139731600D01*
X77219600Y-139411600D01*
X77499600Y-139131600D01*
X77669600Y-139131600D01*
X77669600Y-139731600D01*
G37*
X77019600Y-138551600D02*
X76739600Y-138831600D01*
X76569600Y-138831600D01*
X76569600Y-138231600D01*
X77019600Y-138231600D01*
X77019600Y-138551600D01*
G36*
X77019600Y-138551600D02*
G01*
X76739600Y-138831600D01*
X76569600Y-138831600D01*
X76569600Y-138231600D01*
X77019600Y-138231600D01*
X77019600Y-138551600D01*
G37*
X77669600Y-138831600D02*
X77499600Y-138831600D01*
X77219600Y-138551600D01*
X77219600Y-138231600D01*
X77669600Y-138231600D01*
X77669600Y-138831600D01*
G36*
X77669600Y-138831600D02*
G01*
X77499600Y-138831600D01*
X77219600Y-138551600D01*
X77219600Y-138231600D01*
X77669600Y-138231600D01*
X77669600Y-138831600D01*
G37*
%TD*%
D11*
%TO.C,C1*%
X56007000Y-126314200D03*
X55047000Y-126314200D03*
%TD*%
D12*
%TO.C,R2*%
X57150000Y-124893800D03*
X57150000Y-123873800D03*
%TD*%
D13*
%TO.C,H3*%
X80000000Y-117000000D03*
%TD*%
D14*
%TO.C,Y5*%
X51047400Y-126990000D03*
X51047400Y-129490000D03*
%TD*%
D11*
%TO.C,C4*%
X56108600Y-109474000D03*
X55148600Y-109474000D03*
%TD*%
D15*
%TO.C,C34*%
X71043800Y-116433600D03*
X71043800Y-117393600D03*
%TD*%
D11*
%TO.C,C41*%
X48634400Y-129052800D03*
X47674400Y-129052800D03*
%TD*%
D16*
%TO.C,D1*%
X83020400Y-136880600D03*
X81445400Y-136880600D03*
%TD*%
D17*
%TO.C,R8*%
X83058000Y-140081000D03*
X81408000Y-140081000D03*
%TD*%
D18*
%TO.C,C43*%
X61649900Y-113889500D03*
X61649900Y-112929500D03*
%TD*%
D19*
%TO.C,C2*%
X57409200Y-109474000D03*
X58369200Y-109474000D03*
%TD*%
D15*
%TO.C,C18*%
X65938400Y-112857400D03*
X65938400Y-113817400D03*
%TD*%
D19*
%TO.C,C31*%
X66705600Y-107416600D03*
X67665600Y-107416600D03*
%TD*%
D20*
%TO.C,L5*%
X71057000Y-112649000D03*
X70087000Y-112649000D03*
%TD*%
D21*
%TO.C,R7*%
X67767200Y-124561600D03*
X68787200Y-124561600D03*
%TD*%
D22*
%TO.C,R13*%
X72518000Y-133883400D03*
X74168000Y-133883400D03*
%TD*%
D18*
%TO.C,C25*%
X60807600Y-107442000D03*
X60807600Y-106482000D03*
%TD*%
D11*
%TO.C,C33*%
X73907400Y-117440100D03*
X72947400Y-117440100D03*
%TD*%
D15*
%TO.C,C40*%
X47085000Y-132639600D03*
X47085000Y-133599600D03*
%TD*%
%TO.C,C30*%
X71831200Y-108488600D03*
X71831200Y-109448600D03*
%TD*%
D11*
%TO.C,C8*%
X69732333Y-135581066D03*
X68772333Y-135581066D03*
%TD*%
D19*
%TO.C,C23*%
X68836600Y-122910600D03*
X69796600Y-122910600D03*
%TD*%
D23*
%TO.C,J3*%
X49377200Y-110388400D03*
D24*
X47877200Y-111863400D03*
D23*
X46377200Y-110388400D03*
D24*
X47877200Y-108913400D03*
%TD*%
D22*
%TO.C,R9*%
X50032400Y-137274800D03*
X51682400Y-137274800D03*
%TD*%
D18*
%TO.C,C7*%
X67473267Y-137118533D03*
X67473267Y-136158533D03*
%TD*%
D19*
%TO.C,C36*%
X67442200Y-121031000D03*
X68402200Y-121031000D03*
%TD*%
D18*
%TO.C,C26*%
X53670200Y-108074400D03*
X53670200Y-107114400D03*
%TD*%
D25*
%TO.C,U6*%
X64499100Y-116378900D03*
X63849100Y-116378900D03*
X63199100Y-116378900D03*
X62549100Y-116378900D03*
X61899100Y-116378900D03*
X61249100Y-116378900D03*
X60599100Y-116378900D03*
D26*
X59561600Y-117416400D03*
X59561600Y-118066400D03*
X59561600Y-118716400D03*
X59561600Y-119366400D03*
X59561600Y-120016400D03*
X59561600Y-120666400D03*
X59561600Y-121316400D03*
D25*
X60599100Y-122353900D03*
X61249100Y-122353900D03*
X61899100Y-122353900D03*
X62549100Y-122353900D03*
X63199100Y-122353900D03*
X63849100Y-122353900D03*
X64499100Y-122353900D03*
D26*
X65536600Y-121316400D03*
X65536600Y-120666400D03*
X65536600Y-120016400D03*
X65536600Y-119366400D03*
X65536600Y-118716400D03*
X65536600Y-118066400D03*
X65536600Y-117416400D03*
D27*
X62549100Y-119366400D03*
%TD*%
D13*
%TO.C,H4*%
X50000000Y-117000000D03*
%TD*%
D28*
%TO.C,U1*%
X59156600Y-128244600D03*
X59156600Y-128744600D03*
X59156600Y-129244600D03*
X59156600Y-129744600D03*
X59156600Y-130244600D03*
X59156600Y-130744600D03*
X59156600Y-131244600D03*
X59156600Y-131744600D03*
X59156600Y-132244600D03*
X59156600Y-132744600D03*
X59156600Y-133244600D03*
X59156600Y-133744600D03*
D29*
X59844100Y-134432100D03*
X60344100Y-134432100D03*
X60844100Y-134432100D03*
X61344100Y-134432100D03*
X61844100Y-134432100D03*
X62344100Y-134432100D03*
X62844100Y-134432100D03*
X63344100Y-134432100D03*
X63844100Y-134432100D03*
X64344100Y-134432100D03*
X64844100Y-134432100D03*
X65344100Y-134432100D03*
D28*
X66031600Y-133744600D03*
X66031600Y-133244600D03*
X66031600Y-132744600D03*
X66031600Y-132244600D03*
X66031600Y-131744600D03*
X66031600Y-131244600D03*
X66031600Y-130744600D03*
X66031600Y-130244600D03*
X66031600Y-129744600D03*
X66031600Y-129244600D03*
X66031600Y-128744600D03*
X66031600Y-128244600D03*
D29*
X65344100Y-127557100D03*
X64844100Y-127557100D03*
X64344100Y-127557100D03*
X63844100Y-127557100D03*
X63344100Y-127557100D03*
X62844100Y-127557100D03*
X62344100Y-127557100D03*
X61844100Y-127557100D03*
X61344100Y-127557100D03*
X60844100Y-127557100D03*
X60344100Y-127557100D03*
X59844100Y-127557100D03*
D30*
X62594100Y-130994600D03*
%TD*%
D19*
%TO.C,C37*%
X67442200Y-119498000D03*
X68402200Y-119498000D03*
%TD*%
D31*
%TO.C,D3*%
X46441400Y-139882314D03*
X48016400Y-139882314D03*
%TD*%
D15*
%TO.C,C22*%
X57150000Y-121315600D03*
X57150000Y-122275600D03*
%TD*%
D32*
%TO.C,Q1*%
X58263900Y-112751700D03*
X58263900Y-114151700D03*
X59363900Y-114151700D03*
X59363900Y-112751700D03*
%TD*%
D33*
%TO.C,R15*%
X72974200Y-126288800D03*
X72974200Y-127308800D03*
%TD*%
D34*
%TO.C,C15*%
X74041000Y-138912600D03*
X72491000Y-138912600D03*
%TD*%
D35*
%TO.C,J4*%
X55524400Y-140487400D03*
D36*
X58064400Y-140487400D03*
X60604400Y-140487400D03*
X63144400Y-140487400D03*
X65684400Y-140487400D03*
X68224400Y-140487400D03*
%TD*%
D19*
%TO.C,C29*%
X70032700Y-111004000D03*
X70992700Y-111004000D03*
%TD*%
D37*
%TO.C,J1*%
X79737500Y-130992400D03*
X79737500Y-130342400D03*
X79737500Y-129692400D03*
X79737500Y-129042400D03*
X79737500Y-128392400D03*
D38*
X82437500Y-133192400D03*
D39*
X82437500Y-132592400D03*
D40*
X79737500Y-132192400D03*
D41*
X82437500Y-130692400D03*
X82437500Y-128692400D03*
D40*
X79737500Y-127192400D03*
D39*
X82437500Y-126792400D03*
D38*
X82437500Y-126192400D03*
%TD*%
D15*
%TO.C,C16*%
X64465200Y-112832000D03*
X64465200Y-113792000D03*
%TD*%
D11*
%TO.C,C9*%
X69732333Y-134324533D03*
X68772333Y-134324533D03*
%TD*%
D31*
%TO.C,D2*%
X46441400Y-137274800D03*
X48016400Y-137274800D03*
%TD*%
D42*
%TO.C,L1*%
X51816000Y-108033600D03*
X51816000Y-107063600D03*
%TD*%
D21*
%TO.C,R5*%
X72868600Y-129057400D03*
X73888600Y-129057400D03*
%TD*%
D15*
%TO.C,C20*%
X67538600Y-113436400D03*
X67538600Y-114396400D03*
%TD*%
%TO.C,C21*%
X62966600Y-113416200D03*
X62966600Y-114376200D03*
%TD*%
D43*
%TO.C,Y4*%
X50793400Y-134316000D03*
X50793400Y-132116000D03*
X49093400Y-132116000D03*
X49093400Y-134316000D03*
%TD*%
D44*
%TO.C,L2*%
X64693800Y-110820200D03*
X65663800Y-110820200D03*
%TD*%
D45*
%TO.C,B2*%
X53694400Y-122351800D03*
X47194400Y-122351800D03*
%TD*%
D18*
%TO.C,C6*%
X63610933Y-137169333D03*
X63610933Y-136209333D03*
%TD*%
D15*
%TO.C,C10*%
X64960201Y-136158533D03*
X64960201Y-137118533D03*
%TD*%
D22*
%TO.C,R1*%
X74968600Y-127304800D03*
X76618600Y-127304800D03*
%TD*%
D18*
%TO.C,C38*%
X52698400Y-133500600D03*
X52698400Y-132540600D03*
%TD*%
D12*
%TO.C,R6*%
X62344399Y-137219333D03*
X62344399Y-136199333D03*
%TD*%
D18*
%TO.C,C19*%
X56138100Y-112751700D03*
X56138100Y-111791700D03*
%TD*%
%TO.C,C3*%
X66216734Y-137090333D03*
X66216734Y-136130333D03*
%TD*%
D11*
%TO.C,C39*%
X48606400Y-126716000D03*
X47646400Y-126716000D03*
%TD*%
D46*
%TO.C,R3*%
X54916800Y-127685800D03*
X53896800Y-127685800D03*
%TD*%
D42*
%TO.C,L7*%
X68834000Y-117424200D03*
X68834000Y-116454200D03*
%TD*%
D47*
%TO.C,U5*%
X57930800Y-107773000D03*
X57930800Y-107123000D03*
X57930800Y-106473000D03*
X55930800Y-106473000D03*
X55930800Y-107123000D03*
X55930800Y-107773000D03*
%TD*%
D48*
%TO.C,U2*%
X77119600Y-138981600D03*
%TD*%
D34*
%TO.C,C14*%
X74060400Y-136895000D03*
X72510400Y-136895000D03*
%TD*%
D49*
%TO.C,C12*%
X72427800Y-140817600D03*
X73977800Y-140817600D03*
%TD*%
D19*
%TO.C,C32*%
X71988800Y-118668800D03*
X72948800Y-118668800D03*
%TD*%
D44*
%TO.C,L4*%
X69134000Y-108483400D03*
X70104000Y-108483400D03*
%TD*%
D22*
%TO.C,R10*%
X50032400Y-139859000D03*
X51682400Y-139859000D03*
%TD*%
D21*
%TO.C,R4*%
X72868600Y-130962400D03*
X73888600Y-130962400D03*
%TD*%
D19*
%TO.C,C35*%
X70033000Y-114274600D03*
X70993000Y-114274600D03*
%TD*%
D50*
%TO.C,J2*%
X82753200Y-121996200D03*
D36*
X80213200Y-121996200D03*
X77673200Y-121996200D03*
X75133200Y-121996200D03*
%TD*%
D20*
%TO.C,L6*%
X73914000Y-115392200D03*
X72944000Y-115392200D03*
%TD*%
D11*
%TO.C,C24*%
X65227200Y-107924600D03*
X64267200Y-107924600D03*
%TD*%
D34*
%TO.C,C11*%
X78366200Y-136882400D03*
X76816200Y-136882400D03*
%TD*%
M02*
