%TF.GenerationSoftware,KiCad,Pcbnew,7.0.5*%
%TF.CreationDate,2023-07-17T11:42:08-04:00*%
%TF.ProjectId,elora_vision,656c6f72-615f-4766-9973-696f6e2e6b69,rev?*%
%TF.SameCoordinates,Original*%
%TF.FileFunction,Copper,L3,Inr*%
%TF.FilePolarity,Positive*%
%FSLAX46Y46*%
G04 Gerber Fmt 4.6, Leading zero omitted, Abs format (unit mm)*
G04 Created by KiCad (PCBNEW 7.0.5) date 2023-07-17 11:42:08*
%MOMM*%
%LPD*%
G01*
G04 APERTURE LIST*
%TA.AperFunction,ComponentPad*%
%ADD10C,4.400000*%
%TD*%
%TA.AperFunction,ComponentPad*%
%ADD11R,1.700000X1.700000*%
%TD*%
%TA.AperFunction,ComponentPad*%
%ADD12O,1.700000X1.700000*%
%TD*%
%TA.AperFunction,ComponentPad*%
%ADD13O,1.900000X1.200000*%
%TD*%
%TA.AperFunction,ComponentPad*%
%ADD14C,1.450000*%
%TD*%
%TA.AperFunction,ComponentPad*%
%ADD15C,1.875000*%
%TD*%
%TA.AperFunction,ViaPad*%
%ADD16C,0.550000*%
%TD*%
%TA.AperFunction,ViaPad*%
%ADD17C,0.700000*%
%TD*%
G04 APERTURE END LIST*
D10*
%TO.N,GND*%
%TO.C,H3*%
X80000000Y-117000000D03*
%TD*%
%TO.N,GND*%
%TO.C,H4*%
X50000000Y-117000000D03*
%TD*%
D11*
%TO.N,PA2*%
%TO.C,J4*%
X55524400Y-140487400D03*
D12*
%TO.N,PA3*%
X58064400Y-140487400D03*
%TO.N,PA4*%
X60604400Y-140487400D03*
%TO.N,PA5*%
X63144400Y-140487400D03*
%TO.N,PA6*%
X65684400Y-140487400D03*
%TO.N,PA7*%
X68224400Y-140487400D03*
%TD*%
D13*
%TO.N,unconnected-(J1-Shield-Pad6)*%
%TO.C,J1*%
X82437500Y-133192400D03*
D14*
X79737500Y-132192400D03*
X79737500Y-127192400D03*
D13*
X82437500Y-126192400D03*
%TD*%
D15*
%TO.N,NRST*%
%TO.C,B2*%
X53694400Y-122351800D03*
%TO.N,GND*%
X47194400Y-122351800D03*
%TD*%
D11*
%TO.N,+3.3V*%
%TO.C,J2*%
X82753200Y-121996200D03*
D12*
%TO.N,PA13*%
X80213200Y-121996200D03*
%TO.N,PA14*%
X77673200Y-121996200D03*
%TO.N,GND*%
X75133200Y-121996200D03*
%TD*%
D16*
%TO.N,+3.3V*%
X75107800Y-140817600D03*
X52959000Y-127609600D03*
X57378600Y-110413800D03*
X56311800Y-132715000D03*
X73990200Y-142163800D03*
X57378600Y-128244600D03*
X68783200Y-133324600D03*
X66624200Y-120040400D03*
X80137000Y-136880600D03*
X81381600Y-138226800D03*
X58826400Y-126238000D03*
X74015600Y-125780800D03*
X56286400Y-121285000D03*
X64439800Y-114706400D03*
X67233800Y-127584200D03*
X81407000Y-135585200D03*
X56108600Y-110413800D03*
%TO.N,NRST*%
X54432200Y-128600200D03*
X55200539Y-131940839D03*
%TO.N,GND*%
X64439800Y-111937800D03*
X68554600Y-113436400D03*
X53568600Y-113233200D03*
X57128700Y-114199500D03*
X52146200Y-131470400D03*
X63423800Y-107899200D03*
X47625000Y-127635000D03*
X66548000Y-120827800D03*
X52095400Y-119075200D03*
X49479200Y-105257600D03*
X72923400Y-116560600D03*
X64973200Y-138252200D03*
X53035200Y-131470400D03*
X53187600Y-105257600D03*
X47904400Y-105841800D03*
X62357000Y-138252200D03*
X56286400Y-122275600D03*
X69367400Y-121056400D03*
X72771000Y-109423200D03*
X66217800Y-138252200D03*
X66847259Y-118023300D03*
X65938400Y-111937800D03*
X59283600Y-109550200D03*
D17*
X76784200Y-125780800D03*
X75590400Y-125780800D03*
D16*
X47904400Y-107442000D03*
X77876400Y-119100600D03*
X55198300Y-111735700D03*
X70586600Y-134315200D03*
X52222400Y-111429800D03*
X62966600Y-112522000D03*
X71247000Y-140817600D03*
X69824600Y-121945400D03*
X56286400Y-123875800D03*
D17*
X77800200Y-125806200D03*
D16*
X56057800Y-125196600D03*
X71862900Y-111048800D03*
X51308000Y-105257600D03*
X70586600Y-135610600D03*
X69367400Y-119557800D03*
X70180200Y-117398800D03*
X81407000Y-141274800D03*
X61624500Y-112040500D03*
X47066200Y-134518400D03*
X53568600Y-111429800D03*
X67462400Y-138252200D03*
X63601600Y-138252200D03*
X47675800Y-129971800D03*
X52222400Y-113233200D03*
X60604400Y-123444000D03*
X54356000Y-109448600D03*
X46329600Y-138557000D03*
X71247000Y-138861800D03*
X67335400Y-128600200D03*
X71247000Y-136829800D03*
X72415400Y-135712200D03*
X59440100Y-111583300D03*
X52222400Y-109728000D03*
X56844092Y-131944192D03*
X49987200Y-111861600D03*
%TO.N,Net-(U2-EXP)*%
X77119600Y-138981600D03*
X78384400Y-138150600D03*
%TO.N,Net-(U5-CTRL)*%
X67487800Y-122910600D03*
X54457600Y-106045000D03*
%TO.N,Net-(U6-RFI_HF)*%
X63754000Y-110794800D03*
X66598800Y-121996200D03*
%TO.N,LORA_SCK*%
X61249100Y-123977400D03*
X67233800Y-134620000D03*
%TO.N,LORA_DIO0*%
X65200000Y-123630000D03*
X58010000Y-117450000D03*
%TO.N,LORA_MISO*%
X61890000Y-123500000D03*
X63370000Y-124330000D03*
%TO.N,LORA_DIO1*%
X59588400Y-125831600D03*
X56972200Y-119735600D03*
D17*
%TO.N,PA10*%
X69418200Y-131724400D03*
X71450200Y-127304800D03*
D16*
%TO.N,PA6*%
X64287400Y-139268200D03*
X60737373Y-136149973D03*
%TO.N,PA7*%
X68783200Y-137109200D03*
X62103000Y-135432800D03*
%TD*%
%TA.AperFunction,Conductor*%
%TO.N,+3.3V*%
G36*
X49350982Y-104270185D02*
G01*
X49396737Y-104322989D01*
X49406681Y-104392147D01*
X49377656Y-104455703D01*
X49318878Y-104493477D01*
X49311541Y-104495390D01*
X49305540Y-104496759D01*
X49140595Y-104554477D01*
X48992623Y-104647453D01*
X48869053Y-104771023D01*
X48776077Y-104918995D01*
X48718359Y-105083941D01*
X48718357Y-105083951D01*
X48699079Y-105255057D01*
X48672013Y-105319471D01*
X48614418Y-105359026D01*
X48544581Y-105361164D01*
X48488178Y-105328855D01*
X48390976Y-105231653D01*
X48243004Y-105138677D01*
X48078058Y-105080959D01*
X48078048Y-105080957D01*
X47904404Y-105061393D01*
X47904396Y-105061393D01*
X47730751Y-105080957D01*
X47730741Y-105080959D01*
X47565795Y-105138677D01*
X47417823Y-105231653D01*
X47294253Y-105355223D01*
X47201277Y-105503195D01*
X47143559Y-105668141D01*
X47143557Y-105668151D01*
X47123993Y-105841796D01*
X47123993Y-105841803D01*
X47143557Y-106015448D01*
X47143559Y-106015458D01*
X47158307Y-106057604D01*
X47201278Y-106180406D01*
X47294253Y-106328376D01*
X47417824Y-106451947D01*
X47490352Y-106497519D01*
X47553036Y-106536906D01*
X47599327Y-106589241D01*
X47609975Y-106658294D01*
X47581600Y-106722143D01*
X47553036Y-106746894D01*
X47417823Y-106831853D01*
X47294253Y-106955423D01*
X47201277Y-107103395D01*
X47143559Y-107268341D01*
X47143557Y-107268351D01*
X47123993Y-107441996D01*
X47123993Y-107442003D01*
X47143557Y-107615648D01*
X47143559Y-107615658D01*
X47182010Y-107725543D01*
X47201278Y-107780606D01*
X47294253Y-107928576D01*
X47417824Y-108052147D01*
X47565794Y-108145122D01*
X47730743Y-108202841D01*
X47730749Y-108202841D01*
X47730751Y-108202842D01*
X47904396Y-108222407D01*
X47904400Y-108222407D01*
X47904404Y-108222407D01*
X48078048Y-108202842D01*
X48078047Y-108202842D01*
X48078057Y-108202841D01*
X48243006Y-108145122D01*
X48390976Y-108052147D01*
X48514547Y-107928576D01*
X48533003Y-107899203D01*
X62643393Y-107899203D01*
X62662957Y-108072848D01*
X62662959Y-108072858D01*
X62720677Y-108237804D01*
X62720678Y-108237806D01*
X62813653Y-108385776D01*
X62937224Y-108509347D01*
X63085194Y-108602322D01*
X63250143Y-108660041D01*
X63250149Y-108660041D01*
X63250151Y-108660042D01*
X63423796Y-108679607D01*
X63423800Y-108679607D01*
X63423804Y-108679607D01*
X63597448Y-108660042D01*
X63597447Y-108660042D01*
X63597457Y-108660041D01*
X63762406Y-108602322D01*
X63910376Y-108509347D01*
X64033947Y-108385776D01*
X64126922Y-108237806D01*
X64184641Y-108072857D01*
X64204207Y-107899200D01*
X64184641Y-107725543D01*
X64126922Y-107560594D01*
X64033947Y-107412624D01*
X63910376Y-107289053D01*
X63762406Y-107196078D01*
X63762405Y-107196077D01*
X63762404Y-107196077D01*
X63597458Y-107138359D01*
X63597448Y-107138357D01*
X63423804Y-107118793D01*
X63423796Y-107118793D01*
X63250151Y-107138357D01*
X63250141Y-107138359D01*
X63085195Y-107196077D01*
X62937223Y-107289053D01*
X62813653Y-107412623D01*
X62720677Y-107560595D01*
X62662959Y-107725541D01*
X62662957Y-107725551D01*
X62643393Y-107899196D01*
X62643393Y-107899203D01*
X48533003Y-107899203D01*
X48607522Y-107780606D01*
X48665241Y-107615657D01*
X48684807Y-107442000D01*
X48681497Y-107412624D01*
X48665242Y-107268351D01*
X48665241Y-107268349D01*
X48665241Y-107268343D01*
X48607522Y-107103394D01*
X48514547Y-106955424D01*
X48390976Y-106831853D01*
X48255762Y-106746893D01*
X48209472Y-106694560D01*
X48198823Y-106625506D01*
X48227198Y-106561658D01*
X48255763Y-106536906D01*
X48264246Y-106531576D01*
X48390976Y-106451947D01*
X48514547Y-106328376D01*
X48607522Y-106180406D01*
X48665241Y-106015457D01*
X48684520Y-105844341D01*
X48711586Y-105779928D01*
X48769180Y-105740373D01*
X48839017Y-105738234D01*
X48895420Y-105770544D01*
X48992624Y-105867747D01*
X49140594Y-105960722D01*
X49305543Y-106018441D01*
X49305549Y-106018441D01*
X49305551Y-106018442D01*
X49479196Y-106038007D01*
X49479200Y-106038007D01*
X49479204Y-106038007D01*
X49652848Y-106018442D01*
X49652847Y-106018442D01*
X49652857Y-106018441D01*
X49817806Y-105960722D01*
X49965776Y-105867747D01*
X50089347Y-105744176D01*
X50182322Y-105596206D01*
X50240041Y-105431257D01*
X50240821Y-105424326D01*
X50259607Y-105257603D01*
X50259607Y-105257596D01*
X50240042Y-105083951D01*
X50240041Y-105083949D01*
X50240041Y-105083943D01*
X50182322Y-104918994D01*
X50089347Y-104771024D01*
X49965776Y-104647453D01*
X49817806Y-104554478D01*
X49817805Y-104554477D01*
X49817804Y-104554477D01*
X49652859Y-104496759D01*
X49646859Y-104495390D01*
X49585882Y-104461278D01*
X49553027Y-104399616D01*
X49558725Y-104329979D01*
X49601167Y-104274477D01*
X49666878Y-104250732D01*
X49674457Y-104250500D01*
X51112743Y-104250500D01*
X51179782Y-104270185D01*
X51225537Y-104322989D01*
X51235481Y-104392147D01*
X51206456Y-104455703D01*
X51147678Y-104493477D01*
X51140341Y-104495390D01*
X51134340Y-104496759D01*
X50969395Y-104554477D01*
X50821423Y-104647453D01*
X50697853Y-104771023D01*
X50604877Y-104918995D01*
X50547159Y-105083941D01*
X50547157Y-105083951D01*
X50527593Y-105257596D01*
X50527593Y-105257603D01*
X50547157Y-105431248D01*
X50547159Y-105431258D01*
X50573701Y-105507109D01*
X50604878Y-105596206D01*
X50697853Y-105744176D01*
X50821424Y-105867747D01*
X50969394Y-105960722D01*
X51134343Y-106018441D01*
X51134349Y-106018441D01*
X51134351Y-106018442D01*
X51307996Y-106038007D01*
X51308000Y-106038007D01*
X51308004Y-106038007D01*
X51481648Y-106018442D01*
X51481647Y-106018442D01*
X51481657Y-106018441D01*
X51646606Y-105960722D01*
X51794576Y-105867747D01*
X51918147Y-105744176D01*
X52011122Y-105596206D01*
X52068841Y-105431257D01*
X52069621Y-105424326D01*
X52088407Y-105257603D01*
X52088407Y-105257596D01*
X52068842Y-105083951D01*
X52068841Y-105083949D01*
X52068841Y-105083943D01*
X52011122Y-104918994D01*
X51918147Y-104771024D01*
X51794576Y-104647453D01*
X51646606Y-104554478D01*
X51646605Y-104554477D01*
X51646604Y-104554477D01*
X51481659Y-104496759D01*
X51475659Y-104495390D01*
X51414682Y-104461278D01*
X51381827Y-104399616D01*
X51387525Y-104329979D01*
X51429967Y-104274477D01*
X51495678Y-104250732D01*
X51503257Y-104250500D01*
X52992343Y-104250500D01*
X53059382Y-104270185D01*
X53105137Y-104322989D01*
X53115081Y-104392147D01*
X53086056Y-104455703D01*
X53027278Y-104493477D01*
X53019941Y-104495390D01*
X53013940Y-104496759D01*
X52848995Y-104554477D01*
X52701023Y-104647453D01*
X52577453Y-104771023D01*
X52484477Y-104918995D01*
X52426759Y-105083941D01*
X52426757Y-105083951D01*
X52407193Y-105257596D01*
X52407193Y-105257603D01*
X52426757Y-105431248D01*
X52426759Y-105431258D01*
X52453301Y-105507109D01*
X52484478Y-105596206D01*
X52577453Y-105744176D01*
X52701024Y-105867747D01*
X52848994Y-105960722D01*
X53013943Y-106018441D01*
X53013949Y-106018441D01*
X53013951Y-106018442D01*
X53187596Y-106038007D01*
X53187600Y-106038007D01*
X53187604Y-106038007D01*
X53361248Y-106018442D01*
X53361247Y-106018442D01*
X53361257Y-106018441D01*
X53515567Y-105964444D01*
X53585342Y-105960882D01*
X53645970Y-105995611D01*
X53678197Y-106057604D01*
X53679739Y-106067603D01*
X53696757Y-106218648D01*
X53696759Y-106218657D01*
X53754478Y-106383606D01*
X53847453Y-106531576D01*
X53971024Y-106655147D01*
X54118994Y-106748122D01*
X54283943Y-106805841D01*
X54283949Y-106805841D01*
X54283951Y-106805842D01*
X54457596Y-106825407D01*
X54457600Y-106825407D01*
X54457604Y-106825407D01*
X54631248Y-106805842D01*
X54631247Y-106805842D01*
X54631257Y-106805841D01*
X54796206Y-106748122D01*
X54944176Y-106655147D01*
X55067747Y-106531576D01*
X55160722Y-106383606D01*
X55218441Y-106218657D01*
X55222751Y-106180404D01*
X55238007Y-106045003D01*
X55238007Y-106044996D01*
X55218442Y-105871351D01*
X55218441Y-105871349D01*
X55218441Y-105871343D01*
X55160722Y-105706394D01*
X55067747Y-105558424D01*
X54944176Y-105434853D01*
X54796206Y-105341878D01*
X54796205Y-105341877D01*
X54796204Y-105341877D01*
X54631258Y-105284159D01*
X54631248Y-105284157D01*
X54457604Y-105264593D01*
X54457596Y-105264593D01*
X54283951Y-105284157D01*
X54283940Y-105284159D01*
X54129635Y-105338154D01*
X54059856Y-105341716D01*
X53999229Y-105306988D01*
X53967001Y-105244994D01*
X53965460Y-105234996D01*
X53965083Y-105231653D01*
X53948441Y-105083943D01*
X53890722Y-104918994D01*
X53797747Y-104771024D01*
X53674176Y-104647453D01*
X53526206Y-104554478D01*
X53526205Y-104554477D01*
X53526204Y-104554477D01*
X53361259Y-104496759D01*
X53355259Y-104495390D01*
X53294282Y-104461278D01*
X53261427Y-104399616D01*
X53267125Y-104329979D01*
X53309567Y-104274477D01*
X53375278Y-104250732D01*
X53382857Y-104250500D01*
X82955830Y-104250500D01*
X82997786Y-104250500D01*
X83002208Y-104250657D01*
X83240140Y-104267674D01*
X83257641Y-104270191D01*
X83484229Y-104319482D01*
X83501188Y-104324461D01*
X83638672Y-104375740D01*
X83718462Y-104405501D01*
X83734555Y-104412851D01*
X83938068Y-104523977D01*
X83952951Y-104533542D01*
X84138579Y-104672501D01*
X84151950Y-104684087D01*
X84315912Y-104848049D01*
X84327498Y-104861420D01*
X84466457Y-105047048D01*
X84476022Y-105061931D01*
X84587148Y-105265444D01*
X84594498Y-105281537D01*
X84675535Y-105498803D01*
X84680519Y-105515779D01*
X84729807Y-105742353D01*
X84732325Y-105759865D01*
X84749342Y-105997788D01*
X84749500Y-106002212D01*
X84749500Y-140997786D01*
X84749342Y-141002210D01*
X84732325Y-141240135D01*
X84729807Y-141257647D01*
X84680519Y-141484220D01*
X84675535Y-141501196D01*
X84594498Y-141718462D01*
X84587148Y-141734555D01*
X84476022Y-141938068D01*
X84466457Y-141952951D01*
X84327498Y-142138579D01*
X84315912Y-142151950D01*
X84151950Y-142315912D01*
X84138579Y-142327498D01*
X83952951Y-142466457D01*
X83938068Y-142476022D01*
X83734555Y-142587148D01*
X83718462Y-142594498D01*
X83501196Y-142675535D01*
X83484220Y-142680519D01*
X83257647Y-142729807D01*
X83240135Y-142732325D01*
X83023672Y-142747806D01*
X83002208Y-142749342D01*
X82997786Y-142749500D01*
X78335752Y-142749500D01*
X78268713Y-142729815D01*
X78222958Y-142677011D01*
X78213014Y-142607853D01*
X78242039Y-142544297D01*
X78299755Y-142506839D01*
X78403954Y-142475232D01*
X78586450Y-142377685D01*
X78746410Y-142246410D01*
X78877685Y-142086450D01*
X78975232Y-141903954D01*
X79035300Y-141705934D01*
X79055583Y-141500000D01*
X79035300Y-141294066D01*
X79029457Y-141274803D01*
X80626593Y-141274803D01*
X80646157Y-141448448D01*
X80646159Y-141448458D01*
X80703877Y-141613404D01*
X80703878Y-141613406D01*
X80796853Y-141761376D01*
X80920424Y-141884947D01*
X81068394Y-141977922D01*
X81233343Y-142035641D01*
X81233349Y-142035641D01*
X81233351Y-142035642D01*
X81406996Y-142055207D01*
X81407000Y-142055207D01*
X81407004Y-142055207D01*
X81580648Y-142035642D01*
X81580647Y-142035642D01*
X81580657Y-142035641D01*
X81745606Y-141977922D01*
X81893576Y-141884947D01*
X82017147Y-141761376D01*
X82110122Y-141613406D01*
X82167841Y-141448457D01*
X82172579Y-141406405D01*
X82187407Y-141274803D01*
X82187407Y-141274796D01*
X82167842Y-141101151D01*
X82167841Y-141101149D01*
X82167841Y-141101143D01*
X82110122Y-140936194D01*
X82017147Y-140788224D01*
X81893576Y-140664653D01*
X81745606Y-140571678D01*
X81745605Y-140571677D01*
X81745604Y-140571677D01*
X81580658Y-140513959D01*
X81580648Y-140513957D01*
X81407004Y-140494393D01*
X81406996Y-140494393D01*
X81233351Y-140513957D01*
X81233341Y-140513959D01*
X81068395Y-140571677D01*
X80920423Y-140664653D01*
X80796853Y-140788223D01*
X80703877Y-140936195D01*
X80646159Y-141101141D01*
X80646157Y-141101151D01*
X80626593Y-141274796D01*
X80626593Y-141274803D01*
X79029457Y-141274803D01*
X78975232Y-141096046D01*
X78877685Y-140913550D01*
X78798944Y-140817603D01*
X78746410Y-140753589D01*
X78612804Y-140643943D01*
X78586450Y-140622315D01*
X78403954Y-140524768D01*
X78205934Y-140464700D01*
X78205932Y-140464699D01*
X78205934Y-140464699D01*
X78018463Y-140446235D01*
X78000000Y-140444417D01*
X77999999Y-140444417D01*
X77794067Y-140464699D01*
X77596043Y-140524769D01*
X77508286Y-140571677D01*
X77413550Y-140622315D01*
X77413548Y-140622316D01*
X77413547Y-140622317D01*
X77253589Y-140753589D01*
X77122317Y-140913547D01*
X77122315Y-140913550D01*
X77110211Y-140936195D01*
X77024769Y-141096043D01*
X77024768Y-141096045D01*
X77024768Y-141096046D01*
X77020097Y-141111445D01*
X76964699Y-141294067D01*
X76944417Y-141500000D01*
X76964699Y-141705932D01*
X76994733Y-141804944D01*
X77024768Y-141903954D01*
X77122315Y-142086450D01*
X77122317Y-142086452D01*
X77253589Y-142246410D01*
X77338279Y-142315912D01*
X77413550Y-142377685D01*
X77596046Y-142475232D01*
X77700244Y-142506839D01*
X77758682Y-142545137D01*
X77787138Y-142608949D01*
X77776578Y-142678016D01*
X77730354Y-142730409D01*
X77664248Y-142749500D01*
X47002214Y-142749500D01*
X46997791Y-142749342D01*
X46973680Y-142747617D01*
X46759864Y-142732325D01*
X46742352Y-142729807D01*
X46515779Y-142680519D01*
X46498803Y-142675535D01*
X46281537Y-142594498D01*
X46265444Y-142587148D01*
X46061931Y-142476022D01*
X46047048Y-142466457D01*
X45861420Y-142327498D01*
X45848049Y-142315912D01*
X45684087Y-142151950D01*
X45672501Y-142138579D01*
X45533542Y-141952951D01*
X45523977Y-141938068D01*
X45412851Y-141734555D01*
X45405501Y-141718462D01*
X45353758Y-141579735D01*
X45324461Y-141501188D01*
X45319482Y-141484229D01*
X45297955Y-141385270D01*
X54173900Y-141385270D01*
X54173901Y-141385276D01*
X54180308Y-141444883D01*
X54230602Y-141579728D01*
X54230606Y-141579735D01*
X54316852Y-141694944D01*
X54316855Y-141694947D01*
X54432064Y-141781193D01*
X54432071Y-141781197D01*
X54566917Y-141831491D01*
X54566916Y-141831491D01*
X54573844Y-141832235D01*
X54626527Y-141837900D01*
X56422272Y-141837899D01*
X56481883Y-141831491D01*
X56616731Y-141781196D01*
X56731946Y-141694946D01*
X56818196Y-141579731D01*
X56867210Y-141448316D01*
X56909081Y-141392384D01*
X56974545Y-141367966D01*
X57042818Y-141382817D01*
X57071072Y-141403969D01*
X57192999Y-141525895D01*
X57289784Y-141593665D01*
X57386565Y-141661432D01*
X57386567Y-141661433D01*
X57386570Y-141661435D01*
X57600737Y-141761303D01*
X57828992Y-141822463D01*
X58005434Y-141837900D01*
X58064399Y-141843059D01*
X58064400Y-141843059D01*
X58064401Y-141843059D01*
X58123366Y-141837900D01*
X58299808Y-141822463D01*
X58528063Y-141761303D01*
X58742230Y-141661435D01*
X58935801Y-141525895D01*
X59102895Y-141358801D01*
X59232826Y-141173241D01*
X59287402Y-141129617D01*
X59356900Y-141122423D01*
X59419255Y-141153946D01*
X59435975Y-141173242D01*
X59565900Y-141358795D01*
X59565905Y-141358801D01*
X59732999Y-141525895D01*
X59829784Y-141593664D01*
X59926565Y-141661432D01*
X59926567Y-141661433D01*
X59926570Y-141661435D01*
X60140737Y-141761303D01*
X60368992Y-141822463D01*
X60545434Y-141837900D01*
X60604399Y-141843059D01*
X60604400Y-141843059D01*
X60604401Y-141843059D01*
X60663366Y-141837900D01*
X60839808Y-141822463D01*
X61068063Y-141761303D01*
X61282230Y-141661435D01*
X61475801Y-141525895D01*
X61642895Y-141358801D01*
X61772826Y-141173241D01*
X61827402Y-141129617D01*
X61896900Y-141122423D01*
X61959255Y-141153946D01*
X61975975Y-141173242D01*
X62105900Y-141358795D01*
X62105905Y-141358801D01*
X62272999Y-141525895D01*
X62369784Y-141593665D01*
X62466565Y-141661432D01*
X62466567Y-141661433D01*
X62466570Y-141661435D01*
X62680737Y-141761303D01*
X62908992Y-141822463D01*
X63085434Y-141837900D01*
X63144399Y-141843059D01*
X63144400Y-141843059D01*
X63144401Y-141843059D01*
X63203366Y-141837900D01*
X63379808Y-141822463D01*
X63608063Y-141761303D01*
X63822230Y-141661435D01*
X64015801Y-141525895D01*
X64182895Y-141358801D01*
X64312826Y-141173240D01*
X64367401Y-141129617D01*
X64436899Y-141122423D01*
X64499254Y-141153946D01*
X64515974Y-141173241D01*
X64645905Y-141358801D01*
X64812999Y-141525895D01*
X64909784Y-141593664D01*
X65006565Y-141661432D01*
X65006567Y-141661433D01*
X65006570Y-141661435D01*
X65220737Y-141761303D01*
X65448992Y-141822463D01*
X65625434Y-141837900D01*
X65684399Y-141843059D01*
X65684400Y-141843059D01*
X65684401Y-141843059D01*
X65743366Y-141837900D01*
X65919808Y-141822463D01*
X66148063Y-141761303D01*
X66362230Y-141661435D01*
X66555801Y-141525895D01*
X66722895Y-141358801D01*
X66852826Y-141173241D01*
X66907402Y-141129617D01*
X66976900Y-141122423D01*
X67039255Y-141153946D01*
X67055975Y-141173242D01*
X67185900Y-141358795D01*
X67185905Y-141358801D01*
X67352999Y-141525895D01*
X67449784Y-141593665D01*
X67546565Y-141661432D01*
X67546567Y-141661433D01*
X67546570Y-141661435D01*
X67760737Y-141761303D01*
X67988992Y-141822463D01*
X68165434Y-141837900D01*
X68224399Y-141843059D01*
X68224400Y-141843059D01*
X68224401Y-141843059D01*
X68283366Y-141837900D01*
X68459808Y-141822463D01*
X68688063Y-141761303D01*
X68902230Y-141661435D01*
X69095801Y-141525895D01*
X69262895Y-141358801D01*
X69398435Y-141165230D01*
X69498303Y-140951063D01*
X69534063Y-140817603D01*
X70466593Y-140817603D01*
X70486157Y-140991248D01*
X70486159Y-140991258D01*
X70534574Y-141129617D01*
X70543878Y-141156206D01*
X70636853Y-141304176D01*
X70760424Y-141427747D01*
X70908394Y-141520722D01*
X71073343Y-141578441D01*
X71073349Y-141578441D01*
X71073351Y-141578442D01*
X71246996Y-141598007D01*
X71247000Y-141598007D01*
X71247004Y-141598007D01*
X71420648Y-141578442D01*
X71420647Y-141578442D01*
X71420657Y-141578441D01*
X71585606Y-141520722D01*
X71733576Y-141427747D01*
X71857147Y-141304176D01*
X71950122Y-141156206D01*
X72007841Y-140991257D01*
X72027407Y-140817600D01*
X72024097Y-140788224D01*
X72007842Y-140643951D01*
X72007841Y-140643949D01*
X72007841Y-140643943D01*
X71950122Y-140478994D01*
X71857147Y-140331024D01*
X71733576Y-140207453D01*
X71585606Y-140114478D01*
X71585605Y-140114477D01*
X71585604Y-140114477D01*
X71420658Y-140056759D01*
X71420648Y-140056757D01*
X71247004Y-140037193D01*
X71246996Y-140037193D01*
X71073351Y-140056757D01*
X71073341Y-140056759D01*
X70908395Y-140114477D01*
X70760423Y-140207453D01*
X70636853Y-140331023D01*
X70543877Y-140478995D01*
X70486159Y-140643941D01*
X70486157Y-140643951D01*
X70466593Y-140817596D01*
X70466593Y-140817603D01*
X69534063Y-140817603D01*
X69559463Y-140722808D01*
X69580059Y-140487400D01*
X69559463Y-140251992D01*
X69507151Y-140056757D01*
X69498305Y-140023744D01*
X69498304Y-140023743D01*
X69498303Y-140023737D01*
X69398435Y-139809571D01*
X69392825Y-139801558D01*
X69262894Y-139615997D01*
X69095802Y-139448906D01*
X69095795Y-139448901D01*
X68902234Y-139313367D01*
X68902230Y-139313365D01*
X68842969Y-139285731D01*
X68688063Y-139213497D01*
X68688059Y-139213496D01*
X68688055Y-139213494D01*
X68459813Y-139152338D01*
X68459803Y-139152336D01*
X68224401Y-139131741D01*
X68224399Y-139131741D01*
X67988996Y-139152336D01*
X67988983Y-139152339D01*
X67909225Y-139173709D01*
X67839375Y-139172046D01*
X67781513Y-139132882D01*
X67754010Y-139068653D01*
X67765597Y-138999751D01*
X67811160Y-138948941D01*
X67948976Y-138862347D01*
X67949520Y-138861803D01*
X70466593Y-138861803D01*
X70486157Y-139035448D01*
X70486159Y-139035458D01*
X70543877Y-139200404D01*
X70543878Y-139200406D01*
X70636853Y-139348376D01*
X70760424Y-139471947D01*
X70908394Y-139564922D01*
X71073343Y-139622641D01*
X71073349Y-139622641D01*
X71073351Y-139622642D01*
X71246996Y-139642207D01*
X71247000Y-139642207D01*
X71247004Y-139642207D01*
X71420648Y-139622642D01*
X71420647Y-139622642D01*
X71420657Y-139622641D01*
X71585606Y-139564922D01*
X71733576Y-139471947D01*
X71857147Y-139348376D01*
X71950122Y-139200406D01*
X72007841Y-139035457D01*
X72013909Y-138981603D01*
X76339193Y-138981603D01*
X76358757Y-139155248D01*
X76358759Y-139155258D01*
X76416477Y-139320204D01*
X76416478Y-139320206D01*
X76509453Y-139468176D01*
X76633024Y-139591747D01*
X76780994Y-139684722D01*
X76945943Y-139742441D01*
X76945949Y-139742441D01*
X76945951Y-139742442D01*
X77119596Y-139762007D01*
X77119600Y-139762007D01*
X77119604Y-139762007D01*
X77293248Y-139742442D01*
X77293247Y-139742442D01*
X77293257Y-139742441D01*
X77458206Y-139684722D01*
X77606176Y-139591747D01*
X77729747Y-139468176D01*
X77822722Y-139320206D01*
X77880441Y-139155257D01*
X77900007Y-138981600D01*
X77900006Y-138981591D01*
X77900007Y-138977470D01*
X77900762Y-138974896D01*
X77900787Y-138974681D01*
X77900824Y-138974685D01*
X77919692Y-138910431D01*
X77972496Y-138864676D01*
X78041654Y-138854732D01*
X78064959Y-138860428D01*
X78210743Y-138911441D01*
X78210749Y-138911441D01*
X78210751Y-138911442D01*
X78384396Y-138931007D01*
X78384400Y-138931007D01*
X78384404Y-138931007D01*
X78558048Y-138911442D01*
X78558047Y-138911442D01*
X78558057Y-138911441D01*
X78723006Y-138853722D01*
X78870976Y-138760747D01*
X78994547Y-138637176D01*
X79087522Y-138489206D01*
X79145241Y-138324257D01*
X79153421Y-138251653D01*
X79164807Y-138150603D01*
X79164807Y-138150596D01*
X79145242Y-137976951D01*
X79145241Y-137976949D01*
X79145241Y-137976943D01*
X79087522Y-137811994D01*
X78994547Y-137664024D01*
X78870976Y-137540453D01*
X78723006Y-137447478D01*
X78723005Y-137447477D01*
X78723004Y-137447477D01*
X78558058Y-137389759D01*
X78558048Y-137389757D01*
X78384404Y-137370193D01*
X78384396Y-137370193D01*
X78210751Y-137389757D01*
X78210741Y-137389759D01*
X78045795Y-137447477D01*
X77897823Y-137540453D01*
X77774253Y-137664023D01*
X77681277Y-137811995D01*
X77623559Y-137976941D01*
X77623557Y-137976951D01*
X77603993Y-138150596D01*
X77603993Y-138154729D01*
X77603237Y-138157302D01*
X77603213Y-138157519D01*
X77603175Y-138157514D01*
X77584308Y-138221768D01*
X77531504Y-138267523D01*
X77462346Y-138277467D01*
X77439040Y-138271771D01*
X77293257Y-138220759D01*
X77293253Y-138220758D01*
X77293249Y-138220757D01*
X77119604Y-138201193D01*
X77119596Y-138201193D01*
X76945951Y-138220757D01*
X76945941Y-138220759D01*
X76780995Y-138278477D01*
X76633023Y-138371453D01*
X76509453Y-138495023D01*
X76416477Y-138642995D01*
X76358759Y-138807941D01*
X76358757Y-138807951D01*
X76339193Y-138981596D01*
X76339193Y-138981603D01*
X72013909Y-138981603D01*
X72013910Y-138981596D01*
X72027407Y-138861803D01*
X72027407Y-138861796D01*
X72007842Y-138688151D01*
X72007841Y-138688149D01*
X72007841Y-138688143D01*
X71950122Y-138523194D01*
X71857147Y-138375224D01*
X71733576Y-138251653D01*
X71585606Y-138158678D01*
X71585605Y-138158677D01*
X71585604Y-138158677D01*
X71420658Y-138100959D01*
X71420648Y-138100957D01*
X71247004Y-138081393D01*
X71246996Y-138081393D01*
X71073351Y-138100957D01*
X71073341Y-138100959D01*
X70908395Y-138158677D01*
X70760423Y-138251653D01*
X70636853Y-138375223D01*
X70543877Y-138523195D01*
X70486159Y-138688141D01*
X70486157Y-138688151D01*
X70466593Y-138861796D01*
X70466593Y-138861803D01*
X67949520Y-138861803D01*
X68072547Y-138738776D01*
X68165522Y-138590806D01*
X68223241Y-138425857D01*
X68234688Y-138324258D01*
X68242807Y-138252203D01*
X68242807Y-138252196D01*
X68223242Y-138078551D01*
X68223241Y-138078549D01*
X68223241Y-138078543D01*
X68165522Y-137913594D01*
X68165521Y-137913592D01*
X68162500Y-137907318D01*
X68164487Y-137906360D01*
X68148355Y-137849280D01*
X68168720Y-137782444D01*
X68221986Y-137737228D01*
X68291242Y-137727988D01*
X68338318Y-137745544D01*
X68444594Y-137812322D01*
X68609543Y-137870041D01*
X68609549Y-137870041D01*
X68609551Y-137870042D01*
X68783196Y-137889607D01*
X68783200Y-137889607D01*
X68783204Y-137889607D01*
X68956848Y-137870042D01*
X68956847Y-137870042D01*
X68956857Y-137870041D01*
X69121806Y-137812322D01*
X69269776Y-137719347D01*
X69393347Y-137595776D01*
X69486322Y-137447806D01*
X69544041Y-137282857D01*
X69556936Y-137168406D01*
X69563607Y-137109203D01*
X69563607Y-137109196D01*
X69544042Y-136935551D01*
X69544041Y-136935549D01*
X69544041Y-136935543D01*
X69486322Y-136770594D01*
X69393347Y-136622624D01*
X69269776Y-136499053D01*
X69121806Y-136406078D01*
X69121805Y-136406077D01*
X69121804Y-136406077D01*
X68956858Y-136348359D01*
X68956848Y-136348357D01*
X68783204Y-136328793D01*
X68783196Y-136328793D01*
X68609551Y-136348357D01*
X68609541Y-136348359D01*
X68444595Y-136406077D01*
X68296623Y-136499053D01*
X68173053Y-136622623D01*
X68080077Y-136770595D01*
X68022359Y-136935541D01*
X68022357Y-136935551D01*
X68002793Y-137109196D01*
X68002793Y-137109203D01*
X68022357Y-137282848D01*
X68022359Y-137282858D01*
X68080078Y-137447807D01*
X68083100Y-137454082D01*
X68081113Y-137455038D01*
X68097243Y-137512130D01*
X68076873Y-137578964D01*
X68023603Y-137624175D01*
X67954346Y-137633410D01*
X67907279Y-137615853D01*
X67801006Y-137549078D01*
X67801005Y-137549077D01*
X67801004Y-137549077D01*
X67636058Y-137491359D01*
X67636048Y-137491357D01*
X67462404Y-137471793D01*
X67462396Y-137471793D01*
X67288751Y-137491357D01*
X67288741Y-137491359D01*
X67123795Y-137549077D01*
X66975823Y-137642053D01*
X66927781Y-137690096D01*
X66866458Y-137723581D01*
X66796766Y-137718597D01*
X66752419Y-137690096D01*
X66704376Y-137642053D01*
X66622555Y-137590642D01*
X66556406Y-137549078D01*
X66556405Y-137549077D01*
X66556404Y-137549077D01*
X66391458Y-137491359D01*
X66391448Y-137491357D01*
X66217804Y-137471793D01*
X66217796Y-137471793D01*
X66044151Y-137491357D01*
X66044141Y-137491359D01*
X65879195Y-137549077D01*
X65731223Y-137642053D01*
X65683181Y-137690096D01*
X65621858Y-137723581D01*
X65552166Y-137718597D01*
X65507819Y-137690096D01*
X65459776Y-137642053D01*
X65377955Y-137590642D01*
X65311806Y-137549078D01*
X65311805Y-137549077D01*
X65311804Y-137549077D01*
X65146858Y-137491359D01*
X65146848Y-137491357D01*
X64973204Y-137471793D01*
X64973196Y-137471793D01*
X64799551Y-137491357D01*
X64799541Y-137491359D01*
X64634595Y-137549077D01*
X64486625Y-137642052D01*
X64375080Y-137753597D01*
X64313757Y-137787081D01*
X64244065Y-137782097D01*
X64199722Y-137753599D01*
X64088176Y-137642053D01*
X63940206Y-137549078D01*
X63940205Y-137549077D01*
X63940204Y-137549077D01*
X63775258Y-137491359D01*
X63775248Y-137491357D01*
X63601604Y-137471793D01*
X63601596Y-137471793D01*
X63427951Y-137491357D01*
X63427941Y-137491359D01*
X63262995Y-137549077D01*
X63115023Y-137642053D01*
X63066980Y-137690096D01*
X63005657Y-137723580D01*
X62935965Y-137718595D01*
X62891620Y-137690096D01*
X62843577Y-137642054D01*
X62843576Y-137642053D01*
X62761755Y-137590642D01*
X62695606Y-137549078D01*
X62695605Y-137549077D01*
X62695604Y-137549077D01*
X62530658Y-137491359D01*
X62530648Y-137491357D01*
X62357004Y-137471793D01*
X62356996Y-137471793D01*
X62183351Y-137491357D01*
X62183341Y-137491359D01*
X62018395Y-137549077D01*
X61870423Y-137642053D01*
X61746853Y-137765623D01*
X61653877Y-137913595D01*
X61596159Y-138078541D01*
X61596157Y-138078551D01*
X61576593Y-138252196D01*
X61576593Y-138252203D01*
X61596157Y-138425848D01*
X61596159Y-138425858D01*
X61653877Y-138590804D01*
X61653878Y-138590806D01*
X61746853Y-138738776D01*
X61870424Y-138862347D01*
X62018394Y-138955322D01*
X62183343Y-139013041D01*
X62183349Y-139013041D01*
X62183351Y-139013042D01*
X62356996Y-139032607D01*
X62357000Y-139032607D01*
X62357004Y-139032607D01*
X62537577Y-139012262D01*
X62537732Y-139013642D01*
X62599813Y-139017442D01*
X62634233Y-139042661D01*
X62639366Y-139012140D01*
X62686365Y-138960440D01*
X62694500Y-138956016D01*
X62695602Y-138955323D01*
X62695606Y-138955322D01*
X62843576Y-138862347D01*
X62891618Y-138814303D01*
X62952942Y-138780819D01*
X63022634Y-138785803D01*
X63066981Y-138814304D01*
X63115023Y-138862346D01*
X63115026Y-138862348D01*
X63182453Y-138904715D01*
X63228745Y-138957049D01*
X63239394Y-139026102D01*
X63211019Y-139089951D01*
X63152629Y-139128323D01*
X63127290Y-139133237D01*
X62908996Y-139152336D01*
X62908986Y-139152338D01*
X62782995Y-139186097D01*
X62713145Y-139184434D01*
X62674203Y-139158077D01*
X62667112Y-139192369D01*
X62618217Y-139242279D01*
X62610080Y-139246445D01*
X62466571Y-139313364D01*
X62466569Y-139313365D01*
X62272997Y-139448905D01*
X62105905Y-139615997D01*
X61975975Y-139801558D01*
X61921398Y-139845183D01*
X61851900Y-139852377D01*
X61789545Y-139820854D01*
X61772825Y-139801558D01*
X61642894Y-139615997D01*
X61475802Y-139448906D01*
X61475795Y-139448901D01*
X61282234Y-139313367D01*
X61282230Y-139313365D01*
X61222969Y-139285731D01*
X61068063Y-139213497D01*
X61068059Y-139213496D01*
X61068055Y-139213494D01*
X60839813Y-139152338D01*
X60839803Y-139152336D01*
X60604401Y-139131741D01*
X60604399Y-139131741D01*
X60368996Y-139152336D01*
X60368986Y-139152338D01*
X60140744Y-139213494D01*
X60140735Y-139213498D01*
X59926571Y-139313364D01*
X59926569Y-139313365D01*
X59732997Y-139448905D01*
X59565905Y-139615997D01*
X59435975Y-139801558D01*
X59381398Y-139845183D01*
X59311900Y-139852377D01*
X59249545Y-139820854D01*
X59232825Y-139801558D01*
X59102894Y-139615997D01*
X58935802Y-139448906D01*
X58935795Y-139448901D01*
X58742234Y-139313367D01*
X58742230Y-139313365D01*
X58682969Y-139285731D01*
X58528063Y-139213497D01*
X58528059Y-139213496D01*
X58528055Y-139213494D01*
X58299813Y-139152338D01*
X58299803Y-139152336D01*
X58064401Y-139131741D01*
X58064399Y-139131741D01*
X57828996Y-139152336D01*
X57828986Y-139152338D01*
X57600744Y-139213494D01*
X57600735Y-139213498D01*
X57386571Y-139313364D01*
X57386569Y-139313365D01*
X57193000Y-139448903D01*
X57071073Y-139570830D01*
X57009750Y-139604314D01*
X56940058Y-139599330D01*
X56884125Y-139557458D01*
X56867210Y-139526481D01*
X56818197Y-139395071D01*
X56818193Y-139395064D01*
X56731947Y-139279855D01*
X56731944Y-139279852D01*
X56616735Y-139193606D01*
X56616728Y-139193602D01*
X56481882Y-139143308D01*
X56481883Y-139143308D01*
X56422283Y-139136901D01*
X56422281Y-139136900D01*
X56422273Y-139136900D01*
X56422264Y-139136900D01*
X54626529Y-139136900D01*
X54626523Y-139136901D01*
X54566916Y-139143308D01*
X54432071Y-139193602D01*
X54432064Y-139193606D01*
X54316855Y-139279852D01*
X54316852Y-139279855D01*
X54230606Y-139395064D01*
X54230602Y-139395071D01*
X54180308Y-139529917D01*
X54173901Y-139589516D01*
X54173900Y-139589535D01*
X54173900Y-141385270D01*
X45297955Y-141385270D01*
X45270191Y-141257641D01*
X45267674Y-141240135D01*
X45266609Y-141225250D01*
X45250657Y-141002208D01*
X45250500Y-140997786D01*
X45250500Y-138557003D01*
X45549193Y-138557003D01*
X45568757Y-138730648D01*
X45568759Y-138730658D01*
X45614840Y-138862347D01*
X45626478Y-138895606D01*
X45719453Y-139043576D01*
X45843024Y-139167147D01*
X45990994Y-139260122D01*
X46155943Y-139317841D01*
X46155949Y-139317841D01*
X46155951Y-139317842D01*
X46329596Y-139337407D01*
X46329600Y-139337407D01*
X46329604Y-139337407D01*
X46503248Y-139317842D01*
X46503247Y-139317842D01*
X46503257Y-139317841D01*
X46668206Y-139260122D01*
X46816176Y-139167147D01*
X46939747Y-139043576D01*
X47032722Y-138895606D01*
X47090441Y-138730657D01*
X47091221Y-138723726D01*
X47110007Y-138557003D01*
X47110007Y-138556996D01*
X47090442Y-138383351D01*
X47090441Y-138383349D01*
X47090441Y-138383343D01*
X47032722Y-138218394D01*
X46939747Y-138070424D01*
X46816176Y-137946853D01*
X46668206Y-137853878D01*
X46668205Y-137853877D01*
X46668204Y-137853877D01*
X46503258Y-137796159D01*
X46503248Y-137796157D01*
X46329604Y-137776593D01*
X46329596Y-137776593D01*
X46155951Y-137796157D01*
X46155941Y-137796159D01*
X45990995Y-137853877D01*
X45843023Y-137946853D01*
X45719453Y-138070423D01*
X45626477Y-138218395D01*
X45568759Y-138383341D01*
X45568757Y-138383351D01*
X45549193Y-138556996D01*
X45549193Y-138557003D01*
X45250500Y-138557003D01*
X45250500Y-136149976D01*
X59956966Y-136149976D01*
X59976530Y-136323621D01*
X59976532Y-136323631D01*
X60028814Y-136473041D01*
X60034251Y-136488579D01*
X60127226Y-136636549D01*
X60250797Y-136760120D01*
X60398767Y-136853095D01*
X60563716Y-136910814D01*
X60563722Y-136910814D01*
X60563724Y-136910815D01*
X60737369Y-136930380D01*
X60737373Y-136930380D01*
X60737377Y-136930380D01*
X60911021Y-136910815D01*
X60911020Y-136910815D01*
X60911030Y-136910814D01*
X61075979Y-136853095D01*
X61223949Y-136760120D01*
X61347520Y-136636549D01*
X61440495Y-136488579D01*
X61498214Y-136323630D01*
X61513468Y-136188242D01*
X61540534Y-136123829D01*
X61598128Y-136084274D01*
X61667965Y-136082135D01*
X61702658Y-136097131D01*
X61764394Y-136135922D01*
X61929343Y-136193641D01*
X61929349Y-136193641D01*
X61929351Y-136193642D01*
X62102996Y-136213207D01*
X62103000Y-136213207D01*
X62103004Y-136213207D01*
X62276648Y-136193642D01*
X62276647Y-136193642D01*
X62276657Y-136193641D01*
X62441606Y-136135922D01*
X62589576Y-136042947D01*
X62713147Y-135919376D01*
X62806122Y-135771406D01*
X62862390Y-135610603D01*
X69806193Y-135610603D01*
X69825757Y-135784248D01*
X69825759Y-135784258D01*
X69861310Y-135885854D01*
X69883478Y-135949206D01*
X69976453Y-136097176D01*
X70100024Y-136220747D01*
X70247994Y-136313722D01*
X70412943Y-136371441D01*
X70424708Y-136372766D01*
X70489122Y-136399831D01*
X70528679Y-136457424D01*
X70530819Y-136527261D01*
X70527870Y-136536941D01*
X70486158Y-136656146D01*
X70486157Y-136656151D01*
X70466593Y-136829796D01*
X70466593Y-136829803D01*
X70486157Y-137003448D01*
X70486159Y-137003458D01*
X70543877Y-137168404D01*
X70543878Y-137168406D01*
X70636853Y-137316376D01*
X70760424Y-137439947D01*
X70908394Y-137532922D01*
X71073343Y-137590641D01*
X71073349Y-137590641D01*
X71073351Y-137590642D01*
X71246996Y-137610207D01*
X71247000Y-137610207D01*
X71247004Y-137610207D01*
X71420648Y-137590642D01*
X71420647Y-137590642D01*
X71420657Y-137590641D01*
X71585606Y-137532922D01*
X71733576Y-137439947D01*
X71857147Y-137316376D01*
X71950122Y-137168406D01*
X72007841Y-137003457D01*
X72018279Y-136910813D01*
X72027407Y-136829803D01*
X72027407Y-136829796D01*
X72007842Y-136656151D01*
X72007842Y-136656149D01*
X72007841Y-136656146D01*
X72007841Y-136656143D01*
X71987237Y-136597263D01*
X71983677Y-136527487D01*
X72018406Y-136466859D01*
X72080399Y-136434632D01*
X72145231Y-136439269D01*
X72241743Y-136473041D01*
X72241747Y-136473041D01*
X72241751Y-136473042D01*
X72415396Y-136492607D01*
X72415400Y-136492607D01*
X72415404Y-136492607D01*
X72589048Y-136473042D01*
X72589047Y-136473042D01*
X72589057Y-136473041D01*
X72754006Y-136415322D01*
X72901976Y-136322347D01*
X73025547Y-136198776D01*
X73118522Y-136050806D01*
X73176241Y-135885857D01*
X73187688Y-135784258D01*
X73195807Y-135712203D01*
X73195807Y-135712196D01*
X73176242Y-135538551D01*
X73176241Y-135538549D01*
X73176241Y-135538543D01*
X73118522Y-135373594D01*
X73025547Y-135225624D01*
X72901976Y-135102053D01*
X72754006Y-135009078D01*
X72754005Y-135009077D01*
X72754004Y-135009077D01*
X72589058Y-134951359D01*
X72589048Y-134951357D01*
X72415404Y-134931793D01*
X72415396Y-134931793D01*
X72241751Y-134951357D01*
X72241741Y-134951359D01*
X72076795Y-135009077D01*
X71928823Y-135102053D01*
X71805253Y-135225623D01*
X71712277Y-135373595D01*
X71654559Y-135538541D01*
X71654557Y-135538551D01*
X71634993Y-135712196D01*
X71634993Y-135712203D01*
X71654557Y-135885848D01*
X71654558Y-135885854D01*
X71675161Y-135944734D01*
X71678722Y-136014513D01*
X71643993Y-136075140D01*
X71581999Y-136107367D01*
X71517164Y-136102729D01*
X71464424Y-136084274D01*
X71420658Y-136068959D01*
X71420649Y-136068957D01*
X71408886Y-136067632D01*
X71344472Y-136040564D01*
X71304918Y-135982969D01*
X71302781Y-135913132D01*
X71305724Y-135903474D01*
X71347441Y-135784257D01*
X71355560Y-135712196D01*
X71367007Y-135610603D01*
X71367007Y-135610596D01*
X71347442Y-135436951D01*
X71347441Y-135436949D01*
X71347441Y-135436943D01*
X71289722Y-135271994D01*
X71196747Y-135124024D01*
X71123303Y-135050580D01*
X71089819Y-134989258D01*
X71094803Y-134919566D01*
X71123304Y-134875219D01*
X71141519Y-134857004D01*
X71196747Y-134801776D01*
X71289722Y-134653806D01*
X71347441Y-134488857D01*
X71352231Y-134446341D01*
X71367007Y-134315203D01*
X71367007Y-134315196D01*
X71347442Y-134141551D01*
X71347441Y-134141549D01*
X71347441Y-134141543D01*
X71289722Y-133976594D01*
X71196747Y-133828624D01*
X71073176Y-133705053D01*
X70925206Y-133612078D01*
X70925205Y-133612077D01*
X70925204Y-133612077D01*
X70760258Y-133554359D01*
X70760248Y-133554357D01*
X70586604Y-133534793D01*
X70586596Y-133534793D01*
X70412951Y-133554357D01*
X70412941Y-133554359D01*
X70247995Y-133612077D01*
X70100023Y-133705053D01*
X69976453Y-133828623D01*
X69883477Y-133976595D01*
X69825759Y-134141541D01*
X69825757Y-134141551D01*
X69806193Y-134315196D01*
X69806193Y-134315203D01*
X69825757Y-134488848D01*
X69825759Y-134488858D01*
X69883477Y-134653804D01*
X69883478Y-134653806D01*
X69976453Y-134801776D01*
X70049898Y-134875221D01*
X70083381Y-134936540D01*
X70078397Y-135006232D01*
X70049897Y-135050580D01*
X69976452Y-135124025D01*
X69883477Y-135271995D01*
X69825759Y-135436941D01*
X69825757Y-135436951D01*
X69806193Y-135610596D01*
X69806193Y-135610603D01*
X62862390Y-135610603D01*
X62863841Y-135606457D01*
X62876005Y-135498499D01*
X62883407Y-135432803D01*
X62883407Y-135432796D01*
X62863842Y-135259151D01*
X62863841Y-135259149D01*
X62863841Y-135259143D01*
X62806122Y-135094194D01*
X62713147Y-134946224D01*
X62589576Y-134822653D01*
X62441606Y-134729678D01*
X62441605Y-134729677D01*
X62441604Y-134729677D01*
X62276658Y-134671959D01*
X62276648Y-134671957D01*
X62103004Y-134652393D01*
X62102996Y-134652393D01*
X61929351Y-134671957D01*
X61929341Y-134671959D01*
X61764395Y-134729677D01*
X61616423Y-134822653D01*
X61492853Y-134946223D01*
X61399877Y-135094195D01*
X61342159Y-135259141D01*
X61342157Y-135259150D01*
X61326904Y-135394530D01*
X61299838Y-135458944D01*
X61242243Y-135498499D01*
X61172406Y-135500636D01*
X61137713Y-135485640D01*
X61075980Y-135446851D01*
X60911031Y-135389132D01*
X60911021Y-135389130D01*
X60737377Y-135369566D01*
X60737369Y-135369566D01*
X60563724Y-135389130D01*
X60563714Y-135389132D01*
X60398768Y-135446850D01*
X60250796Y-135539826D01*
X60127226Y-135663396D01*
X60034250Y-135811368D01*
X59976532Y-135976314D01*
X59976530Y-135976324D01*
X59956966Y-136149969D01*
X59956966Y-136149976D01*
X45250500Y-136149976D01*
X45250500Y-134518403D01*
X46285793Y-134518403D01*
X46305357Y-134692048D01*
X46305359Y-134692058D01*
X46340911Y-134793657D01*
X46363078Y-134857006D01*
X46456053Y-135004976D01*
X46579624Y-135128547D01*
X46727594Y-135221522D01*
X46892543Y-135279241D01*
X46892549Y-135279241D01*
X46892551Y-135279242D01*
X47066196Y-135298807D01*
X47066200Y-135298807D01*
X47066204Y-135298807D01*
X47239848Y-135279242D01*
X47239847Y-135279242D01*
X47239857Y-135279241D01*
X47404806Y-135221522D01*
X47552776Y-135128547D01*
X47676347Y-135004976D01*
X47769322Y-134857006D01*
X47827041Y-134692057D01*
X47835159Y-134620003D01*
X66453393Y-134620003D01*
X66472957Y-134793648D01*
X66472959Y-134793658D01*
X66526345Y-134946223D01*
X66530678Y-134958606D01*
X66623653Y-135106576D01*
X66747224Y-135230147D01*
X66895194Y-135323122D01*
X67060143Y-135380841D01*
X67060149Y-135380841D01*
X67060151Y-135380842D01*
X67233796Y-135400407D01*
X67233800Y-135400407D01*
X67233804Y-135400407D01*
X67407448Y-135380842D01*
X67407447Y-135380842D01*
X67407457Y-135380841D01*
X67572406Y-135323122D01*
X67720376Y-135230147D01*
X67843947Y-135106576D01*
X67936922Y-134958606D01*
X67994641Y-134793657D01*
X68006088Y-134692058D01*
X68014207Y-134620003D01*
X68014207Y-134619996D01*
X67994642Y-134446351D01*
X67994641Y-134446349D01*
X67994641Y-134446343D01*
X67936922Y-134281394D01*
X67843947Y-134133424D01*
X67720376Y-134009853D01*
X67572406Y-133916878D01*
X67572405Y-133916877D01*
X67572404Y-133916877D01*
X67407458Y-133859159D01*
X67407448Y-133859157D01*
X67233804Y-133839593D01*
X67233796Y-133839593D01*
X67060151Y-133859157D01*
X67060141Y-133859159D01*
X66895195Y-133916877D01*
X66747223Y-134009853D01*
X66623653Y-134133423D01*
X66530677Y-134281395D01*
X66472959Y-134446341D01*
X66472957Y-134446351D01*
X66453393Y-134619996D01*
X66453393Y-134620003D01*
X47835159Y-134620003D01*
X47846607Y-134518400D01*
X47843278Y-134488858D01*
X47827042Y-134344751D01*
X47827041Y-134344749D01*
X47827041Y-134344743D01*
X47769322Y-134179794D01*
X47676347Y-134031824D01*
X47552776Y-133908253D01*
X47404806Y-133815278D01*
X47404805Y-133815277D01*
X47404804Y-133815277D01*
X47239858Y-133757559D01*
X47239848Y-133757557D01*
X47066204Y-133737993D01*
X47066196Y-133737993D01*
X46892551Y-133757557D01*
X46892541Y-133757559D01*
X46727595Y-133815277D01*
X46579623Y-133908253D01*
X46456053Y-134031823D01*
X46363077Y-134179795D01*
X46305359Y-134344741D01*
X46305357Y-134344751D01*
X46285793Y-134518396D01*
X46285793Y-134518403D01*
X45250500Y-134518403D01*
X45250500Y-131470403D01*
X51365793Y-131470403D01*
X51385357Y-131644048D01*
X51385359Y-131644058D01*
X51430007Y-131771653D01*
X51443078Y-131809006D01*
X51536053Y-131956976D01*
X51659624Y-132080547D01*
X51807594Y-132173522D01*
X51972543Y-132231241D01*
X51972549Y-132231241D01*
X51972551Y-132231242D01*
X52146196Y-132250807D01*
X52146200Y-132250807D01*
X52146204Y-132250807D01*
X52319848Y-132231242D01*
X52319847Y-132231242D01*
X52319857Y-132231241D01*
X52484806Y-132173522D01*
X52524726Y-132148438D01*
X52591964Y-132129437D01*
X52656673Y-132148438D01*
X52696589Y-132173519D01*
X52696594Y-132173522D01*
X52861543Y-132231241D01*
X52861549Y-132231241D01*
X52861551Y-132231242D01*
X53035196Y-132250807D01*
X53035200Y-132250807D01*
X53035204Y-132250807D01*
X53208848Y-132231242D01*
X53208847Y-132231242D01*
X53208857Y-132231241D01*
X53373806Y-132173522D01*
X53521776Y-132080547D01*
X53645347Y-131956976D01*
X53655485Y-131940842D01*
X54420132Y-131940842D01*
X54439696Y-132114487D01*
X54439698Y-132114497D01*
X54495820Y-132274881D01*
X54497417Y-132279445D01*
X54590392Y-132427415D01*
X54713963Y-132550986D01*
X54861933Y-132643961D01*
X55026882Y-132701680D01*
X55026888Y-132701680D01*
X55026890Y-132701681D01*
X55200535Y-132721246D01*
X55200539Y-132721246D01*
X55200543Y-132721246D01*
X55374187Y-132701681D01*
X55374186Y-132701681D01*
X55374196Y-132701680D01*
X55539145Y-132643961D01*
X55687115Y-132550986D01*
X55810686Y-132427415D01*
X55903661Y-132279445D01*
X55904685Y-132276517D01*
X55905858Y-132274881D01*
X55906681Y-132273174D01*
X55906979Y-132273317D01*
X55945399Y-132219741D01*
X56010349Y-132193988D01*
X56078912Y-132207438D01*
X56129320Y-132255820D01*
X56138767Y-132276504D01*
X56139797Y-132279446D01*
X56140970Y-132282798D01*
X56233945Y-132430768D01*
X56357516Y-132554339D01*
X56505486Y-132647314D01*
X56670435Y-132705033D01*
X56670441Y-132705033D01*
X56670443Y-132705034D01*
X56844088Y-132724599D01*
X56844092Y-132724599D01*
X56844096Y-132724599D01*
X57017740Y-132705034D01*
X57017739Y-132705034D01*
X57017749Y-132705033D01*
X57182698Y-132647314D01*
X57330668Y-132554339D01*
X57454239Y-132430768D01*
X57547214Y-132282798D01*
X57604933Y-132117849D01*
X57610073Y-132072229D01*
X57624499Y-131944195D01*
X57624499Y-131944188D01*
X57604934Y-131770543D01*
X57604933Y-131770541D01*
X57604933Y-131770535D01*
X57588789Y-131724400D01*
X68563015Y-131724400D01*
X68581703Y-131902205D01*
X68581704Y-131902207D01*
X68636947Y-132072229D01*
X68636950Y-132072235D01*
X68726341Y-132227065D01*
X68758147Y-132262389D01*
X68845964Y-132359921D01*
X68845967Y-132359923D01*
X68845970Y-132359926D01*
X68990607Y-132465012D01*
X69153933Y-132537729D01*
X69328809Y-132574900D01*
X69328810Y-132574900D01*
X69507589Y-132574900D01*
X69507591Y-132574900D01*
X69682467Y-132537729D01*
X69845793Y-132465012D01*
X69990430Y-132359926D01*
X70110059Y-132227065D01*
X70130072Y-132192401D01*
X78507319Y-132192401D01*
X78526007Y-132406013D01*
X78526009Y-132406024D01*
X78581505Y-132613139D01*
X78581507Y-132613143D01*
X78581508Y-132613147D01*
X78606060Y-132665799D01*
X78672131Y-132807490D01*
X78759152Y-132931768D01*
X78795127Y-132983145D01*
X78946755Y-133134773D01*
X79122409Y-133257768D01*
X79316753Y-133348392D01*
X79523881Y-133403892D01*
X79676466Y-133417241D01*
X79737498Y-133422581D01*
X79737500Y-133422581D01*
X79737502Y-133422581D01*
X79790904Y-133417908D01*
X79951119Y-133403892D01*
X80158247Y-133348392D01*
X80352591Y-133257768D01*
X80528245Y-133134773D01*
X80679873Y-132983145D01*
X80794748Y-132819087D01*
X80849323Y-132775465D01*
X80918822Y-132768272D01*
X80981176Y-132799794D01*
X81016590Y-132860024D01*
X81013975Y-132925887D01*
X81014549Y-132926027D01*
X81013857Y-132928879D01*
X81013819Y-132929839D01*
X81013503Y-132930764D01*
X81013157Y-132931761D01*
X81013156Y-132931766D01*
X81013156Y-132931767D01*
X80983969Y-133134773D01*
X80983246Y-133139801D01*
X80993245Y-133349727D01*
X81042796Y-133553978D01*
X81042798Y-133553982D01*
X81130098Y-133745143D01*
X81130101Y-133745148D01*
X81130102Y-133745150D01*
X81130104Y-133745153D01*
X81246247Y-133908253D01*
X81252015Y-133916353D01*
X81252020Y-133916359D01*
X81404120Y-134061385D01*
X81499078Y-134122411D01*
X81580928Y-134175013D01*
X81776043Y-134253125D01*
X81879229Y-134273012D01*
X81982414Y-134292900D01*
X81982415Y-134292900D01*
X82839919Y-134292900D01*
X82839925Y-134292900D01*
X82996718Y-134277928D01*
X83198375Y-134218716D01*
X83385182Y-134122411D01*
X83550386Y-133992492D01*
X83688019Y-133833656D01*
X83793104Y-133651644D01*
X83861844Y-133453033D01*
X83891754Y-133245002D01*
X83881754Y-133035070D01*
X83832204Y-132830824D01*
X83818033Y-132799794D01*
X83744901Y-132639656D01*
X83744898Y-132639651D01*
X83744897Y-132639650D01*
X83744896Y-132639647D01*
X83622986Y-132468448D01*
X83622984Y-132468446D01*
X83622979Y-132468440D01*
X83470879Y-132323414D01*
X83294074Y-132209788D01*
X83250643Y-132192401D01*
X83098957Y-132131675D01*
X83098955Y-132131674D01*
X82892586Y-132091900D01*
X82892585Y-132091900D01*
X82035075Y-132091900D01*
X81878281Y-132106872D01*
X81878282Y-132106872D01*
X81878278Y-132106873D01*
X81676627Y-132166083D01*
X81489813Y-132262391D01*
X81324616Y-132392305D01*
X81324612Y-132392309D01*
X81186980Y-132551145D01*
X81141262Y-132630330D01*
X81090694Y-132678545D01*
X81022087Y-132691767D01*
X80957223Y-132665799D01*
X80916695Y-132608885D01*
X80913371Y-132539094D01*
X80914088Y-132536280D01*
X80948992Y-132406019D01*
X80967681Y-132192400D01*
X80966029Y-132173522D01*
X80960198Y-132106872D01*
X80948992Y-131978781D01*
X80893492Y-131771653D01*
X80802868Y-131577310D01*
X80781360Y-131546594D01*
X80679876Y-131401659D01*
X80679871Y-131401653D01*
X80528245Y-131250027D01*
X80352590Y-131127031D01*
X80255418Y-131081720D01*
X80158247Y-131036408D01*
X80158243Y-131036407D01*
X80158239Y-131036405D01*
X79951124Y-130980909D01*
X79951120Y-130980908D01*
X79951119Y-130980908D01*
X79951118Y-130980907D01*
X79951113Y-130980907D01*
X79737502Y-130962219D01*
X79737498Y-130962219D01*
X79523886Y-130980907D01*
X79523875Y-130980909D01*
X79316760Y-131036405D01*
X79316751Y-131036409D01*
X79122410Y-131127031D01*
X79122408Y-131127032D01*
X78946759Y-131250023D01*
X78946753Y-131250028D01*
X78795128Y-131401653D01*
X78795123Y-131401659D01*
X78672132Y-131577308D01*
X78672131Y-131577310D01*
X78581509Y-131771651D01*
X78581505Y-131771660D01*
X78526009Y-131978775D01*
X78526007Y-131978786D01*
X78507319Y-132192398D01*
X78507319Y-132192401D01*
X70130072Y-132192401D01*
X70199450Y-132072235D01*
X70254697Y-131902203D01*
X70273385Y-131724400D01*
X70254697Y-131546597D01*
X70207604Y-131401659D01*
X70199452Y-131376570D01*
X70199449Y-131376564D01*
X70153369Y-131296751D01*
X70110059Y-131221735D01*
X70063203Y-131169696D01*
X69990435Y-131088878D01*
X69990432Y-131088876D01*
X69990431Y-131088875D01*
X69990430Y-131088874D01*
X69845793Y-130983788D01*
X69682467Y-130911071D01*
X69682465Y-130911070D01*
X69554794Y-130883933D01*
X69507591Y-130873900D01*
X69328809Y-130873900D01*
X69298154Y-130880415D01*
X69153933Y-130911070D01*
X69153928Y-130911072D01*
X68990608Y-130983787D01*
X68845968Y-131088875D01*
X68726340Y-131221736D01*
X68636950Y-131376564D01*
X68636947Y-131376570D01*
X68581704Y-131546592D01*
X68581703Y-131546594D01*
X68563015Y-131724400D01*
X57588789Y-131724400D01*
X57547214Y-131605586D01*
X57454239Y-131457616D01*
X57330668Y-131334045D01*
X57182698Y-131241070D01*
X57182697Y-131241069D01*
X57182696Y-131241069D01*
X57017750Y-131183351D01*
X57017740Y-131183349D01*
X56844096Y-131163785D01*
X56844088Y-131163785D01*
X56670443Y-131183349D01*
X56670433Y-131183351D01*
X56505487Y-131241069D01*
X56357515Y-131334045D01*
X56233945Y-131457615D01*
X56140969Y-131605586D01*
X56139942Y-131608524D01*
X56138764Y-131610165D01*
X56137950Y-131611857D01*
X56137653Y-131611714D01*
X56099219Y-131665298D01*
X56034265Y-131691043D01*
X55965704Y-131677585D01*
X55915303Y-131629196D01*
X55905861Y-131608520D01*
X55905580Y-131607717D01*
X55903661Y-131602233D01*
X55810686Y-131454263D01*
X55687115Y-131330692D01*
X55539145Y-131237717D01*
X55539144Y-131237716D01*
X55539143Y-131237716D01*
X55374197Y-131179998D01*
X55374187Y-131179996D01*
X55200543Y-131160432D01*
X55200535Y-131160432D01*
X55026890Y-131179996D01*
X55026880Y-131179998D01*
X54861934Y-131237716D01*
X54713962Y-131330692D01*
X54590392Y-131454262D01*
X54497416Y-131602234D01*
X54439698Y-131767180D01*
X54439696Y-131767190D01*
X54420132Y-131940835D01*
X54420132Y-131940842D01*
X53655485Y-131940842D01*
X53738322Y-131809006D01*
X53796041Y-131644057D01*
X53800753Y-131602233D01*
X53815607Y-131470403D01*
X53815607Y-131470396D01*
X53796042Y-131296751D01*
X53796041Y-131296749D01*
X53796041Y-131296743D01*
X53738322Y-131131794D01*
X53645347Y-130983824D01*
X53521776Y-130860253D01*
X53373806Y-130767278D01*
X53373805Y-130767277D01*
X53373804Y-130767277D01*
X53208858Y-130709559D01*
X53208848Y-130709557D01*
X53035204Y-130689993D01*
X53035196Y-130689993D01*
X52861551Y-130709557D01*
X52861541Y-130709559D01*
X52696592Y-130767278D01*
X52696590Y-130767279D01*
X52656668Y-130792363D01*
X52589431Y-130811362D01*
X52524728Y-130792362D01*
X52484806Y-130767278D01*
X52484807Y-130767278D01*
X52319858Y-130709559D01*
X52319848Y-130709557D01*
X52146204Y-130689993D01*
X52146196Y-130689993D01*
X51972551Y-130709557D01*
X51972541Y-130709559D01*
X51807595Y-130767277D01*
X51659623Y-130860253D01*
X51536053Y-130983823D01*
X51443077Y-131131795D01*
X51385359Y-131296741D01*
X51385357Y-131296751D01*
X51365793Y-131470396D01*
X51365793Y-131470403D01*
X45250500Y-131470403D01*
X45250500Y-129971803D01*
X46895393Y-129971803D01*
X46914957Y-130145448D01*
X46914959Y-130145457D01*
X46972678Y-130310406D01*
X47065653Y-130458376D01*
X47189224Y-130581947D01*
X47337194Y-130674922D01*
X47502143Y-130732641D01*
X47502149Y-130732641D01*
X47502151Y-130732642D01*
X47675796Y-130752207D01*
X47675800Y-130752207D01*
X47675804Y-130752207D01*
X47849448Y-130732642D01*
X47849447Y-130732642D01*
X47849457Y-130732641D01*
X48014406Y-130674922D01*
X48162376Y-130581947D01*
X48285947Y-130458376D01*
X48378922Y-130310406D01*
X48436641Y-130145457D01*
X48456207Y-129971800D01*
X48436641Y-129798143D01*
X48378922Y-129633194D01*
X48285947Y-129485224D01*
X48162376Y-129361653D01*
X48014406Y-129268678D01*
X48014405Y-129268677D01*
X48014404Y-129268677D01*
X47849458Y-129210959D01*
X47849448Y-129210957D01*
X47675804Y-129191393D01*
X47675796Y-129191393D01*
X47502151Y-129210957D01*
X47502141Y-129210959D01*
X47337195Y-129268677D01*
X47189223Y-129361653D01*
X47065653Y-129485223D01*
X46972677Y-129633195D01*
X46914959Y-129798141D01*
X46914957Y-129798151D01*
X46895393Y-129971796D01*
X46895393Y-129971803D01*
X45250500Y-129971803D01*
X45250500Y-128600203D01*
X53651793Y-128600203D01*
X53671357Y-128773848D01*
X53671359Y-128773857D01*
X53729078Y-128938806D01*
X53822053Y-129086776D01*
X53945624Y-129210347D01*
X54093594Y-129303322D01*
X54258543Y-129361041D01*
X54258549Y-129361041D01*
X54258551Y-129361042D01*
X54432196Y-129380607D01*
X54432200Y-129380607D01*
X54432204Y-129380607D01*
X54605848Y-129361042D01*
X54605847Y-129361042D01*
X54605857Y-129361041D01*
X54770806Y-129303322D01*
X54918776Y-129210347D01*
X55042347Y-129086776D01*
X55135322Y-128938806D01*
X55193041Y-128773857D01*
X55212607Y-128600203D01*
X66554993Y-128600203D01*
X66574557Y-128773848D01*
X66574559Y-128773857D01*
X66632278Y-128938806D01*
X66725253Y-129086776D01*
X66848824Y-129210347D01*
X66996794Y-129303322D01*
X67161743Y-129361041D01*
X67161749Y-129361041D01*
X67161751Y-129361042D01*
X67335396Y-129380607D01*
X67335400Y-129380607D01*
X67335404Y-129380607D01*
X67509048Y-129361042D01*
X67509047Y-129361042D01*
X67509057Y-129361041D01*
X67674006Y-129303322D01*
X67821976Y-129210347D01*
X67945547Y-129086776D01*
X68038522Y-128938806D01*
X68096241Y-128773857D01*
X68115807Y-128600200D01*
X68096241Y-128426543D01*
X68038522Y-128261594D01*
X67945547Y-128113624D01*
X67821976Y-127990053D01*
X67674006Y-127897078D01*
X67674005Y-127897077D01*
X67674004Y-127897077D01*
X67509058Y-127839359D01*
X67509048Y-127839357D01*
X67335404Y-127819793D01*
X67335396Y-127819793D01*
X67161751Y-127839357D01*
X67161741Y-127839359D01*
X66996795Y-127897077D01*
X66848823Y-127990053D01*
X66725253Y-128113623D01*
X66632277Y-128261595D01*
X66574559Y-128426541D01*
X66574557Y-128426551D01*
X66554993Y-128600196D01*
X66554993Y-128600203D01*
X55212607Y-128600203D01*
X55212607Y-128600200D01*
X55193041Y-128426543D01*
X55135322Y-128261594D01*
X55042347Y-128113624D01*
X54918776Y-127990053D01*
X54770806Y-127897078D01*
X54770805Y-127897077D01*
X54770804Y-127897077D01*
X54605858Y-127839359D01*
X54605848Y-127839357D01*
X54432204Y-127819793D01*
X54432196Y-127819793D01*
X54258551Y-127839357D01*
X54258541Y-127839359D01*
X54093595Y-127897077D01*
X53945623Y-127990053D01*
X53822053Y-128113623D01*
X53729077Y-128261595D01*
X53671359Y-128426541D01*
X53671357Y-128426551D01*
X53651793Y-128600196D01*
X53651793Y-128600203D01*
X45250500Y-128600203D01*
X45250500Y-127635003D01*
X46844593Y-127635003D01*
X46864157Y-127808648D01*
X46864159Y-127808658D01*
X46921877Y-127973604D01*
X46921878Y-127973606D01*
X47014853Y-128121576D01*
X47138424Y-128245147D01*
X47286394Y-128338122D01*
X47451343Y-128395841D01*
X47451349Y-128395841D01*
X47451351Y-128395842D01*
X47624996Y-128415407D01*
X47625000Y-128415407D01*
X47625004Y-128415407D01*
X47798648Y-128395842D01*
X47798647Y-128395842D01*
X47798657Y-128395841D01*
X47963606Y-128338122D01*
X48111576Y-128245147D01*
X48235147Y-128121576D01*
X48328122Y-127973606D01*
X48385841Y-127808657D01*
X48405407Y-127635000D01*
X48388236Y-127482603D01*
X48385842Y-127461351D01*
X48385841Y-127461349D01*
X48385841Y-127461343D01*
X48331063Y-127304799D01*
X70595015Y-127304799D01*
X70613703Y-127482605D01*
X70613704Y-127482607D01*
X70668947Y-127652629D01*
X70668950Y-127652635D01*
X70758341Y-127807465D01*
X70787057Y-127839357D01*
X70877964Y-127940321D01*
X70877967Y-127940323D01*
X70877970Y-127940326D01*
X71022607Y-128045412D01*
X71185933Y-128118129D01*
X71360809Y-128155300D01*
X71360810Y-128155300D01*
X71539589Y-128155300D01*
X71539591Y-128155300D01*
X71714467Y-128118129D01*
X71877793Y-128045412D01*
X72022430Y-127940326D01*
X72142059Y-127807465D01*
X72231450Y-127652635D01*
X72286697Y-127482603D01*
X72305385Y-127304800D01*
X72293571Y-127192401D01*
X78507319Y-127192401D01*
X78526007Y-127406013D01*
X78526009Y-127406024D01*
X78581505Y-127613139D01*
X78581507Y-127613143D01*
X78581508Y-127613147D01*
X78591700Y-127635003D01*
X78672131Y-127807490D01*
X78765145Y-127940326D01*
X78795127Y-127983145D01*
X78946755Y-128134773D01*
X79122409Y-128257768D01*
X79316753Y-128348392D01*
X79523881Y-128403892D01*
X79655500Y-128415407D01*
X79737498Y-128422581D01*
X79737500Y-128422581D01*
X79737502Y-128422581D01*
X79790904Y-128417908D01*
X79951119Y-128403892D01*
X80158247Y-128348392D01*
X80352591Y-128257768D01*
X80528245Y-128134773D01*
X80679873Y-127983145D01*
X80802868Y-127807491D01*
X80893492Y-127613147D01*
X80948992Y-127406019D01*
X80967681Y-127192400D01*
X80948992Y-126978781D01*
X80917245Y-126860300D01*
X80918908Y-126790451D01*
X80958070Y-126732588D01*
X81022299Y-126705084D01*
X81091201Y-126716670D01*
X81138026Y-126756278D01*
X81221967Y-126874157D01*
X81252015Y-126916353D01*
X81252020Y-126916359D01*
X81404120Y-127061385D01*
X81499078Y-127122411D01*
X81580928Y-127175013D01*
X81776043Y-127253125D01*
X81879228Y-127273012D01*
X81982414Y-127292900D01*
X81982415Y-127292900D01*
X82839919Y-127292900D01*
X82839925Y-127292900D01*
X82996718Y-127277928D01*
X83198375Y-127218716D01*
X83385182Y-127122411D01*
X83550386Y-126992492D01*
X83688019Y-126833656D01*
X83712964Y-126790451D01*
X83793101Y-126651649D01*
X83793100Y-126651649D01*
X83793104Y-126651644D01*
X83861844Y-126453033D01*
X83891754Y-126245002D01*
X83881754Y-126035070D01*
X83832204Y-125830824D01*
X83832201Y-125830817D01*
X83744901Y-125639656D01*
X83744898Y-125639651D01*
X83744897Y-125639650D01*
X83744896Y-125639647D01*
X83622986Y-125468448D01*
X83622984Y-125468446D01*
X83622979Y-125468440D01*
X83470879Y-125323414D01*
X83294074Y-125209788D01*
X83098955Y-125131674D01*
X82892586Y-125091900D01*
X82892585Y-125091900D01*
X82035075Y-125091900D01*
X81878281Y-125106872D01*
X81878282Y-125106872D01*
X81878278Y-125106873D01*
X81676627Y-125166083D01*
X81489813Y-125262391D01*
X81324616Y-125392305D01*
X81324612Y-125392309D01*
X81186978Y-125551146D01*
X81081898Y-125733150D01*
X81013156Y-125931765D01*
X81013156Y-125931767D01*
X80985082Y-126127032D01*
X80983246Y-126139801D01*
X80993245Y-126349727D01*
X81023666Y-126475122D01*
X81020341Y-126544913D01*
X80979813Y-126601827D01*
X80914948Y-126627795D01*
X80846341Y-126614571D01*
X80801586Y-126575479D01*
X80679876Y-126401659D01*
X80679871Y-126401653D01*
X80528245Y-126250027D01*
X80352590Y-126127031D01*
X80255418Y-126081720D01*
X80158247Y-126036408D01*
X80158243Y-126036407D01*
X80158239Y-126036405D01*
X79951124Y-125980909D01*
X79951120Y-125980908D01*
X79951119Y-125980908D01*
X79951118Y-125980907D01*
X79951113Y-125980907D01*
X79737502Y-125962219D01*
X79737498Y-125962219D01*
X79523886Y-125980907D01*
X79523875Y-125980909D01*
X79316760Y-126036405D01*
X79316751Y-126036409D01*
X79122410Y-126127031D01*
X79122408Y-126127032D01*
X78946759Y-126250023D01*
X78946753Y-126250028D01*
X78795128Y-126401653D01*
X78795123Y-126401659D01*
X78672132Y-126577308D01*
X78672131Y-126577310D01*
X78581509Y-126771651D01*
X78581505Y-126771660D01*
X78526009Y-126978775D01*
X78526007Y-126978786D01*
X78507319Y-127192398D01*
X78507319Y-127192401D01*
X72293571Y-127192401D01*
X72286697Y-127126997D01*
X72242994Y-126992494D01*
X72231452Y-126956970D01*
X72231449Y-126956964D01*
X72208006Y-126916359D01*
X72142059Y-126802135D01*
X72090752Y-126745153D01*
X72022435Y-126669278D01*
X72022432Y-126669276D01*
X72022431Y-126669275D01*
X72022430Y-126669274D01*
X71877793Y-126564188D01*
X71714467Y-126491471D01*
X71714465Y-126491470D01*
X71586794Y-126464333D01*
X71539591Y-126454300D01*
X71360809Y-126454300D01*
X71330154Y-126460815D01*
X71185933Y-126491470D01*
X71185928Y-126491472D01*
X71022608Y-126564187D01*
X70877968Y-126669275D01*
X70758340Y-126802136D01*
X70668950Y-126956964D01*
X70668947Y-126956970D01*
X70613704Y-127126992D01*
X70613703Y-127126994D01*
X70595015Y-127304799D01*
X48331063Y-127304799D01*
X48328122Y-127296394D01*
X48235147Y-127148424D01*
X48111576Y-127024853D01*
X47963606Y-126931878D01*
X47963605Y-126931877D01*
X47963604Y-126931877D01*
X47798658Y-126874159D01*
X47798648Y-126874157D01*
X47625004Y-126854593D01*
X47624996Y-126854593D01*
X47451351Y-126874157D01*
X47451341Y-126874159D01*
X47286395Y-126931877D01*
X47138423Y-127024853D01*
X47014853Y-127148423D01*
X46921877Y-127296395D01*
X46864159Y-127461341D01*
X46864157Y-127461351D01*
X46844593Y-127634996D01*
X46844593Y-127635003D01*
X45250500Y-127635003D01*
X45250500Y-125196603D01*
X55277393Y-125196603D01*
X55296957Y-125370248D01*
X55296959Y-125370258D01*
X55354677Y-125535204D01*
X55354678Y-125535206D01*
X55447653Y-125683176D01*
X55571224Y-125806747D01*
X55719194Y-125899722D01*
X55884143Y-125957441D01*
X55884149Y-125957441D01*
X55884151Y-125957442D01*
X56057796Y-125977007D01*
X56057800Y-125977007D01*
X56057804Y-125977007D01*
X56231448Y-125957442D01*
X56231447Y-125957442D01*
X56231457Y-125957441D01*
X56396406Y-125899722D01*
X56504818Y-125831603D01*
X58807993Y-125831603D01*
X58827557Y-126005248D01*
X58827559Y-126005258D01*
X58879617Y-126154029D01*
X58885278Y-126170206D01*
X58978253Y-126318176D01*
X59101824Y-126441747D01*
X59249794Y-126534722D01*
X59414743Y-126592441D01*
X59414749Y-126592441D01*
X59414751Y-126592442D01*
X59588396Y-126612007D01*
X59588400Y-126612007D01*
X59588404Y-126612007D01*
X59762048Y-126592442D01*
X59762047Y-126592442D01*
X59762057Y-126592441D01*
X59927006Y-126534722D01*
X60074976Y-126441747D01*
X60198547Y-126318176D01*
X60291522Y-126170206D01*
X60349241Y-126005257D01*
X60354628Y-125957442D01*
X60368807Y-125831603D01*
X60368807Y-125831596D01*
X60363084Y-125780799D01*
X74735215Y-125780799D01*
X74753903Y-125958605D01*
X74753904Y-125958607D01*
X74809147Y-126128629D01*
X74809150Y-126128635D01*
X74898541Y-126283465D01*
X74929795Y-126318176D01*
X75018164Y-126416321D01*
X75018167Y-126416323D01*
X75018170Y-126416326D01*
X75162807Y-126521412D01*
X75326133Y-126594129D01*
X75501009Y-126631300D01*
X75501010Y-126631300D01*
X75679789Y-126631300D01*
X75679791Y-126631300D01*
X75854667Y-126594129D01*
X76017993Y-126521412D01*
X76114415Y-126451355D01*
X76180219Y-126427876D01*
X76248274Y-126443701D01*
X76260174Y-126451348D01*
X76356607Y-126521412D01*
X76519933Y-126594129D01*
X76694809Y-126631300D01*
X76694810Y-126631300D01*
X76873589Y-126631300D01*
X76873591Y-126631300D01*
X77048467Y-126594129D01*
X77211793Y-126521412D01*
X77211808Y-126521401D01*
X77212172Y-126521192D01*
X77212421Y-126521131D01*
X77217730Y-126518768D01*
X77218162Y-126519738D01*
X77280071Y-126504714D01*
X77346100Y-126527561D01*
X77347066Y-126528256D01*
X77372602Y-126546809D01*
X77372604Y-126546810D01*
X77372607Y-126546812D01*
X77535933Y-126619529D01*
X77710809Y-126656700D01*
X77710810Y-126656700D01*
X77889589Y-126656700D01*
X77889591Y-126656700D01*
X78064467Y-126619529D01*
X78227793Y-126546812D01*
X78372430Y-126441726D01*
X78492059Y-126308865D01*
X78581450Y-126154035D01*
X78636697Y-125984003D01*
X78655385Y-125806200D01*
X78636697Y-125628397D01*
X78592702Y-125492994D01*
X78581452Y-125458370D01*
X78581449Y-125458364D01*
X78566785Y-125432965D01*
X78492059Y-125303535D01*
X78407648Y-125209787D01*
X78372435Y-125170678D01*
X78372432Y-125170676D01*
X78372431Y-125170675D01*
X78372430Y-125170674D01*
X78227793Y-125065588D01*
X78064467Y-124992871D01*
X78064465Y-124992870D01*
X77936794Y-124965733D01*
X77889591Y-124955700D01*
X77710809Y-124955700D01*
X77680154Y-124962215D01*
X77535933Y-124992870D01*
X77372601Y-125065590D01*
X77372211Y-125065816D01*
X77371956Y-125065877D01*
X77366671Y-125068231D01*
X77366240Y-125067264D01*
X77304310Y-125082284D01*
X77238285Y-125059428D01*
X77237333Y-125058744D01*
X77211790Y-125040186D01*
X77103288Y-124991879D01*
X77048467Y-124967471D01*
X77048465Y-124967470D01*
X76919913Y-124940146D01*
X76873591Y-124930300D01*
X76694809Y-124930300D01*
X76664154Y-124936815D01*
X76519933Y-124967470D01*
X76519928Y-124967472D01*
X76356608Y-125040188D01*
X76356604Y-125040189D01*
X76260183Y-125110243D01*
X76194377Y-125133722D01*
X76126323Y-125117896D01*
X76114413Y-125110242D01*
X76089168Y-125091900D01*
X76017993Y-125040188D01*
X75854667Y-124967471D01*
X75854665Y-124967470D01*
X75726113Y-124940146D01*
X75679791Y-124930300D01*
X75501009Y-124930300D01*
X75470354Y-124936815D01*
X75326133Y-124967470D01*
X75326128Y-124967472D01*
X75162808Y-125040187D01*
X75018168Y-125145275D01*
X74898540Y-125278136D01*
X74809150Y-125432964D01*
X74809147Y-125432970D01*
X74753904Y-125602992D01*
X74753903Y-125602994D01*
X74735215Y-125780799D01*
X60363084Y-125780799D01*
X60349242Y-125657951D01*
X60349241Y-125657949D01*
X60349241Y-125657943D01*
X60291522Y-125492994D01*
X60198547Y-125345024D01*
X60074976Y-125221453D01*
X59927006Y-125128478D01*
X59927005Y-125128477D01*
X59927004Y-125128477D01*
X59762058Y-125070759D01*
X59762048Y-125070757D01*
X59588404Y-125051193D01*
X59588396Y-125051193D01*
X59414751Y-125070757D01*
X59414741Y-125070759D01*
X59249795Y-125128477D01*
X59101823Y-125221453D01*
X58978253Y-125345023D01*
X58885277Y-125492995D01*
X58827559Y-125657941D01*
X58827557Y-125657951D01*
X58807993Y-125831596D01*
X58807993Y-125831603D01*
X56504818Y-125831603D01*
X56544376Y-125806747D01*
X56667947Y-125683176D01*
X56760922Y-125535206D01*
X56818641Y-125370257D01*
X56823919Y-125323414D01*
X56838207Y-125196603D01*
X56838207Y-125196596D01*
X56818642Y-125022951D01*
X56818641Y-125022949D01*
X56818641Y-125022943D01*
X56760922Y-124857994D01*
X56667947Y-124710024D01*
X56667946Y-124710023D01*
X56664242Y-124704128D01*
X56666259Y-124702860D01*
X56644068Y-124648526D01*
X56656814Y-124579829D01*
X56701447Y-124530891D01*
X56772976Y-124485947D01*
X56896547Y-124362376D01*
X56989522Y-124214406D01*
X57047241Y-124049457D01*
X57056351Y-123968604D01*
X57066807Y-123875803D01*
X57066807Y-123875796D01*
X57047242Y-123702151D01*
X57047241Y-123702149D01*
X57047241Y-123702143D01*
X56989522Y-123537194D01*
X56930967Y-123444003D01*
X59823993Y-123444003D01*
X59843557Y-123617648D01*
X59843559Y-123617658D01*
X59901277Y-123782604D01*
X59901278Y-123782606D01*
X59994253Y-123930576D01*
X60117824Y-124054147D01*
X60265794Y-124147122D01*
X60430743Y-124204841D01*
X60432778Y-124205070D01*
X60434005Y-124205585D01*
X60437529Y-124206390D01*
X60437388Y-124207006D01*
X60497192Y-124232129D01*
X60535945Y-124287334D01*
X60545978Y-124316006D01*
X60638953Y-124463976D01*
X60762524Y-124587547D01*
X60910494Y-124680522D01*
X61075443Y-124738241D01*
X61075449Y-124738241D01*
X61075451Y-124738242D01*
X61249096Y-124757807D01*
X61249100Y-124757807D01*
X61249104Y-124757807D01*
X61422748Y-124738242D01*
X61422747Y-124738242D01*
X61422757Y-124738241D01*
X61587706Y-124680522D01*
X61735676Y-124587547D01*
X61859247Y-124463976D01*
X61949264Y-124320712D01*
X62001598Y-124274421D01*
X62040373Y-124263464D01*
X62063657Y-124260841D01*
X62228606Y-124203122D01*
X62376576Y-124110147D01*
X62393979Y-124092743D01*
X62455299Y-124059258D01*
X62524991Y-124064241D01*
X62580925Y-124106111D01*
X62605344Y-124171575D01*
X62604880Y-124194306D01*
X62589593Y-124329994D01*
X62589593Y-124330003D01*
X62609157Y-124503648D01*
X62609159Y-124503658D01*
X62666877Y-124668604D01*
X62666878Y-124668606D01*
X62759853Y-124816576D01*
X62883424Y-124940147D01*
X63031394Y-125033122D01*
X63196343Y-125090841D01*
X63196349Y-125090841D01*
X63196351Y-125090842D01*
X63369996Y-125110407D01*
X63370000Y-125110407D01*
X63370004Y-125110407D01*
X63543648Y-125090842D01*
X63543647Y-125090842D01*
X63543657Y-125090841D01*
X63708606Y-125033122D01*
X63856576Y-124940147D01*
X63980147Y-124816576D01*
X64073122Y-124668606D01*
X64130841Y-124503657D01*
X64143552Y-124390840D01*
X64150407Y-124330003D01*
X64150407Y-124329996D01*
X64130842Y-124156351D01*
X64130841Y-124156349D01*
X64130841Y-124156343D01*
X64073122Y-123991394D01*
X63980147Y-123843424D01*
X63856576Y-123719853D01*
X63713579Y-123630003D01*
X64419593Y-123630003D01*
X64439157Y-123803648D01*
X64439159Y-123803658D01*
X64496877Y-123968604D01*
X64496878Y-123968606D01*
X64589853Y-124116576D01*
X64713424Y-124240147D01*
X64861394Y-124333122D01*
X65026343Y-124390841D01*
X65026349Y-124390841D01*
X65026351Y-124390842D01*
X65199996Y-124410407D01*
X65200000Y-124410407D01*
X65200004Y-124410407D01*
X65373648Y-124390842D01*
X65373647Y-124390842D01*
X65373657Y-124390841D01*
X65538606Y-124333122D01*
X65686576Y-124240147D01*
X65810147Y-124116576D01*
X65903122Y-123968606D01*
X65960841Y-123803657D01*
X65972279Y-123702141D01*
X65980407Y-123630003D01*
X65980407Y-123629996D01*
X65960842Y-123456351D01*
X65960841Y-123456349D01*
X65960841Y-123456343D01*
X65903122Y-123291394D01*
X65810147Y-123143424D01*
X65686576Y-123019853D01*
X65538606Y-122926878D01*
X65538605Y-122926877D01*
X65538604Y-122926877D01*
X65373658Y-122869159D01*
X65373648Y-122869157D01*
X65200004Y-122849593D01*
X65199996Y-122849593D01*
X65026351Y-122869157D01*
X65026341Y-122869159D01*
X64861395Y-122926877D01*
X64713423Y-123019853D01*
X64589853Y-123143423D01*
X64496877Y-123291395D01*
X64439159Y-123456341D01*
X64439157Y-123456351D01*
X64419593Y-123629996D01*
X64419593Y-123630003D01*
X63713579Y-123630003D01*
X63708606Y-123626878D01*
X63708605Y-123626877D01*
X63708604Y-123626877D01*
X63543658Y-123569159D01*
X63543648Y-123569157D01*
X63370004Y-123549593D01*
X63369996Y-123549593D01*
X63196351Y-123569157D01*
X63196341Y-123569159D01*
X63031395Y-123626877D01*
X62883423Y-123719853D01*
X62883421Y-123719854D01*
X62866018Y-123737258D01*
X62804694Y-123770742D01*
X62735003Y-123765756D01*
X62679070Y-123723883D01*
X62654655Y-123658418D01*
X62655119Y-123635692D01*
X62670407Y-123500003D01*
X62670407Y-123499996D01*
X62650842Y-123326351D01*
X62650841Y-123326349D01*
X62650841Y-123326343D01*
X62593122Y-123161394D01*
X62500147Y-123013424D01*
X62376576Y-122889853D01*
X62228606Y-122796878D01*
X62228605Y-122796877D01*
X62228604Y-122796877D01*
X62063658Y-122739159D01*
X62063648Y-122739157D01*
X61890004Y-122719593D01*
X61889996Y-122719593D01*
X61716351Y-122739157D01*
X61716341Y-122739159D01*
X61551395Y-122796877D01*
X61403423Y-122889853D01*
X61403421Y-122889854D01*
X61362878Y-122930397D01*
X61301554Y-122963881D01*
X61231863Y-122958895D01*
X61187518Y-122930395D01*
X61090976Y-122833853D01*
X61032130Y-122796878D01*
X60943006Y-122740878D01*
X60943005Y-122740877D01*
X60943004Y-122740877D01*
X60778058Y-122683159D01*
X60778048Y-122683157D01*
X60604404Y-122663593D01*
X60604396Y-122663593D01*
X60430751Y-122683157D01*
X60430741Y-122683159D01*
X60265795Y-122740877D01*
X60117823Y-122833853D01*
X59994253Y-122957423D01*
X59901277Y-123105395D01*
X59843559Y-123270341D01*
X59843557Y-123270351D01*
X59823993Y-123443996D01*
X59823993Y-123444003D01*
X56930967Y-123444003D01*
X56896547Y-123389224D01*
X56772976Y-123265653D01*
X56637762Y-123180693D01*
X56591472Y-123128360D01*
X56580823Y-123059306D01*
X56609198Y-122995458D01*
X56637763Y-122970706D01*
X56648625Y-122963881D01*
X56772976Y-122885747D01*
X56896547Y-122762176D01*
X56989522Y-122614206D01*
X57047241Y-122449257D01*
X57060136Y-122334806D01*
X57066807Y-122275603D01*
X57066807Y-122275596D01*
X57047242Y-122101951D01*
X57047241Y-122101949D01*
X57047241Y-122101943D01*
X56989522Y-121936994D01*
X56896547Y-121789024D01*
X56772976Y-121665453D01*
X56625006Y-121572478D01*
X56625005Y-121572477D01*
X56625004Y-121572477D01*
X56460058Y-121514759D01*
X56460048Y-121514757D01*
X56286404Y-121495193D01*
X56286396Y-121495193D01*
X56112751Y-121514757D01*
X56112741Y-121514759D01*
X55947795Y-121572477D01*
X55799823Y-121665453D01*
X55676253Y-121789023D01*
X55583277Y-121936995D01*
X55525559Y-122101941D01*
X55525557Y-122101951D01*
X55505993Y-122275596D01*
X55505993Y-122275603D01*
X55525557Y-122449248D01*
X55525559Y-122449258D01*
X55580528Y-122606347D01*
X55583278Y-122614206D01*
X55676253Y-122762176D01*
X55799824Y-122885747D01*
X55865283Y-122926877D01*
X55935036Y-122970706D01*
X55981327Y-123023041D01*
X55991975Y-123092094D01*
X55963600Y-123155943D01*
X55935036Y-123180694D01*
X55799823Y-123265653D01*
X55676253Y-123389223D01*
X55583277Y-123537195D01*
X55525559Y-123702141D01*
X55525557Y-123702151D01*
X55505993Y-123875796D01*
X55505993Y-123875803D01*
X55525557Y-124049448D01*
X55525559Y-124049458D01*
X55583064Y-124213794D01*
X55583278Y-124214406D01*
X55655907Y-124329996D01*
X55679958Y-124368272D01*
X55677946Y-124369536D01*
X55700134Y-124423913D01*
X55687366Y-124492606D01*
X55642749Y-124541510D01*
X55571225Y-124586451D01*
X55447653Y-124710023D01*
X55354677Y-124857995D01*
X55296959Y-125022941D01*
X55296957Y-125022951D01*
X55277393Y-125196596D01*
X55277393Y-125196603D01*
X45250500Y-125196603D01*
X45250500Y-122351805D01*
X45751472Y-122351805D01*
X45771151Y-122589294D01*
X45771151Y-122589297D01*
X45771152Y-122589298D01*
X45815010Y-122762491D01*
X45829654Y-122820318D01*
X45925382Y-123038557D01*
X46055722Y-123238059D01*
X46055725Y-123238063D01*
X46055727Y-123238065D01*
X46217131Y-123413397D01*
X46217134Y-123413399D01*
X46217137Y-123413402D01*
X46405184Y-123559765D01*
X46405190Y-123559769D01*
X46405193Y-123559771D01*
X46504886Y-123613722D01*
X46587476Y-123658418D01*
X46614782Y-123673195D01*
X46840182Y-123750575D01*
X47075244Y-123789800D01*
X47075245Y-123789800D01*
X47313555Y-123789800D01*
X47313556Y-123789800D01*
X47548618Y-123750575D01*
X47774018Y-123673195D01*
X47983607Y-123559771D01*
X48171669Y-123413397D01*
X48333073Y-123238065D01*
X48463417Y-123038558D01*
X48559146Y-122820318D01*
X48617648Y-122589298D01*
X48628373Y-122459864D01*
X48637328Y-122351805D01*
X52251472Y-122351805D01*
X52271151Y-122589294D01*
X52271151Y-122589297D01*
X52271152Y-122589298D01*
X52315010Y-122762491D01*
X52329654Y-122820318D01*
X52425382Y-123038557D01*
X52555722Y-123238059D01*
X52555725Y-123238063D01*
X52555727Y-123238065D01*
X52717131Y-123413397D01*
X52717134Y-123413399D01*
X52717137Y-123413402D01*
X52905184Y-123559765D01*
X52905190Y-123559769D01*
X52905193Y-123559771D01*
X53004886Y-123613722D01*
X53087476Y-123658418D01*
X53114782Y-123673195D01*
X53340182Y-123750575D01*
X53575244Y-123789800D01*
X53575245Y-123789800D01*
X53813555Y-123789800D01*
X53813556Y-123789800D01*
X54048618Y-123750575D01*
X54274018Y-123673195D01*
X54483607Y-123559771D01*
X54671669Y-123413397D01*
X54833073Y-123238065D01*
X54963417Y-123038558D01*
X55059146Y-122820318D01*
X55117648Y-122589298D01*
X55128373Y-122459864D01*
X55137328Y-122351805D01*
X55137328Y-122351794D01*
X55122252Y-122169858D01*
X55117648Y-122114302D01*
X55059146Y-121883282D01*
X54963417Y-121665042D01*
X54958550Y-121657592D01*
X54833077Y-121465540D01*
X54833074Y-121465537D01*
X54833073Y-121465535D01*
X54671669Y-121290203D01*
X54671664Y-121290199D01*
X54671662Y-121290197D01*
X54483615Y-121143834D01*
X54483609Y-121143830D01*
X54274019Y-121030405D01*
X54274010Y-121030402D01*
X54048620Y-120953025D01*
X53891909Y-120926875D01*
X53813556Y-120913800D01*
X53575244Y-120913800D01*
X53516478Y-120923606D01*
X53340179Y-120953025D01*
X53114789Y-121030402D01*
X53114780Y-121030405D01*
X52905190Y-121143830D01*
X52905184Y-121143834D01*
X52717137Y-121290197D01*
X52717134Y-121290200D01*
X52717131Y-121290202D01*
X52717131Y-121290203D01*
X52691201Y-121318371D01*
X52555722Y-121465540D01*
X52425382Y-121665042D01*
X52329654Y-121883281D01*
X52271151Y-122114305D01*
X52251472Y-122351794D01*
X52251472Y-122351805D01*
X48637328Y-122351805D01*
X48637328Y-122351794D01*
X48622252Y-122169858D01*
X48617648Y-122114302D01*
X48559146Y-121883282D01*
X48463417Y-121665042D01*
X48458550Y-121657592D01*
X48333077Y-121465540D01*
X48333074Y-121465537D01*
X48333073Y-121465535D01*
X48171669Y-121290203D01*
X48171664Y-121290199D01*
X48171662Y-121290197D01*
X47983615Y-121143834D01*
X47983609Y-121143830D01*
X47774019Y-121030405D01*
X47774010Y-121030402D01*
X47548620Y-120953025D01*
X47391909Y-120926874D01*
X47313556Y-120913800D01*
X47075244Y-120913800D01*
X47016478Y-120923606D01*
X46840179Y-120953025D01*
X46614789Y-121030402D01*
X46614780Y-121030405D01*
X46405190Y-121143830D01*
X46405184Y-121143834D01*
X46217137Y-121290197D01*
X46217134Y-121290200D01*
X46217131Y-121290202D01*
X46217131Y-121290203D01*
X46191201Y-121318371D01*
X46055722Y-121465540D01*
X45925382Y-121665042D01*
X45829654Y-121883281D01*
X45771151Y-122114305D01*
X45751472Y-122351794D01*
X45751472Y-122351805D01*
X45250500Y-122351805D01*
X45250500Y-120827803D01*
X65767593Y-120827803D01*
X65787157Y-121001448D01*
X65787159Y-121001458D01*
X65844877Y-121166404D01*
X65844878Y-121166406D01*
X65922662Y-121290200D01*
X65937855Y-121314379D01*
X65974468Y-121350992D01*
X66007953Y-121412315D01*
X66002969Y-121482007D01*
X65991781Y-121504644D01*
X65895678Y-121657592D01*
X65837959Y-121822541D01*
X65837957Y-121822551D01*
X65818393Y-121996196D01*
X65818393Y-121996203D01*
X65837957Y-122169848D01*
X65837959Y-122169858D01*
X65877901Y-122284004D01*
X65895678Y-122334806D01*
X65988653Y-122482776D01*
X66112224Y-122606347D01*
X66260194Y-122699322D01*
X66425143Y-122757041D01*
X66425148Y-122757041D01*
X66425150Y-122757042D01*
X66545911Y-122770648D01*
X66597718Y-122776485D01*
X66662132Y-122803551D01*
X66701687Y-122861146D01*
X66706042Y-122903637D01*
X66707393Y-122903637D01*
X66707393Y-122910603D01*
X66726957Y-123084248D01*
X66726959Y-123084258D01*
X66784677Y-123249204D01*
X66784678Y-123249206D01*
X66877653Y-123397176D01*
X67001224Y-123520747D01*
X67149194Y-123613722D01*
X67314143Y-123671441D01*
X67314149Y-123671441D01*
X67314151Y-123671442D01*
X67487796Y-123691007D01*
X67487800Y-123691007D01*
X67487804Y-123691007D01*
X67661448Y-123671442D01*
X67661447Y-123671442D01*
X67661457Y-123671441D01*
X67826406Y-123613722D01*
X67974376Y-123520747D01*
X68097947Y-123397176D01*
X68190922Y-123249206D01*
X68248641Y-123084257D01*
X68253921Y-123037391D01*
X68268207Y-122910603D01*
X68268207Y-122910596D01*
X68248642Y-122736951D01*
X68248641Y-122736949D01*
X68248641Y-122736943D01*
X68190922Y-122571994D01*
X68097947Y-122424024D01*
X67974376Y-122300453D01*
X67826406Y-122207478D01*
X67826405Y-122207477D01*
X67826404Y-122207477D01*
X67661458Y-122149759D01*
X67661448Y-122149757D01*
X67488881Y-122130314D01*
X67424467Y-122103248D01*
X67384911Y-122045653D01*
X67380563Y-122003164D01*
X67379207Y-122003164D01*
X67379207Y-121996197D01*
X67359642Y-121822550D01*
X67359641Y-121822548D01*
X67359641Y-121822543D01*
X67301922Y-121657594D01*
X67208947Y-121509624D01*
X67172330Y-121473008D01*
X67138846Y-121411685D01*
X67143830Y-121341993D01*
X67155018Y-121319355D01*
X67158145Y-121314377D01*
X67158147Y-121314376D01*
X67251122Y-121166406D01*
X67289614Y-121056403D01*
X68586993Y-121056403D01*
X68606557Y-121230048D01*
X68606559Y-121230058D01*
X68664277Y-121395004D01*
X68664278Y-121395006D01*
X68757253Y-121542976D01*
X68880824Y-121666547D01*
X68996761Y-121739395D01*
X69043052Y-121791728D01*
X69054009Y-121858271D01*
X69044193Y-121945396D01*
X69044193Y-121945403D01*
X69063757Y-122119048D01*
X69063759Y-122119058D01*
X69121477Y-122284004D01*
X69121478Y-122284006D01*
X69214453Y-122431976D01*
X69338024Y-122555547D01*
X69485994Y-122648522D01*
X69650943Y-122706241D01*
X69650949Y-122706241D01*
X69650951Y-122706242D01*
X69824596Y-122725807D01*
X69824600Y-122725807D01*
X69824604Y-122725807D01*
X69998248Y-122706242D01*
X69998247Y-122706242D01*
X69998257Y-122706241D01*
X70163206Y-122648522D01*
X70311176Y-122555547D01*
X70434747Y-122431976D01*
X70527722Y-122284006D01*
X70585441Y-122119057D01*
X70591184Y-122068089D01*
X70599284Y-121996200D01*
X73777541Y-121996200D01*
X73798136Y-122231603D01*
X73798138Y-122231613D01*
X73859294Y-122459855D01*
X73859296Y-122459859D01*
X73859297Y-122459863D01*
X73927604Y-122606347D01*
X73959165Y-122674030D01*
X73959167Y-122674034D01*
X74021106Y-122762491D01*
X74094705Y-122867601D01*
X74261799Y-123034695D01*
X74332568Y-123084248D01*
X74455365Y-123170232D01*
X74455367Y-123170233D01*
X74455370Y-123170235D01*
X74669537Y-123270103D01*
X74669543Y-123270104D01*
X74669544Y-123270105D01*
X74724485Y-123284826D01*
X74897792Y-123331263D01*
X75068519Y-123346200D01*
X75133199Y-123351859D01*
X75133200Y-123351859D01*
X75133201Y-123351859D01*
X75197881Y-123346200D01*
X75368608Y-123331263D01*
X75596863Y-123270103D01*
X75811030Y-123170235D01*
X76004601Y-123034695D01*
X76171695Y-122867601D01*
X76301624Y-122682042D01*
X76356202Y-122638417D01*
X76425700Y-122631223D01*
X76488055Y-122662746D01*
X76504775Y-122682042D01*
X76634700Y-122867595D01*
X76634705Y-122867601D01*
X76801799Y-123034695D01*
X76872568Y-123084248D01*
X76995365Y-123170232D01*
X76995367Y-123170233D01*
X76995370Y-123170235D01*
X77209537Y-123270103D01*
X77209543Y-123270104D01*
X77209544Y-123270105D01*
X77264485Y-123284826D01*
X77437792Y-123331263D01*
X77608519Y-123346200D01*
X77673199Y-123351859D01*
X77673200Y-123351859D01*
X77673201Y-123351859D01*
X77737881Y-123346200D01*
X77908608Y-123331263D01*
X78136863Y-123270103D01*
X78351030Y-123170235D01*
X78544601Y-123034695D01*
X78711695Y-122867601D01*
X78841624Y-122682042D01*
X78896202Y-122638417D01*
X78965700Y-122631223D01*
X79028055Y-122662746D01*
X79044775Y-122682042D01*
X79174700Y-122867595D01*
X79174705Y-122867601D01*
X79341799Y-123034695D01*
X79412568Y-123084248D01*
X79535365Y-123170232D01*
X79535367Y-123170233D01*
X79535370Y-123170235D01*
X79749537Y-123270103D01*
X79749543Y-123270104D01*
X79749544Y-123270105D01*
X79804485Y-123284826D01*
X79977792Y-123331263D01*
X80148519Y-123346200D01*
X80213199Y-123351859D01*
X80213200Y-123351859D01*
X80213201Y-123351859D01*
X80277881Y-123346200D01*
X80448608Y-123331263D01*
X80676863Y-123270103D01*
X80891030Y-123170235D01*
X81084601Y-123034695D01*
X81206917Y-122912378D01*
X81268236Y-122878896D01*
X81337928Y-122883880D01*
X81393862Y-122925751D01*
X81410777Y-122956728D01*
X81459846Y-123088288D01*
X81459849Y-123088293D01*
X81546009Y-123203387D01*
X81546012Y-123203390D01*
X81661106Y-123289550D01*
X81661113Y-123289554D01*
X81795820Y-123339796D01*
X81795827Y-123339798D01*
X81855355Y-123346199D01*
X81855372Y-123346200D01*
X82503200Y-123346200D01*
X82503200Y-122431701D01*
X82610885Y-122480880D01*
X82717437Y-122496200D01*
X82788963Y-122496200D01*
X82895515Y-122480880D01*
X83003200Y-122431701D01*
X83003200Y-123346200D01*
X83651028Y-123346200D01*
X83651044Y-123346199D01*
X83710572Y-123339798D01*
X83710579Y-123339796D01*
X83845286Y-123289554D01*
X83845293Y-123289550D01*
X83960387Y-123203390D01*
X83960390Y-123203387D01*
X84046550Y-123088293D01*
X84046554Y-123088286D01*
X84096796Y-122953579D01*
X84096798Y-122953572D01*
X84103199Y-122894044D01*
X84103200Y-122894027D01*
X84103200Y-122246200D01*
X83186886Y-122246200D01*
X83212693Y-122206044D01*
X83253200Y-122068089D01*
X83253200Y-121924311D01*
X83212693Y-121786356D01*
X83186886Y-121746200D01*
X84103200Y-121746200D01*
X84103200Y-121098372D01*
X84103199Y-121098355D01*
X84096798Y-121038827D01*
X84096796Y-121038820D01*
X84046554Y-120904113D01*
X84046550Y-120904106D01*
X83960390Y-120789012D01*
X83960387Y-120789009D01*
X83845293Y-120702849D01*
X83845286Y-120702845D01*
X83710579Y-120652603D01*
X83710572Y-120652601D01*
X83651044Y-120646200D01*
X83003200Y-120646200D01*
X83003200Y-121560698D01*
X82895515Y-121511520D01*
X82788963Y-121496200D01*
X82717437Y-121496200D01*
X82610885Y-121511520D01*
X82503200Y-121560698D01*
X82503200Y-120646200D01*
X81855355Y-120646200D01*
X81795827Y-120652601D01*
X81795820Y-120652603D01*
X81661113Y-120702845D01*
X81661106Y-120702849D01*
X81546012Y-120789009D01*
X81546009Y-120789012D01*
X81459849Y-120904106D01*
X81459845Y-120904113D01*
X81410778Y-121035670D01*
X81368907Y-121091604D01*
X81303442Y-121116021D01*
X81235169Y-121101169D01*
X81206915Y-121080019D01*
X81157298Y-121030402D01*
X81084601Y-120957705D01*
X81084597Y-120957702D01*
X81084596Y-120957701D01*
X80891034Y-120822167D01*
X80891030Y-120822165D01*
X80819927Y-120789009D01*
X80676863Y-120722297D01*
X80676859Y-120722296D01*
X80676855Y-120722294D01*
X80448613Y-120661138D01*
X80448603Y-120661136D01*
X80213201Y-120640541D01*
X80213199Y-120640541D01*
X79977796Y-120661136D01*
X79977786Y-120661138D01*
X79749544Y-120722294D01*
X79749535Y-120722298D01*
X79535371Y-120822164D01*
X79535369Y-120822165D01*
X79341797Y-120957705D01*
X79174705Y-121124797D01*
X79044775Y-121310358D01*
X78990198Y-121353983D01*
X78920700Y-121361177D01*
X78858345Y-121329654D01*
X78841625Y-121310358D01*
X78711694Y-121124797D01*
X78544602Y-120957706D01*
X78544595Y-120957701D01*
X78351034Y-120822167D01*
X78351030Y-120822165D01*
X78279927Y-120789009D01*
X78136863Y-120722297D01*
X78136859Y-120722296D01*
X78136855Y-120722294D01*
X77908613Y-120661138D01*
X77908603Y-120661136D01*
X77673201Y-120640541D01*
X77673199Y-120640541D01*
X77437796Y-120661136D01*
X77437786Y-120661138D01*
X77209544Y-120722294D01*
X77209535Y-120722298D01*
X76995371Y-120822164D01*
X76995369Y-120822165D01*
X76801797Y-120957705D01*
X76634708Y-121124794D01*
X76504774Y-121310359D01*
X76450197Y-121353984D01*
X76380698Y-121361176D01*
X76318344Y-121329654D01*
X76301624Y-121310358D01*
X76287511Y-121290203D01*
X76245387Y-121230043D01*
X76171694Y-121124797D01*
X76004602Y-120957706D01*
X76004595Y-120957701D01*
X75811034Y-120822167D01*
X75811030Y-120822165D01*
X75739927Y-120789009D01*
X75596863Y-120722297D01*
X75596859Y-120722296D01*
X75596855Y-120722294D01*
X75368613Y-120661138D01*
X75368603Y-120661136D01*
X75133201Y-120640541D01*
X75133199Y-120640541D01*
X74897796Y-120661136D01*
X74897786Y-120661138D01*
X74669544Y-120722294D01*
X74669535Y-120722298D01*
X74455371Y-120822164D01*
X74455369Y-120822165D01*
X74261797Y-120957705D01*
X74094705Y-121124797D01*
X73959165Y-121318369D01*
X73959164Y-121318371D01*
X73859298Y-121532535D01*
X73859294Y-121532544D01*
X73798138Y-121760786D01*
X73798136Y-121760796D01*
X73777541Y-121996199D01*
X73777541Y-121996200D01*
X70599284Y-121996200D01*
X70605007Y-121945403D01*
X70605007Y-121945396D01*
X70585442Y-121771751D01*
X70585441Y-121771749D01*
X70585441Y-121771743D01*
X70527722Y-121606794D01*
X70434747Y-121458824D01*
X70311176Y-121335253D01*
X70302265Y-121329654D01*
X70195238Y-121262404D01*
X70148947Y-121210069D01*
X70137990Y-121143526D01*
X70147807Y-121056402D01*
X70147807Y-121056397D01*
X70128242Y-120882750D01*
X70128241Y-120882748D01*
X70128241Y-120882743D01*
X70070522Y-120717794D01*
X69977547Y-120569824D01*
X69853976Y-120446253D01*
X69853974Y-120446251D01*
X69799610Y-120412092D01*
X69753320Y-120359758D01*
X69742672Y-120290704D01*
X69771047Y-120226856D01*
X69799607Y-120202108D01*
X69853976Y-120167947D01*
X69977547Y-120044376D01*
X70070522Y-119896406D01*
X70128241Y-119731457D01*
X70133436Y-119685346D01*
X70147807Y-119557803D01*
X70147807Y-119557796D01*
X70128242Y-119384151D01*
X70128241Y-119384149D01*
X70128241Y-119384143D01*
X70070522Y-119219194D01*
X69996007Y-119100603D01*
X77095993Y-119100603D01*
X77115557Y-119274248D01*
X77115559Y-119274258D01*
X77164389Y-119413804D01*
X77173278Y-119439206D01*
X77266253Y-119587176D01*
X77389824Y-119710747D01*
X77537794Y-119803722D01*
X77702743Y-119861441D01*
X77702749Y-119861441D01*
X77702751Y-119861442D01*
X77876396Y-119881007D01*
X77876400Y-119881007D01*
X77876404Y-119881007D01*
X78050048Y-119861442D01*
X78050047Y-119861442D01*
X78050057Y-119861441D01*
X78215006Y-119803722D01*
X78362976Y-119710747D01*
X78486547Y-119587176D01*
X78579522Y-119439206D01*
X78579523Y-119439204D01*
X78579588Y-119439101D01*
X78631922Y-119392809D01*
X78700976Y-119382160D01*
X78739167Y-119394309D01*
X78739304Y-119394007D01*
X78741926Y-119395187D01*
X78742215Y-119395279D01*
X78742713Y-119395540D01*
X78742721Y-119395545D01*
X79040639Y-119529627D01*
X79040652Y-119529631D01*
X79040657Y-119529633D01*
X79225311Y-119587173D01*
X79352547Y-119626821D01*
X79673896Y-119685710D01*
X80000000Y-119705436D01*
X80326104Y-119685710D01*
X80647453Y-119626821D01*
X80959361Y-119529627D01*
X81257279Y-119395545D01*
X81536863Y-119226530D01*
X81794036Y-119025048D01*
X82025048Y-118794036D01*
X82226530Y-118536863D01*
X82395545Y-118257279D01*
X82529627Y-117959361D01*
X82626821Y-117647453D01*
X82685710Y-117326104D01*
X82705436Y-117000000D01*
X82685710Y-116673896D01*
X82626821Y-116352547D01*
X82529627Y-116040639D01*
X82395545Y-115742721D01*
X82226530Y-115463137D01*
X82226528Y-115463134D01*
X82226526Y-115463131D01*
X82025045Y-115205960D01*
X81794039Y-114974954D01*
X81536868Y-114773473D01*
X81529306Y-114768901D01*
X81257279Y-114604455D01*
X80959361Y-114470373D01*
X80959354Y-114470370D01*
X80959342Y-114470366D01*
X80647452Y-114373178D01*
X80326099Y-114314289D01*
X80000000Y-114294564D01*
X79673900Y-114314289D01*
X79352547Y-114373178D01*
X79040657Y-114470366D01*
X79040641Y-114470372D01*
X79040639Y-114470373D01*
X78850933Y-114555752D01*
X78742725Y-114604453D01*
X78742723Y-114604454D01*
X78463131Y-114773473D01*
X78205960Y-114974954D01*
X77974954Y-115205960D01*
X77773473Y-115463131D01*
X77646708Y-115672825D01*
X77604455Y-115742721D01*
X77510963Y-115950453D01*
X77470372Y-116040642D01*
X77470366Y-116040657D01*
X77373178Y-116352547D01*
X77314289Y-116673900D01*
X77294564Y-117000000D01*
X77314289Y-117326099D01*
X77373178Y-117647452D01*
X77470366Y-117959342D01*
X77470370Y-117959354D01*
X77470373Y-117959361D01*
X77591945Y-118229483D01*
X77594849Y-118235935D01*
X77604412Y-118305147D01*
X77575038Y-118368542D01*
X77543096Y-118392828D01*
X77543690Y-118393773D01*
X77389823Y-118490453D01*
X77266253Y-118614023D01*
X77173277Y-118761995D01*
X77115559Y-118926941D01*
X77115557Y-118926951D01*
X77095993Y-119100596D01*
X77095993Y-119100603D01*
X69996007Y-119100603D01*
X69977547Y-119071224D01*
X69853976Y-118947653D01*
X69706006Y-118854678D01*
X69706005Y-118854677D01*
X69706004Y-118854677D01*
X69541058Y-118796959D01*
X69541048Y-118796957D01*
X69367404Y-118777393D01*
X69367396Y-118777393D01*
X69193751Y-118796957D01*
X69193741Y-118796959D01*
X69028795Y-118854677D01*
X68880823Y-118947653D01*
X68757253Y-119071223D01*
X68664277Y-119219195D01*
X68606559Y-119384141D01*
X68606557Y-119384151D01*
X68586993Y-119557796D01*
X68586993Y-119557803D01*
X68606557Y-119731448D01*
X68606559Y-119731458D01*
X68664277Y-119896404D01*
X68664278Y-119896406D01*
X68757253Y-120044376D01*
X68880824Y-120167947D01*
X68923950Y-120195044D01*
X68935188Y-120202106D01*
X68981479Y-120254441D01*
X68992127Y-120323494D01*
X68963752Y-120387343D01*
X68935188Y-120412094D01*
X68880823Y-120446253D01*
X68757253Y-120569823D01*
X68664277Y-120717795D01*
X68606559Y-120882741D01*
X68606557Y-120882751D01*
X68586993Y-121056396D01*
X68586993Y-121056403D01*
X67289614Y-121056403D01*
X67308841Y-121001457D01*
X67309621Y-120994526D01*
X67328407Y-120827803D01*
X67328407Y-120827796D01*
X67308842Y-120654151D01*
X67308841Y-120654149D01*
X67308841Y-120654143D01*
X67251122Y-120489194D01*
X67158147Y-120341224D01*
X67034576Y-120217653D01*
X66886606Y-120124678D01*
X66886605Y-120124677D01*
X66886604Y-120124677D01*
X66721658Y-120066959D01*
X66721648Y-120066957D01*
X66548004Y-120047393D01*
X66547996Y-120047393D01*
X66374351Y-120066957D01*
X66374341Y-120066959D01*
X66209395Y-120124677D01*
X66061423Y-120217653D01*
X65937853Y-120341223D01*
X65844877Y-120489195D01*
X65787159Y-120654141D01*
X65787157Y-120654151D01*
X65767593Y-120827796D01*
X65767593Y-120827803D01*
X45250500Y-120827803D01*
X45250500Y-116999999D01*
X47294564Y-116999999D01*
X47314289Y-117326099D01*
X47373178Y-117647452D01*
X47470366Y-117959342D01*
X47470370Y-117959354D01*
X47470373Y-117959361D01*
X47604455Y-118257279D01*
X47673854Y-118372078D01*
X47773473Y-118536868D01*
X47974954Y-118794039D01*
X48205960Y-119025045D01*
X48463131Y-119226526D01*
X48463134Y-119226528D01*
X48463137Y-119226530D01*
X48742721Y-119395545D01*
X49040639Y-119529627D01*
X49040652Y-119529631D01*
X49040657Y-119529633D01*
X49225311Y-119587173D01*
X49352547Y-119626821D01*
X49673896Y-119685710D01*
X50000000Y-119705436D01*
X50326104Y-119685710D01*
X50647453Y-119626821D01*
X50959361Y-119529627D01*
X51255126Y-119396513D01*
X51324336Y-119386951D01*
X51387731Y-119416324D01*
X51411009Y-119443618D01*
X51465056Y-119529633D01*
X51485253Y-119561776D01*
X51608824Y-119685347D01*
X51756794Y-119778322D01*
X51921743Y-119836041D01*
X51921749Y-119836041D01*
X51921751Y-119836042D01*
X52095396Y-119855607D01*
X52095400Y-119855607D01*
X52095404Y-119855607D01*
X52269048Y-119836042D01*
X52269047Y-119836042D01*
X52269057Y-119836041D01*
X52434006Y-119778322D01*
X52501993Y-119735603D01*
X56191793Y-119735603D01*
X56211357Y-119909248D01*
X56211359Y-119909258D01*
X56266541Y-120066957D01*
X56269078Y-120074206D01*
X56362053Y-120222176D01*
X56485624Y-120345747D01*
X56633594Y-120438722D01*
X56798543Y-120496441D01*
X56798549Y-120496441D01*
X56798551Y-120496442D01*
X56972196Y-120516007D01*
X56972200Y-120516007D01*
X56972204Y-120516007D01*
X57145848Y-120496442D01*
X57145847Y-120496442D01*
X57145857Y-120496441D01*
X57310806Y-120438722D01*
X57458776Y-120345747D01*
X57582347Y-120222176D01*
X57675322Y-120074206D01*
X57733041Y-119909257D01*
X57738428Y-119861442D01*
X57752607Y-119735603D01*
X57752607Y-119735596D01*
X57733042Y-119561951D01*
X57733041Y-119561949D01*
X57733041Y-119561943D01*
X57675322Y-119396994D01*
X57582347Y-119249024D01*
X57458776Y-119125453D01*
X57310806Y-119032478D01*
X57310805Y-119032477D01*
X57310804Y-119032477D01*
X57145858Y-118974759D01*
X57145848Y-118974757D01*
X56972204Y-118955193D01*
X56972196Y-118955193D01*
X56798551Y-118974757D01*
X56798541Y-118974759D01*
X56633595Y-119032477D01*
X56485623Y-119125453D01*
X56362053Y-119249023D01*
X56269077Y-119396995D01*
X56211359Y-119561941D01*
X56211357Y-119561951D01*
X56191793Y-119735596D01*
X56191793Y-119735603D01*
X52501993Y-119735603D01*
X52581976Y-119685347D01*
X52705547Y-119561776D01*
X52798522Y-119413806D01*
X52856241Y-119248857D01*
X52875807Y-119075200D01*
X52870993Y-119032478D01*
X52856242Y-118901551D01*
X52856241Y-118901549D01*
X52856241Y-118901543D01*
X52798522Y-118736594D01*
X52705547Y-118588624D01*
X52581976Y-118465053D01*
X52581975Y-118465053D01*
X52455158Y-118385368D01*
X52408867Y-118333033D01*
X52398219Y-118263980D01*
X52408052Y-118229488D01*
X52529627Y-117959361D01*
X52626821Y-117647453D01*
X52663005Y-117450003D01*
X57229593Y-117450003D01*
X57249157Y-117623648D01*
X57249159Y-117623658D01*
X57270517Y-117684694D01*
X57306878Y-117788606D01*
X57399853Y-117936576D01*
X57523424Y-118060147D01*
X57671394Y-118153122D01*
X57836343Y-118210841D01*
X57836349Y-118210841D01*
X57836351Y-118210842D01*
X58009996Y-118230407D01*
X58010000Y-118230407D01*
X58010004Y-118230407D01*
X58183648Y-118210842D01*
X58183647Y-118210842D01*
X58183657Y-118210841D01*
X58348606Y-118153122D01*
X58496576Y-118060147D01*
X58533420Y-118023303D01*
X66066852Y-118023303D01*
X66086416Y-118196948D01*
X66086418Y-118196958D01*
X66136795Y-118340925D01*
X66144137Y-118361906D01*
X66237112Y-118509876D01*
X66360683Y-118633447D01*
X66508653Y-118726422D01*
X66673602Y-118784141D01*
X66673608Y-118784141D01*
X66673610Y-118784142D01*
X66847255Y-118803707D01*
X66847259Y-118803707D01*
X66847263Y-118803707D01*
X67020907Y-118784142D01*
X67020906Y-118784142D01*
X67020916Y-118784141D01*
X67185865Y-118726422D01*
X67333835Y-118633447D01*
X67457406Y-118509876D01*
X67550381Y-118361906D01*
X67608100Y-118196957D01*
X67618808Y-118101922D01*
X67627666Y-118023303D01*
X67627666Y-118023296D01*
X67608101Y-117849651D01*
X67608100Y-117849649D01*
X67608100Y-117849643D01*
X67550381Y-117684694D01*
X67457406Y-117536724D01*
X67333835Y-117413153D01*
X67310997Y-117398803D01*
X69399793Y-117398803D01*
X69419357Y-117572448D01*
X69419359Y-117572458D01*
X69458633Y-117684694D01*
X69477078Y-117737406D01*
X69570053Y-117885376D01*
X69693624Y-118008947D01*
X69841594Y-118101922D01*
X70006543Y-118159641D01*
X70006549Y-118159641D01*
X70006551Y-118159642D01*
X70180196Y-118179207D01*
X70180200Y-118179207D01*
X70180204Y-118179207D01*
X70353848Y-118159642D01*
X70353847Y-118159642D01*
X70353857Y-118159641D01*
X70518806Y-118101922D01*
X70666776Y-118008947D01*
X70790347Y-117885376D01*
X70883322Y-117737406D01*
X70941041Y-117572457D01*
X70954838Y-117450003D01*
X70960607Y-117398803D01*
X70960607Y-117398796D01*
X70941042Y-117225151D01*
X70941041Y-117225149D01*
X70941041Y-117225143D01*
X70883322Y-117060194D01*
X70790347Y-116912224D01*
X70666776Y-116788653D01*
X70518806Y-116695678D01*
X70518805Y-116695677D01*
X70518804Y-116695677D01*
X70353858Y-116637959D01*
X70353848Y-116637957D01*
X70180204Y-116618393D01*
X70180196Y-116618393D01*
X70006551Y-116637957D01*
X70006541Y-116637959D01*
X69841595Y-116695677D01*
X69693623Y-116788653D01*
X69570053Y-116912223D01*
X69477077Y-117060195D01*
X69419359Y-117225141D01*
X69419357Y-117225151D01*
X69399793Y-117398796D01*
X69399793Y-117398803D01*
X67310997Y-117398803D01*
X67185865Y-117320178D01*
X67185864Y-117320177D01*
X67185863Y-117320177D01*
X67020917Y-117262459D01*
X67020907Y-117262457D01*
X66847263Y-117242893D01*
X66847255Y-117242893D01*
X66673610Y-117262457D01*
X66673600Y-117262459D01*
X66508654Y-117320177D01*
X66360682Y-117413153D01*
X66237112Y-117536723D01*
X66144136Y-117684695D01*
X66086418Y-117849641D01*
X66086416Y-117849651D01*
X66066852Y-118023296D01*
X66066852Y-118023303D01*
X58533420Y-118023303D01*
X58620147Y-117936576D01*
X58713122Y-117788606D01*
X58770841Y-117623657D01*
X58790407Y-117450000D01*
X58786255Y-117413153D01*
X58770842Y-117276351D01*
X58770841Y-117276349D01*
X58770841Y-117276343D01*
X58713122Y-117111394D01*
X58620147Y-116963424D01*
X58496576Y-116839853D01*
X58348606Y-116746878D01*
X58348605Y-116746877D01*
X58348604Y-116746877D01*
X58183658Y-116689159D01*
X58183648Y-116689157D01*
X58010004Y-116669593D01*
X58009996Y-116669593D01*
X57836351Y-116689157D01*
X57836341Y-116689159D01*
X57671395Y-116746877D01*
X57523423Y-116839853D01*
X57399853Y-116963423D01*
X57306877Y-117111395D01*
X57249159Y-117276341D01*
X57249157Y-117276351D01*
X57229593Y-117449996D01*
X57229593Y-117450003D01*
X52663005Y-117450003D01*
X52685710Y-117326104D01*
X52705436Y-117000000D01*
X52685710Y-116673896D01*
X52664948Y-116560603D01*
X72142993Y-116560603D01*
X72162557Y-116734248D01*
X72162559Y-116734257D01*
X72220278Y-116899206D01*
X72313253Y-117047176D01*
X72436824Y-117170747D01*
X72584794Y-117263722D01*
X72749743Y-117321441D01*
X72749749Y-117321441D01*
X72749751Y-117321442D01*
X72923396Y-117341007D01*
X72923400Y-117341007D01*
X72923404Y-117341007D01*
X73097048Y-117321442D01*
X73097047Y-117321442D01*
X73097057Y-117321441D01*
X73262006Y-117263722D01*
X73409976Y-117170747D01*
X73533547Y-117047176D01*
X73626522Y-116899206D01*
X73684241Y-116734257D01*
X73689322Y-116689159D01*
X73703807Y-116560603D01*
X73703807Y-116560596D01*
X73684242Y-116386951D01*
X73684241Y-116386949D01*
X73684241Y-116386943D01*
X73626522Y-116221994D01*
X73533547Y-116074024D01*
X73409976Y-115950453D01*
X73262006Y-115857478D01*
X73262005Y-115857477D01*
X73262004Y-115857477D01*
X73097058Y-115799759D01*
X73097048Y-115799757D01*
X72923404Y-115780193D01*
X72923396Y-115780193D01*
X72749751Y-115799757D01*
X72749741Y-115799759D01*
X72584795Y-115857477D01*
X72436823Y-115950453D01*
X72313253Y-116074023D01*
X72220277Y-116221995D01*
X72162559Y-116386941D01*
X72162557Y-116386951D01*
X72142993Y-116560596D01*
X72142993Y-116560603D01*
X52664948Y-116560603D01*
X52626821Y-116352547D01*
X52529627Y-116040639D01*
X52395545Y-115742721D01*
X52226530Y-115463137D01*
X52226528Y-115463134D01*
X52226526Y-115463131D01*
X52025045Y-115205960D01*
X51794039Y-114974954D01*
X51536868Y-114773473D01*
X51529306Y-114768901D01*
X51257279Y-114604455D01*
X50959361Y-114470373D01*
X50959354Y-114470370D01*
X50959342Y-114470366D01*
X50647452Y-114373178D01*
X50326099Y-114314289D01*
X50000000Y-114294564D01*
X49673900Y-114314289D01*
X49352547Y-114373178D01*
X49040657Y-114470366D01*
X49040641Y-114470372D01*
X49040639Y-114470373D01*
X48850933Y-114555752D01*
X48742725Y-114604453D01*
X48742723Y-114604454D01*
X48463131Y-114773473D01*
X48205960Y-114974954D01*
X47974954Y-115205960D01*
X47773473Y-115463131D01*
X47646708Y-115672825D01*
X47604455Y-115742721D01*
X47510963Y-115950453D01*
X47470372Y-116040642D01*
X47470366Y-116040657D01*
X47373178Y-116352547D01*
X47314289Y-116673900D01*
X47294564Y-116999999D01*
X45250500Y-116999999D01*
X45250500Y-114199503D01*
X56348293Y-114199503D01*
X56367857Y-114373148D01*
X56367859Y-114373158D01*
X56401874Y-114470366D01*
X56425578Y-114538106D01*
X56518553Y-114686076D01*
X56642124Y-114809647D01*
X56790094Y-114902622D01*
X56955043Y-114960341D01*
X56955049Y-114960341D01*
X56955051Y-114960342D01*
X57128696Y-114979907D01*
X57128700Y-114979907D01*
X57128704Y-114979907D01*
X57302348Y-114960342D01*
X57302347Y-114960342D01*
X57302357Y-114960341D01*
X57467306Y-114902622D01*
X57615276Y-114809647D01*
X57738847Y-114686076D01*
X57831822Y-114538106D01*
X57889541Y-114373157D01*
X57909107Y-114199500D01*
X57908852Y-114197241D01*
X57889542Y-114025851D01*
X57889541Y-114025849D01*
X57889541Y-114025843D01*
X57831822Y-113860894D01*
X57738847Y-113712924D01*
X57615276Y-113589353D01*
X57467306Y-113496378D01*
X57467305Y-113496377D01*
X57467304Y-113496377D01*
X57302358Y-113438659D01*
X57302348Y-113438657D01*
X57282342Y-113436403D01*
X67774193Y-113436403D01*
X67793757Y-113610048D01*
X67793759Y-113610058D01*
X67851477Y-113775004D01*
X67851478Y-113775006D01*
X67944453Y-113922976D01*
X68068024Y-114046547D01*
X68215994Y-114139522D01*
X68380943Y-114197241D01*
X68380949Y-114197241D01*
X68380951Y-114197242D01*
X68554596Y-114216807D01*
X68554600Y-114216807D01*
X68554604Y-114216807D01*
X68728248Y-114197242D01*
X68728247Y-114197242D01*
X68728257Y-114197241D01*
X68893206Y-114139522D01*
X69041176Y-114046547D01*
X69164747Y-113922976D01*
X69257722Y-113775006D01*
X69315441Y-113610057D01*
X69328249Y-113496378D01*
X69335007Y-113436403D01*
X69335007Y-113436396D01*
X69315442Y-113262751D01*
X69315441Y-113262749D01*
X69315441Y-113262743D01*
X69257722Y-113097794D01*
X69164747Y-112949824D01*
X69041176Y-112826253D01*
X68893206Y-112733278D01*
X68893205Y-112733277D01*
X68893204Y-112733277D01*
X68728258Y-112675559D01*
X68728248Y-112675557D01*
X68554604Y-112655993D01*
X68554596Y-112655993D01*
X68380951Y-112675557D01*
X68380941Y-112675559D01*
X68215995Y-112733277D01*
X68068023Y-112826253D01*
X67944453Y-112949823D01*
X67851477Y-113097795D01*
X67793759Y-113262741D01*
X67793757Y-113262751D01*
X67774193Y-113436396D01*
X67774193Y-113436403D01*
X57282342Y-113436403D01*
X57128704Y-113419093D01*
X57128696Y-113419093D01*
X56955051Y-113438657D01*
X56955041Y-113438659D01*
X56790095Y-113496377D01*
X56642123Y-113589353D01*
X56518553Y-113712923D01*
X56425577Y-113860895D01*
X56367859Y-114025841D01*
X56367857Y-114025851D01*
X56348293Y-114199496D01*
X56348293Y-114199503D01*
X45250500Y-114199503D01*
X45250500Y-113233203D01*
X51441993Y-113233203D01*
X51461557Y-113406848D01*
X51461559Y-113406858D01*
X51472686Y-113438657D01*
X51519278Y-113571806D01*
X51612253Y-113719776D01*
X51735824Y-113843347D01*
X51883794Y-113936322D01*
X52048743Y-113994041D01*
X52048749Y-113994041D01*
X52048751Y-113994042D01*
X52222396Y-114013607D01*
X52222400Y-114013607D01*
X52222404Y-114013607D01*
X52396048Y-113994042D01*
X52396047Y-113994042D01*
X52396057Y-113994041D01*
X52561006Y-113936322D01*
X52708976Y-113843347D01*
X52807819Y-113744503D01*
X52869142Y-113711019D01*
X52938834Y-113716003D01*
X52983180Y-113744503D01*
X53082024Y-113843347D01*
X53229994Y-113936322D01*
X53394943Y-113994041D01*
X53394949Y-113994041D01*
X53394951Y-113994042D01*
X53568596Y-114013607D01*
X53568600Y-114013607D01*
X53568604Y-114013607D01*
X53742248Y-113994042D01*
X53742247Y-113994042D01*
X53742257Y-113994041D01*
X53907206Y-113936322D01*
X54055176Y-113843347D01*
X54178747Y-113719776D01*
X54271722Y-113571806D01*
X54329441Y-113406857D01*
X54330221Y-113399926D01*
X54349007Y-113233203D01*
X54349007Y-113233196D01*
X54329442Y-113059551D01*
X54329441Y-113059549D01*
X54329441Y-113059543D01*
X54271722Y-112894594D01*
X54178747Y-112746624D01*
X54055176Y-112623053D01*
X53907206Y-112530078D01*
X53907205Y-112530077D01*
X53907204Y-112530077D01*
X53742258Y-112472359D01*
X53742248Y-112472357D01*
X53585707Y-112454720D01*
X53570093Y-112448159D01*
X53559003Y-112453640D01*
X53551492Y-112454720D01*
X53394951Y-112472357D01*
X53394941Y-112472359D01*
X53229995Y-112530077D01*
X53082025Y-112623052D01*
X52983180Y-112721897D01*
X52921857Y-112755381D01*
X52852165Y-112750397D01*
X52807822Y-112721899D01*
X52708976Y-112623053D01*
X52561006Y-112530078D01*
X52561005Y-112530077D01*
X52561004Y-112530077D01*
X52396058Y-112472359D01*
X52396048Y-112472357D01*
X52239507Y-112454720D01*
X52223893Y-112448159D01*
X52212803Y-112453640D01*
X52205292Y-112454720D01*
X52048751Y-112472357D01*
X52048741Y-112472359D01*
X51883795Y-112530077D01*
X51735823Y-112623053D01*
X51612253Y-112746623D01*
X51519277Y-112894595D01*
X51461559Y-113059541D01*
X51461557Y-113059551D01*
X51441993Y-113233196D01*
X51441993Y-113233203D01*
X45250500Y-113233203D01*
X45250500Y-111861603D01*
X49206793Y-111861603D01*
X49226357Y-112035248D01*
X49226359Y-112035258D01*
X49281713Y-112193447D01*
X49284078Y-112200206D01*
X49377053Y-112348176D01*
X49500624Y-112471747D01*
X49648594Y-112564722D01*
X49813543Y-112622441D01*
X49813549Y-112622441D01*
X49813551Y-112622442D01*
X49987196Y-112642007D01*
X49987200Y-112642007D01*
X49987204Y-112642007D01*
X50160848Y-112622442D01*
X50160847Y-112622442D01*
X50160857Y-112622441D01*
X50325806Y-112564722D01*
X50473776Y-112471747D01*
X50597347Y-112348176D01*
X50690322Y-112200206D01*
X50748041Y-112035257D01*
X50759022Y-111937796D01*
X50767607Y-111861603D01*
X50767607Y-111861596D01*
X50748042Y-111687951D01*
X50748041Y-111687949D01*
X50748041Y-111687943D01*
X50690322Y-111522994D01*
X50631767Y-111429803D01*
X51441993Y-111429803D01*
X51461557Y-111603448D01*
X51461559Y-111603458D01*
X51517786Y-111764142D01*
X51519278Y-111768406D01*
X51612253Y-111916376D01*
X51735824Y-112039947D01*
X51883794Y-112132922D01*
X52048743Y-112190641D01*
X52048749Y-112190641D01*
X52048751Y-112190642D01*
X52205292Y-112208280D01*
X52220905Y-112214840D01*
X52231996Y-112209360D01*
X52239507Y-112208280D01*
X52396048Y-112190642D01*
X52396047Y-112190642D01*
X52396057Y-112190641D01*
X52561006Y-112132922D01*
X52708976Y-112039947D01*
X52807819Y-111941103D01*
X52869142Y-111907619D01*
X52938834Y-111912603D01*
X52983180Y-111941104D01*
X53082024Y-112039947D01*
X53229994Y-112132922D01*
X53394943Y-112190641D01*
X53394949Y-112190641D01*
X53394951Y-112190642D01*
X53551492Y-112208280D01*
X53567105Y-112214840D01*
X53578196Y-112209360D01*
X53585707Y-112208280D01*
X53742248Y-112190642D01*
X53742247Y-112190642D01*
X53742257Y-112190641D01*
X53907206Y-112132922D01*
X54055176Y-112039947D01*
X54178747Y-111916376D01*
X54210428Y-111865954D01*
X54262760Y-111819665D01*
X54331813Y-111809015D01*
X54395662Y-111837389D01*
X54434035Y-111895778D01*
X54436310Y-111904325D01*
X54437458Y-111909356D01*
X54493628Y-112069876D01*
X54495178Y-112074306D01*
X54588153Y-112222276D01*
X54711724Y-112345847D01*
X54859694Y-112438822D01*
X55024643Y-112496541D01*
X55024649Y-112496541D01*
X55024651Y-112496542D01*
X55198296Y-112516107D01*
X55198300Y-112516107D01*
X55198304Y-112516107D01*
X55371948Y-112496542D01*
X55371947Y-112496542D01*
X55371957Y-112496541D01*
X55536906Y-112438822D01*
X55684876Y-112345847D01*
X55808447Y-112222276D01*
X55901422Y-112074306D01*
X55959141Y-111909357D01*
X55964031Y-111865957D01*
X55978707Y-111735703D01*
X55978707Y-111735696D01*
X55961537Y-111583303D01*
X58659693Y-111583303D01*
X58679257Y-111756948D01*
X58679259Y-111756958D01*
X58735043Y-111916376D01*
X58736978Y-111921906D01*
X58829953Y-112069876D01*
X58953524Y-112193447D01*
X59101494Y-112286422D01*
X59266443Y-112344141D01*
X59266449Y-112344141D01*
X59266451Y-112344142D01*
X59440096Y-112363707D01*
X59440100Y-112363707D01*
X59440104Y-112363707D01*
X59613748Y-112344142D01*
X59613747Y-112344142D01*
X59613757Y-112344141D01*
X59778706Y-112286422D01*
X59926676Y-112193447D01*
X60050247Y-112069876D01*
X60068703Y-112040503D01*
X60844093Y-112040503D01*
X60863657Y-112214148D01*
X60863659Y-112214158D01*
X60918195Y-112370010D01*
X60921378Y-112379106D01*
X61014353Y-112527076D01*
X61137924Y-112650647D01*
X61285894Y-112743622D01*
X61450843Y-112801341D01*
X61450849Y-112801341D01*
X61450851Y-112801342D01*
X61624496Y-112820907D01*
X61624500Y-112820907D01*
X61624504Y-112820907D01*
X61798148Y-112801342D01*
X61798147Y-112801342D01*
X61798157Y-112801341D01*
X61963106Y-112743622D01*
X62044125Y-112692714D01*
X62111360Y-112673714D01*
X62178195Y-112694081D01*
X62223410Y-112747349D01*
X62227137Y-112756752D01*
X62263478Y-112860606D01*
X62356453Y-113008576D01*
X62480024Y-113132147D01*
X62627994Y-113225122D01*
X62792943Y-113282841D01*
X62792949Y-113282841D01*
X62792951Y-113282842D01*
X62966596Y-113302407D01*
X62966600Y-113302407D01*
X62966604Y-113302407D01*
X63140248Y-113282842D01*
X63140247Y-113282842D01*
X63140257Y-113282841D01*
X63305206Y-113225122D01*
X63453176Y-113132147D01*
X63576747Y-113008576D01*
X63669722Y-112860606D01*
X63727441Y-112695657D01*
X63736432Y-112615850D01*
X63763497Y-112551441D01*
X63821092Y-112511885D01*
X63890929Y-112509746D01*
X63947332Y-112542056D01*
X63953224Y-112547947D01*
X64101194Y-112640922D01*
X64266143Y-112698641D01*
X64266149Y-112698641D01*
X64266151Y-112698642D01*
X64439796Y-112718207D01*
X64439800Y-112718207D01*
X64439804Y-112718207D01*
X64613448Y-112698642D01*
X64613447Y-112698642D01*
X64613457Y-112698641D01*
X64778406Y-112640922D01*
X64926376Y-112547947D01*
X65049947Y-112424376D01*
X65084106Y-112370010D01*
X65136438Y-112323721D01*
X65205491Y-112313071D01*
X65269340Y-112341445D01*
X65294092Y-112370010D01*
X65328251Y-112424374D01*
X65328252Y-112424375D01*
X65328253Y-112424376D01*
X65451824Y-112547947D01*
X65599794Y-112640922D01*
X65764743Y-112698641D01*
X65764749Y-112698641D01*
X65764751Y-112698642D01*
X65938396Y-112718207D01*
X65938400Y-112718207D01*
X65938404Y-112718207D01*
X66112048Y-112698642D01*
X66112047Y-112698642D01*
X66112057Y-112698641D01*
X66277006Y-112640922D01*
X66424976Y-112547947D01*
X66548547Y-112424376D01*
X66641522Y-112276406D01*
X66699241Y-112111457D01*
X66703926Y-112069876D01*
X66718807Y-111937803D01*
X66718807Y-111937796D01*
X66699242Y-111764151D01*
X66699241Y-111764149D01*
X66699241Y-111764143D01*
X66641522Y-111599194D01*
X66548547Y-111451224D01*
X66424976Y-111327653D01*
X66277006Y-111234678D01*
X66277005Y-111234677D01*
X66277004Y-111234677D01*
X66112058Y-111176959D01*
X66112048Y-111176957D01*
X65938404Y-111157393D01*
X65938396Y-111157393D01*
X65764751Y-111176957D01*
X65764741Y-111176959D01*
X65599795Y-111234677D01*
X65451823Y-111327653D01*
X65328253Y-111451223D01*
X65294094Y-111505588D01*
X65241759Y-111551879D01*
X65172706Y-111562527D01*
X65108857Y-111534152D01*
X65084106Y-111505588D01*
X65049946Y-111451223D01*
X64926376Y-111327653D01*
X64812580Y-111256151D01*
X64778406Y-111234678D01*
X64778405Y-111234677D01*
X64778404Y-111234677D01*
X64613454Y-111176958D01*
X64602902Y-111175769D01*
X64538489Y-111148702D01*
X64498934Y-111091107D01*
X64497640Y-111048803D01*
X71082493Y-111048803D01*
X71102057Y-111222448D01*
X71102059Y-111222458D01*
X71122074Y-111279657D01*
X71159778Y-111387406D01*
X71252753Y-111535376D01*
X71376324Y-111658947D01*
X71524294Y-111751922D01*
X71689243Y-111809641D01*
X71689249Y-111809641D01*
X71689251Y-111809642D01*
X71862896Y-111829207D01*
X71862900Y-111829207D01*
X71862904Y-111829207D01*
X72036548Y-111809642D01*
X72036547Y-111809642D01*
X72036557Y-111809641D01*
X72201506Y-111751922D01*
X72349476Y-111658947D01*
X72473047Y-111535376D01*
X72566022Y-111387406D01*
X72623741Y-111222457D01*
X72632051Y-111148702D01*
X72643307Y-111048803D01*
X72643307Y-111048796D01*
X72623742Y-110875151D01*
X72623741Y-110875149D01*
X72623741Y-110875143D01*
X72566022Y-110710194D01*
X72473047Y-110562224D01*
X72349476Y-110438653D01*
X72201506Y-110345678D01*
X72201505Y-110345677D01*
X72201504Y-110345677D01*
X72036558Y-110287959D01*
X72036548Y-110287957D01*
X71862904Y-110268393D01*
X71862896Y-110268393D01*
X71689251Y-110287957D01*
X71689241Y-110287959D01*
X71524295Y-110345677D01*
X71376323Y-110438653D01*
X71252753Y-110562223D01*
X71159777Y-110710195D01*
X71102059Y-110875141D01*
X71102057Y-110875151D01*
X71082493Y-111048796D01*
X71082493Y-111048803D01*
X64497640Y-111048803D01*
X64496797Y-111021270D01*
X64499740Y-111011611D01*
X64514841Y-110968457D01*
X64520470Y-110918496D01*
X64534407Y-110794803D01*
X64534407Y-110794796D01*
X64514842Y-110621151D01*
X64514841Y-110621149D01*
X64514841Y-110621143D01*
X64457122Y-110456194D01*
X64364147Y-110308224D01*
X64240576Y-110184653D01*
X64092606Y-110091678D01*
X64092605Y-110091677D01*
X64092604Y-110091677D01*
X63927658Y-110033959D01*
X63927648Y-110033957D01*
X63754004Y-110014393D01*
X63753996Y-110014393D01*
X63580351Y-110033957D01*
X63580341Y-110033959D01*
X63415395Y-110091677D01*
X63267423Y-110184653D01*
X63143853Y-110308223D01*
X63050877Y-110456195D01*
X62993159Y-110621141D01*
X62993157Y-110621151D01*
X62973593Y-110794796D01*
X62973593Y-110794803D01*
X62993157Y-110968448D01*
X62993159Y-110968458D01*
X63038042Y-111096723D01*
X63050878Y-111133406D01*
X63143853Y-111281376D01*
X63267424Y-111404947D01*
X63415394Y-111497922D01*
X63580343Y-111555641D01*
X63590892Y-111556829D01*
X63655306Y-111583894D01*
X63694863Y-111641487D01*
X63697003Y-111711324D01*
X63694054Y-111721003D01*
X63678959Y-111764142D01*
X63678957Y-111764151D01*
X63669967Y-111843945D01*
X63642901Y-111908359D01*
X63585306Y-111947914D01*
X63515469Y-111950052D01*
X63459066Y-111917743D01*
X63453176Y-111911853D01*
X63416463Y-111888785D01*
X63305206Y-111818878D01*
X63305205Y-111818877D01*
X63305204Y-111818877D01*
X63140258Y-111761159D01*
X63140248Y-111761157D01*
X62966604Y-111741593D01*
X62966596Y-111741593D01*
X62792951Y-111761157D01*
X62792941Y-111761159D01*
X62627992Y-111818878D01*
X62546974Y-111869785D01*
X62479737Y-111888785D01*
X62412902Y-111868417D01*
X62367689Y-111815148D01*
X62363962Y-111805746D01*
X62346890Y-111756957D01*
X62327622Y-111701894D01*
X62234647Y-111553924D01*
X62111076Y-111430353D01*
X61963106Y-111337378D01*
X61963105Y-111337377D01*
X61963104Y-111337377D01*
X61798158Y-111279659D01*
X61798148Y-111279657D01*
X61624504Y-111260093D01*
X61624496Y-111260093D01*
X61450851Y-111279657D01*
X61450841Y-111279659D01*
X61285895Y-111337377D01*
X61137923Y-111430353D01*
X61014353Y-111553923D01*
X60921377Y-111701895D01*
X60863659Y-111866841D01*
X60863657Y-111866851D01*
X60844093Y-112040496D01*
X60844093Y-112040503D01*
X60068703Y-112040503D01*
X60143222Y-111921906D01*
X60200941Y-111756957D01*
X60203336Y-111735700D01*
X60220507Y-111583303D01*
X60220507Y-111583296D01*
X60200942Y-111409651D01*
X60200941Y-111409649D01*
X60200941Y-111409643D01*
X60143222Y-111244694D01*
X60050247Y-111096724D01*
X59926676Y-110973153D01*
X59778706Y-110880178D01*
X59778705Y-110880177D01*
X59778704Y-110880177D01*
X59613758Y-110822459D01*
X59613748Y-110822457D01*
X59440104Y-110802893D01*
X59440096Y-110802893D01*
X59266451Y-110822457D01*
X59266441Y-110822459D01*
X59101495Y-110880177D01*
X58953523Y-110973153D01*
X58829953Y-111096723D01*
X58736977Y-111244695D01*
X58679259Y-111409641D01*
X58679257Y-111409651D01*
X58659693Y-111583296D01*
X58659693Y-111583303D01*
X55961537Y-111583303D01*
X55959142Y-111562051D01*
X55959141Y-111562049D01*
X55959141Y-111562043D01*
X55901422Y-111397094D01*
X55808447Y-111249124D01*
X55684876Y-111125553D01*
X55536906Y-111032578D01*
X55536905Y-111032577D01*
X55536904Y-111032577D01*
X55371958Y-110974859D01*
X55371948Y-110974857D01*
X55198304Y-110955293D01*
X55198296Y-110955293D01*
X55024651Y-110974857D01*
X55024641Y-110974859D01*
X54859695Y-111032577D01*
X54711723Y-111125553D01*
X54588153Y-111249123D01*
X54556472Y-111299544D01*
X54504137Y-111345835D01*
X54435083Y-111356483D01*
X54371235Y-111328108D01*
X54332863Y-111269718D01*
X54330587Y-111261167D01*
X54329442Y-111256155D01*
X54329441Y-111256143D01*
X54271722Y-111091194D01*
X54178747Y-110943224D01*
X54055176Y-110819653D01*
X53907206Y-110726678D01*
X53907205Y-110726677D01*
X53907204Y-110726677D01*
X53742258Y-110668959D01*
X53742248Y-110668957D01*
X53568604Y-110649393D01*
X53568596Y-110649393D01*
X53394951Y-110668957D01*
X53394941Y-110668959D01*
X53229995Y-110726677D01*
X53082025Y-110819652D01*
X52983181Y-110918496D01*
X52921858Y-110951980D01*
X52852166Y-110946996D01*
X52807819Y-110918496D01*
X52764464Y-110875141D01*
X52708976Y-110819653D01*
X52561006Y-110726678D01*
X52513898Y-110710194D01*
X52473164Y-110695940D01*
X52416389Y-110655218D01*
X52390642Y-110590265D01*
X52404099Y-110521703D01*
X52452487Y-110471301D01*
X52473147Y-110461865D01*
X52561006Y-110431122D01*
X52708976Y-110338147D01*
X52832547Y-110214576D01*
X52925522Y-110066606D01*
X52983241Y-109901657D01*
X52996136Y-109787206D01*
X53002807Y-109728003D01*
X53002807Y-109727996D01*
X52983242Y-109554351D01*
X52983241Y-109554349D01*
X52983241Y-109554343D01*
X52946240Y-109448603D01*
X53575593Y-109448603D01*
X53595157Y-109622248D01*
X53595159Y-109622258D01*
X53643989Y-109761804D01*
X53652878Y-109787206D01*
X53745853Y-109935176D01*
X53869424Y-110058747D01*
X54017394Y-110151722D01*
X54182343Y-110209441D01*
X54182349Y-110209441D01*
X54182351Y-110209442D01*
X54355996Y-110229007D01*
X54356000Y-110229007D01*
X54356004Y-110229007D01*
X54529648Y-110209442D01*
X54529647Y-110209442D01*
X54529657Y-110209441D01*
X54694606Y-110151722D01*
X54842576Y-110058747D01*
X54966147Y-109935176D01*
X55059122Y-109787206D01*
X55116841Y-109622257D01*
X55124959Y-109550203D01*
X58503193Y-109550203D01*
X58522757Y-109723848D01*
X58522759Y-109723858D01*
X58536037Y-109761804D01*
X58580478Y-109888806D01*
X58673453Y-110036776D01*
X58797024Y-110160347D01*
X58944994Y-110253322D01*
X59109943Y-110311041D01*
X59109949Y-110311041D01*
X59109951Y-110311042D01*
X59283596Y-110330607D01*
X59283600Y-110330607D01*
X59283604Y-110330607D01*
X59457248Y-110311042D01*
X59457247Y-110311042D01*
X59457257Y-110311041D01*
X59622206Y-110253322D01*
X59770176Y-110160347D01*
X59893747Y-110036776D01*
X59986722Y-109888806D01*
X60044441Y-109723857D01*
X60055888Y-109622258D01*
X60064007Y-109550203D01*
X60064007Y-109550196D01*
X60049698Y-109423203D01*
X71990593Y-109423203D01*
X72010157Y-109596848D01*
X72010159Y-109596858D01*
X72067877Y-109761804D01*
X72067878Y-109761806D01*
X72160853Y-109909776D01*
X72284424Y-110033347D01*
X72432394Y-110126322D01*
X72597343Y-110184041D01*
X72597349Y-110184041D01*
X72597351Y-110184042D01*
X72770996Y-110203607D01*
X72771000Y-110203607D01*
X72771004Y-110203607D01*
X72944648Y-110184042D01*
X72944647Y-110184042D01*
X72944657Y-110184041D01*
X73109606Y-110126322D01*
X73257576Y-110033347D01*
X73381147Y-109909776D01*
X73474122Y-109761806D01*
X73531841Y-109596857D01*
X73551407Y-109423200D01*
X73547598Y-109389395D01*
X73531842Y-109249551D01*
X73531841Y-109249549D01*
X73531841Y-109249543D01*
X73474122Y-109084594D01*
X73381147Y-108936624D01*
X73257576Y-108813053D01*
X73109606Y-108720078D01*
X73109605Y-108720077D01*
X73109604Y-108720077D01*
X72944658Y-108662359D01*
X72944648Y-108662357D01*
X72771004Y-108642793D01*
X72770996Y-108642793D01*
X72597351Y-108662357D01*
X72597341Y-108662359D01*
X72432395Y-108720077D01*
X72284423Y-108813053D01*
X72160853Y-108936623D01*
X72067877Y-109084595D01*
X72010159Y-109249541D01*
X72010157Y-109249551D01*
X71990593Y-109423196D01*
X71990593Y-109423203D01*
X60049698Y-109423203D01*
X60044442Y-109376551D01*
X60044441Y-109376549D01*
X60044441Y-109376543D01*
X59986722Y-109211594D01*
X59893747Y-109063624D01*
X59770176Y-108940053D01*
X59622206Y-108847078D01*
X59622205Y-108847077D01*
X59622204Y-108847077D01*
X59457258Y-108789359D01*
X59457248Y-108789357D01*
X59283604Y-108769793D01*
X59283596Y-108769793D01*
X59109951Y-108789357D01*
X59109941Y-108789359D01*
X58944995Y-108847077D01*
X58797023Y-108940053D01*
X58673453Y-109063623D01*
X58580477Y-109211595D01*
X58522759Y-109376541D01*
X58522757Y-109376551D01*
X58503193Y-109550196D01*
X58503193Y-109550203D01*
X55124959Y-109550203D01*
X55136407Y-109448600D01*
X55133545Y-109423200D01*
X55116842Y-109274951D01*
X55116841Y-109274949D01*
X55116841Y-109274943D01*
X55059122Y-109109994D01*
X54966147Y-108962024D01*
X54842576Y-108838453D01*
X54694606Y-108745478D01*
X54694605Y-108745477D01*
X54694604Y-108745477D01*
X54529658Y-108687759D01*
X54529648Y-108687757D01*
X54356004Y-108668193D01*
X54355996Y-108668193D01*
X54182351Y-108687757D01*
X54182341Y-108687759D01*
X54017395Y-108745477D01*
X53869423Y-108838453D01*
X53745853Y-108962023D01*
X53652877Y-109109995D01*
X53595159Y-109274941D01*
X53595157Y-109274951D01*
X53575593Y-109448596D01*
X53575593Y-109448603D01*
X52946240Y-109448603D01*
X52925522Y-109389394D01*
X52832547Y-109241424D01*
X52708976Y-109117853D01*
X52561006Y-109024878D01*
X52561005Y-109024877D01*
X52561004Y-109024877D01*
X52396058Y-108967159D01*
X52396048Y-108967157D01*
X52222404Y-108947593D01*
X52222396Y-108947593D01*
X52048751Y-108967157D01*
X52048741Y-108967159D01*
X51883795Y-109024877D01*
X51735823Y-109117853D01*
X51612253Y-109241423D01*
X51519277Y-109389395D01*
X51461559Y-109554341D01*
X51461557Y-109554351D01*
X51441993Y-109727996D01*
X51441993Y-109728003D01*
X51461557Y-109901648D01*
X51461559Y-109901658D01*
X51516528Y-110058747D01*
X51519278Y-110066606D01*
X51612253Y-110214576D01*
X51735824Y-110338147D01*
X51883794Y-110431122D01*
X51971637Y-110461860D01*
X52028409Y-110502579D01*
X52054157Y-110567531D01*
X52040701Y-110636093D01*
X51992314Y-110686496D01*
X51971635Y-110695940D01*
X51883794Y-110726678D01*
X51735823Y-110819653D01*
X51612253Y-110943223D01*
X51519277Y-111091195D01*
X51461559Y-111256141D01*
X51461557Y-111256151D01*
X51441993Y-111429796D01*
X51441993Y-111429803D01*
X50631767Y-111429803D01*
X50597347Y-111375024D01*
X50473776Y-111251453D01*
X50325806Y-111158478D01*
X50325805Y-111158477D01*
X50325804Y-111158477D01*
X50160858Y-111100759D01*
X50160848Y-111100757D01*
X49987204Y-111081193D01*
X49987196Y-111081193D01*
X49813551Y-111100757D01*
X49813541Y-111100759D01*
X49648595Y-111158477D01*
X49500623Y-111251453D01*
X49377053Y-111375023D01*
X49284077Y-111522995D01*
X49226359Y-111687941D01*
X49226357Y-111687951D01*
X49206793Y-111861596D01*
X49206793Y-111861603D01*
X45250500Y-111861603D01*
X45250500Y-106002212D01*
X45250658Y-105997788D01*
X45250814Y-105995611D01*
X45267674Y-105759859D01*
X45270192Y-105742353D01*
X45271088Y-105738234D01*
X45319483Y-105515766D01*
X45324460Y-105498815D01*
X45405501Y-105281536D01*
X45412851Y-105265444D01*
X45413316Y-105264593D01*
X45523981Y-105061923D01*
X45533537Y-105047054D01*
X45672506Y-104861413D01*
X45684080Y-104848056D01*
X45848056Y-104684080D01*
X45861413Y-104672506D01*
X46047054Y-104533537D01*
X46061923Y-104523981D01*
X46265444Y-104412850D01*
X46281537Y-104405501D01*
X46297315Y-104399616D01*
X46498815Y-104324460D01*
X46515766Y-104319483D01*
X46742360Y-104270190D01*
X46759857Y-104267674D01*
X46997791Y-104250657D01*
X47002214Y-104250500D01*
X47044170Y-104250500D01*
X49283943Y-104250500D01*
X49350982Y-104270185D01*
G37*
%TD.AperFunction*%
%TD*%
M02*
