%TF.GenerationSoftware,KiCad,Pcbnew,7.0.5*%
%TF.CreationDate,2023-07-17T11:42:08-04:00*%
%TF.ProjectId,elora_vision,656c6f72-615f-4766-9973-696f6e2e6b69,rev?*%
%TF.SameCoordinates,Original*%
%TF.FileFunction,Soldermask,Bot*%
%TF.FilePolarity,Negative*%
%FSLAX46Y46*%
G04 Gerber Fmt 4.6, Leading zero omitted, Abs format (unit mm)*
G04 Created by KiCad (PCBNEW 7.0.5) date 2023-07-17 11:42:08*
%MOMM*%
%LPD*%
G01*
G04 APERTURE LIST*
G04 Aperture macros list*
%AMRoundRect*
0 Rectangle with rounded corners*
0 $1 Rounding radius*
0 $2 $3 $4 $5 $6 $7 $8 $9 X,Y pos of 4 corners*
0 Add a 4 corners polygon primitive as box body*
4,1,4,$2,$3,$4,$5,$6,$7,$8,$9,$2,$3,0*
0 Add four circle primitives for the rounded corners*
1,1,$1+$1,$2,$3*
1,1,$1+$1,$4,$5*
1,1,$1+$1,$6,$7*
1,1,$1+$1,$8,$9*
0 Add four rect primitives between the rounded corners*
20,1,$1+$1,$2,$3,$4,$5,0*
20,1,$1+$1,$4,$5,$6,$7,0*
20,1,$1+$1,$6,$7,$8,$9,0*
20,1,$1+$1,$8,$9,$2,$3,0*%
G04 Aperture macros list end*
%ADD10C,0.010000*%
%ADD11C,4.500000*%
%ADD12RoundRect,0.050000X0.850000X-0.850000X0.850000X0.850000X-0.850000X0.850000X-0.850000X-0.850000X0*%
%ADD13O,1.800000X1.800000*%
%ADD14O,2.000000X1.300000*%
%ADD15C,1.550000*%
%ADD16C,1.975000*%
%ADD17RoundRect,0.050000X-0.850000X0.850000X-0.850000X-0.850000X0.850000X-0.850000X0.850000X0.850000X0*%
G04 APERTURE END LIST*
%TO.C,J3*%
D10*
X49079640Y-112492680D02*
X46677200Y-112492680D01*
X46677200Y-111238400D01*
X49079640Y-111238400D01*
X49079640Y-112492680D01*
G36*
X49079640Y-112492680D02*
G01*
X46677200Y-112492680D01*
X46677200Y-111238400D01*
X49079640Y-111238400D01*
X49079640Y-112492680D01*
G37*
X46975806Y-110989328D02*
X45777200Y-110989328D01*
X45777200Y-109788400D01*
X46975806Y-109788400D01*
X46975806Y-110989328D01*
G36*
X46975806Y-110989328D02*
G01*
X45777200Y-110989328D01*
X45777200Y-109788400D01*
X46975806Y-109788400D01*
X46975806Y-110989328D01*
G37*
X49078430Y-109537528D02*
X46677200Y-109537528D01*
X46677200Y-108288400D01*
X49078430Y-108288400D01*
X49078430Y-109537528D01*
G36*
X49078430Y-109537528D02*
G01*
X46677200Y-109537528D01*
X46677200Y-108288400D01*
X49078430Y-108288400D01*
X49078430Y-109537528D01*
G37*
%TD*%
D11*
%TO.C,H3*%
X80000000Y-117000000D03*
%TD*%
%TO.C,H4*%
X50000000Y-117000000D03*
%TD*%
D12*
%TO.C,J4*%
X55524400Y-140487400D03*
D13*
X58064400Y-140487400D03*
X60604400Y-140487400D03*
X63144400Y-140487400D03*
X65684400Y-140487400D03*
X68224400Y-140487400D03*
%TD*%
D14*
%TO.C,J1*%
X82437500Y-133192400D03*
D15*
X79737500Y-132192400D03*
X79737500Y-127192400D03*
D14*
X82437500Y-126192400D03*
%TD*%
D16*
%TO.C,B2*%
X53694400Y-122351800D03*
X47194400Y-122351800D03*
%TD*%
D17*
%TO.C,J2*%
X82753200Y-121996200D03*
D13*
X80213200Y-121996200D03*
X77673200Y-121996200D03*
X75133200Y-121996200D03*
%TD*%
M02*
