%TF.GenerationSoftware,KiCad,Pcbnew,7.0.5*%
%TF.CreationDate,2023-07-17T11:42:08-04:00*%
%TF.ProjectId,elora_vision,656c6f72-615f-4766-9973-696f6e2e6b69,rev?*%
%TF.SameCoordinates,Original*%
%TF.FileFunction,Copper,L4,Bot*%
%TF.FilePolarity,Positive*%
%FSLAX46Y46*%
G04 Gerber Fmt 4.6, Leading zero omitted, Abs format (unit mm)*
G04 Created by KiCad (PCBNEW 7.0.5) date 2023-07-17 11:42:08*
%MOMM*%
%LPD*%
G01*
G04 APERTURE LIST*
%TA.AperFunction,ComponentPad*%
%ADD10C,4.400000*%
%TD*%
%TA.AperFunction,ComponentPad*%
%ADD11R,1.700000X1.700000*%
%TD*%
%TA.AperFunction,ComponentPad*%
%ADD12O,1.700000X1.700000*%
%TD*%
%TA.AperFunction,ComponentPad*%
%ADD13O,1.900000X1.200000*%
%TD*%
%TA.AperFunction,ComponentPad*%
%ADD14C,1.450000*%
%TD*%
%TA.AperFunction,ComponentPad*%
%ADD15C,1.875000*%
%TD*%
%TA.AperFunction,ViaPad*%
%ADD16C,0.550000*%
%TD*%
%TA.AperFunction,ViaPad*%
%ADD17C,0.700000*%
%TD*%
%TA.AperFunction,Conductor*%
%ADD18C,0.300000*%
%TD*%
G04 APERTURE END LIST*
D10*
%TO.P,H3,1,1*%
%TO.N,GND*%
X80000000Y-117000000D03*
%TD*%
%TO.P,H4,1,1*%
%TO.N,GND*%
X50000000Y-117000000D03*
%TD*%
D11*
%TO.P,J4,1,Pin_1*%
%TO.N,PA2*%
X55524400Y-140487400D03*
D12*
%TO.P,J4,2,Pin_2*%
%TO.N,PA3*%
X58064400Y-140487400D03*
%TO.P,J4,3,Pin_3*%
%TO.N,PA4*%
X60604400Y-140487400D03*
%TO.P,J4,4,Pin_4*%
%TO.N,PA5*%
X63144400Y-140487400D03*
%TO.P,J4,5,Pin_5*%
%TO.N,PA6*%
X65684400Y-140487400D03*
%TO.P,J4,6,Pin_6*%
%TO.N,PA7*%
X68224400Y-140487400D03*
%TD*%
D13*
%TO.P,J1,6,Shield*%
%TO.N,unconnected-(J1-Shield-Pad6)*%
X82437500Y-133192400D03*
D14*
X79737500Y-132192400D03*
X79737500Y-127192400D03*
D13*
X82437500Y-126192400D03*
%TD*%
D15*
%TO.P,B2,1*%
%TO.N,NRST*%
X53694400Y-122351800D03*
%TO.P,B2,2*%
%TO.N,GND*%
X47194400Y-122351800D03*
%TD*%
D11*
%TO.P,J2,1,Pin_1*%
%TO.N,+3.3V*%
X82753200Y-121996200D03*
D12*
%TO.P,J2,2,Pin_2*%
%TO.N,PA13*%
X80213200Y-121996200D03*
%TO.P,J2,3,Pin_3*%
%TO.N,PA14*%
X77673200Y-121996200D03*
%TO.P,J2,4,Pin_4*%
%TO.N,GND*%
X75133200Y-121996200D03*
%TD*%
D16*
%TO.N,+3.3V*%
X75107800Y-140817600D03*
X52959000Y-127609600D03*
X57378600Y-110413800D03*
X56311800Y-132715000D03*
X73990200Y-142163800D03*
X57378600Y-128244600D03*
X68783200Y-133324600D03*
X66624200Y-120040400D03*
X80137000Y-136880600D03*
X81381600Y-138226800D03*
X58826400Y-126238000D03*
X74015600Y-125780800D03*
X56286400Y-121285000D03*
X64439800Y-114706400D03*
X67233800Y-127584200D03*
X81407000Y-135585200D03*
X56108600Y-110413800D03*
%TO.N,NRST*%
X54432200Y-128600200D03*
X55200539Y-131940839D03*
%TO.N,GND*%
X64439800Y-111937800D03*
X68554600Y-113436400D03*
X53568600Y-113233200D03*
X57128700Y-114199500D03*
X52146200Y-131470400D03*
X63423800Y-107899200D03*
X47625000Y-127635000D03*
X66548000Y-120827800D03*
X52095400Y-119075200D03*
X49479200Y-105257600D03*
X72923400Y-116560600D03*
X64973200Y-138252200D03*
X53035200Y-131470400D03*
X53187600Y-105257600D03*
X47904400Y-105841800D03*
X62357000Y-138252200D03*
X56286400Y-122275600D03*
X69367400Y-121056400D03*
X72771000Y-109423200D03*
X66217800Y-138252200D03*
X66847259Y-118023300D03*
X65938400Y-111937800D03*
X59283600Y-109550200D03*
D17*
X76784200Y-125780800D03*
X75590400Y-125780800D03*
D16*
X47904400Y-107442000D03*
X77876400Y-119100600D03*
X55198300Y-111735700D03*
X70586600Y-134315200D03*
X52222400Y-111429800D03*
X62966600Y-112522000D03*
X71247000Y-140817600D03*
X69824600Y-121945400D03*
X56286400Y-123875800D03*
D17*
X77800200Y-125806200D03*
D16*
X56057800Y-125196600D03*
X71862900Y-111048800D03*
X51308000Y-105257600D03*
X70586600Y-135610600D03*
X69367400Y-119557800D03*
X70180200Y-117398800D03*
X81407000Y-141274800D03*
X61624500Y-112040500D03*
X47066200Y-134518400D03*
X53568600Y-111429800D03*
X67462400Y-138252200D03*
X63601600Y-138252200D03*
X47675800Y-129971800D03*
X52222400Y-113233200D03*
X60604400Y-123444000D03*
X54356000Y-109448600D03*
X46329600Y-138557000D03*
X71247000Y-138861800D03*
X67335400Y-128600200D03*
X71247000Y-136829800D03*
X72415400Y-135712200D03*
X59440100Y-111583300D03*
X52222400Y-109728000D03*
X56844092Y-131944192D03*
X49987200Y-111861600D03*
%TO.N,Net-(U2-EXP)*%
X77119600Y-138981600D03*
X78384400Y-138150600D03*
%TO.N,Net-(U5-CTRL)*%
X67487800Y-122910600D03*
X54457600Y-106045000D03*
%TO.N,Net-(U6-RFI_HF)*%
X63754000Y-110794800D03*
X66598800Y-121996200D03*
%TO.N,LORA_SCK*%
X61249100Y-123977400D03*
X67233800Y-134620000D03*
%TO.N,LORA_DIO0*%
X65200000Y-123630000D03*
X58010000Y-117450000D03*
%TO.N,LORA_MISO*%
X61890000Y-123500000D03*
X63370000Y-124330000D03*
%TO.N,LORA_DIO1*%
X59588400Y-125831600D03*
X56972200Y-119735600D03*
D17*
%TO.N,PA10*%
X69418200Y-131724400D03*
X71450200Y-127304800D03*
D16*
%TO.N,PA6*%
X64287400Y-139268200D03*
X60737373Y-136149973D03*
%TO.N,PA7*%
X68783200Y-137109200D03*
X62103000Y-135432800D03*
%TD*%
D18*
%TO.N,LORA_SCK*%
X61249100Y-128635300D02*
X67233800Y-134620000D01*
X61249100Y-123977400D02*
X61249100Y-128635300D01*
%TO.N,NRST*%
X54432200Y-128600200D02*
X54432200Y-131172500D01*
X54432200Y-131172500D02*
X55200539Y-131940839D01*
%TO.N,Net-(U2-EXP)*%
X78384400Y-138150600D02*
X78384400Y-138633200D01*
X78036000Y-138981600D02*
X77119600Y-138981600D01*
X78384400Y-138633200D02*
X78036000Y-138981600D01*
%TO.N,Net-(U5-CTRL)*%
X55219600Y-105283000D02*
X57683400Y-105283000D01*
X54457600Y-106045000D02*
X55219600Y-105283000D01*
X66334800Y-108925200D02*
X67472259Y-110062659D01*
X67472259Y-122895059D02*
X67487800Y-122910600D01*
X61325600Y-108925200D02*
X66334800Y-108925200D01*
X67472259Y-110062659D02*
X67472259Y-122895059D01*
X57683400Y-105283000D02*
X61325600Y-108925200D01*
%TO.N,Net-(U6-RFI_HF)*%
X65252600Y-121996200D02*
X66598800Y-121996200D01*
X63754000Y-110794800D02*
X63754000Y-120497600D01*
X63754000Y-120497600D02*
X65252600Y-121996200D01*
%TO.N,LORA_DIO0*%
X57400000Y-117430000D02*
X57990000Y-117430000D01*
X57000000Y-117830000D02*
X57400000Y-117430000D01*
X57000000Y-118600000D02*
X57000000Y-117830000D01*
X62420000Y-120430000D02*
X58830000Y-120430000D01*
X58830000Y-120430000D02*
X57000000Y-118600000D01*
X65200000Y-123600000D02*
X65200000Y-123210000D01*
X65200000Y-123210000D02*
X62420000Y-120430000D01*
X57990000Y-117430000D02*
X58010000Y-117450000D01*
%TO.N,LORA_MISO*%
X62720000Y-124330000D02*
X63370000Y-124330000D01*
X61890000Y-123500000D02*
X62720000Y-124330000D01*
%TO.N,LORA_DIO1*%
X56972200Y-119735600D02*
X58267600Y-121031000D01*
X58267600Y-121031000D02*
X58267600Y-123571000D01*
X59588400Y-124891800D02*
X59588400Y-125831600D01*
X58267600Y-123571000D02*
X59588400Y-124891800D01*
%TO.N,PA10*%
X71450200Y-127304800D02*
X70281800Y-128473200D01*
X70281800Y-130860800D02*
X70281800Y-128473200D01*
X69418200Y-131724400D02*
X70281800Y-130860800D01*
%TO.N,PA6*%
X62489116Y-139268200D02*
X64287400Y-139268200D01*
X60737373Y-137516457D02*
X62489116Y-139268200D01*
X60737373Y-136149973D02*
X60737373Y-137516457D01*
%TO.N,PA7*%
X62103000Y-135432800D02*
X65526884Y-135432800D01*
X66929000Y-135407400D02*
X68630800Y-137109200D01*
X65526884Y-135432800D02*
X65552284Y-135407400D01*
X65552284Y-135407400D02*
X66929000Y-135407400D01*
X68630800Y-137109200D02*
X68783200Y-137109200D01*
%TD*%
M02*
