M48
; DRILL file {KiCad 7.0.5} date Mon Jul 17 11:41:50 2023
; FORMAT={-:-/ absolute / inch / decimal}
; #@! TF.CreationDate,2023-07-17T11:41:50-04:00
; #@! TF.GenerationSoftware,Kicad,Pcbnew,7.0.5
; #@! TF.FileFunction,Plated,1,4,PTH
FMAT,2
INCH
; #@! TA.AperFunction,Plated,PTH,ViaDrill
T1C0.0098
; #@! TA.AperFunction,Plated,PTH,ViaDrill
T2C0.0118
; #@! TA.AperFunction,Plated,PTH,ComponentDrill
T3C0.0236
; #@! TA.AperFunction,Plated,PTH,ComponentDrill
T4C0.0335
; #@! TA.AperFunction,Plated,PTH,ComponentDrill
T5C0.0394
; #@! TA.AperFunction,Plated,PTH,ComponentDrill
T6C0.0492
; #@! TA.AperFunction,Plated,PTH,ComponentDrill
T7C0.0866
%
G90
G05
T1
X1.824Y-5.455
X1.853Y-5.296
X1.875Y-5.025
X1.877Y-5.117
X1.886Y-4.167
X1.886Y-4.23
X1.948Y-4.144
X1.968Y-4.404
X2.02Y-4.144
X2.051Y-4.688
X2.053Y-5.176
X2.056Y-4.32
X2.056Y-4.387
X2.056Y-4.458
X2.085Y-5.024
X2.088Y-5.176
X2.094Y-4.144
X2.109Y-4.387
X2.109Y-4.458
X2.14Y-4.309
X2.143Y-5.063
X2.144Y-4.175
X2.1732Y-4.399
X2.1732Y-5.1945
X2.207Y-4.929
X2.209Y-4.347
X2.216Y-4.775
X2.216Y-4.814
X2.216Y-4.877
X2.217Y-5.225
X2.238Y-5.1947
X2.243Y-4.714
X2.2492Y-4.496
X2.259Y-4.347
X2.259Y-5.049
X2.2839Y-4.624
X2.316Y-4.97
X2.334Y-4.313
X2.3402Y-4.393
X2.346Y-4.954
X2.386Y-4.86
X2.3912Y-5.3602
X2.4114Y-4.881
X2.4262Y-4.411
X2.4366Y-4.8622
X2.445Y-5.332
X2.455Y-5.443
X2.479Y-4.43
X2.4949Y-4.8949
X2.497Y-4.248
X2.504Y-5.443
X2.51Y-4.362
X2.531Y-5.483
X2.537Y-4.407
X2.537Y-4.516
X2.558Y-5.443
X2.5669Y-4.8673
X2.596Y-4.407
X2.607Y-5.443
X2.62Y-4.757
X2.622Y-4.803
X2.623Y-4.726
X2.6318Y-4.6466
X2.647Y-5.023
X2.647Y-5.3
X2.651Y-5.063
X2.656Y-5.443
X2.657Y-4.839
X2.699Y-4.466
X2.708Y-5.249
X2.708Y-5.398
X2.731Y-4.707
X2.731Y-4.766
X2.749Y-4.801
X2.763Y-4.622
X2.779Y-5.288
X2.779Y-5.339
X2.805Y-5.387
X2.805Y-5.467
X2.805Y-5.544
X2.8292Y-4.372
X2.851Y-5.343
X2.865Y-4.308
X2.871Y-4.589
X2.913Y-5.597
X2.914Y-4.952
X2.957Y-5.544
X3.0362Y-5.4717
X3.066Y-4.689
X3.086Y-5.439
X3.155Y-5.389
X3.204Y-5.442
X3.205Y-5.338
X3.205Y-5.562
T2
X2.733Y-5.186
X2.813Y-5.012
X2.976Y-4.952
X3.023Y-4.952
X3.063Y-4.953
T4
X3.1393Y-5.0076
X3.1393Y-5.2044
T5
X2.186Y-5.531
X2.286Y-5.531
X2.386Y-5.531
X2.486Y-5.531
X2.586Y-5.531
X2.686Y-5.531
X2.958Y-4.803
X3.058Y-4.803
X3.158Y-4.803
X3.258Y-4.803
T6
X1.858Y-4.817
X2.114Y-4.817
T7
X1.9685Y-4.6063
X3.1496Y-4.6063
T3
G00X3.2318Y-4.9682
M15
G01X3.2594Y-4.9682
M16
G05
G00X3.2594Y-5.2438
M15
G01X3.2318Y-5.2438
M16
G05
T0
M30
